SplineFontDB: 3.0
FontName: Neuton-Regular
FullName: Neuton Regular
FamilyName: Neuton
Weight: Regular
Copyright: Copyright (c) 2010, 2011 Brian M Zick (http://21326.info/),\nwith Reserved Font Name "Neuton".\n\nThis Font Software is licensed under the SIL Open Font License, Version 1.1.\nThis license is available with a FAQ at: http://scripts.sil.org/OFL
Version: 1.42
ItalicAngle: 0
UnderlinePosition: -361
UnderlineWidth: 0
Ascent: 1638
Descent: 410
sfntRevision: 0x00016b85
LayerCount: 2
Layer: 0 1 "Back"  1
Layer: 1 1 "Fore"  0
XUID: [1021 288 713564382 637645]
FSType: 0
OS2Version: 1
OS2_WeightWidthSlopeOnly: 0
OS2_UseTypoMetrics: 1
CreationTime: 1305772905
ModificationTime: 1313787418
PfmFamily: 17
TTFWeight: 400
TTFWidth: 5
LineGap: 0
VLineGap: 0
Panose: 2 0 5 3 0 0 0 0 0 0
OS2TypoAscent: 468
OS2TypoAOffset: 1
OS2TypoDescent: -75
OS2TypoDOffset: 1
OS2TypoLinegap: 0
OS2WinAscent: 240
OS2WinAOffset: 1
OS2WinDescent: 67
OS2WinDOffset: 1
HheadAscent: 240
HheadAOffset: 1
HheadDescent: -67
HheadDOffset: 1
OS2SubXSize: 1095
OS2SubYSize: 1179
OS2SubXOff: 0
OS2SubYOff: 235
OS2SupXSize: 1095
OS2SupYSize: 1179
OS2SupXOff: 0
OS2SupYOff: 809
OS2StrikeYSize: 84
OS2StrikeYPos: 4436
OS2Vendor: 'PfEd'
OS2CodePages: a00000b3.00000000
OS2UnicodeRanges: a00008ef.1000204a.00000000.00000000
Lookup: 258 0 0 "'kern' Horizontal Kerning in Latin lookup 0"  {"'kern' Horizontal Kerning in Latin lookup 0 subtable"  } ['kern' ('DFLT' <'dflt' > 'latn' <'dflt' > ) ]
Lookup: 258 0 0 "'kern' Horizontal Kerning in Latin lookup 1"  {"'kern' Horizontal Kerning in Latin lookup 1 subtable"  } ['kern' ('latn' <'dflt' > ) ]
Lookup: 258 0 0 "'kern' Horizontal Kerning in Latin lookup 2"  {"'kern' Horizontal Kerning in Latin lookup 2 subtable"  } ['kern' ('DFLT' <'dflt' > 'latn' <'dflt' > ) ]
MarkAttachClasses: 1
DEI: 91125
TtTable: prep
PUSHW_1
 511
SCANCTRL
PUSHB_1
 4
SCANTYPE
EndTTInstrs
ShortTable: maxp 16
  1
  0
  426
  79
  5
  0
  0
  2
  0
  1
  1
  0
  64
  0
  0
  0
EndShort

StartChar: .notdef
Encoding: 65536 -1 0
Width: 563
Flags: W
LayerCount: 2
Fore
SplineSet
96 55 m 1,0,-1
 427 55 l 1,1,-1
 427 1050 l 1,2,-1
 96 1050 l 1,3,-1
 96 55 l 1,0,-1
41 0 m 1,4,-1
 41 1105 l 1,5,-1
 482 1105 l 1,6,-1
 482 0 l 1,7,-1
 41 0 l 1,4,-1
EndSplineSet
EndChar

StartChar: exclam
Encoding: 33 33 4
Width: 412
GlyphClass: 2
Flags: W
LayerCount: 2
Fore
SplineSet
109 1245 m 0,0,1
 109 1270 109 1270 152 1281 c 128,-1,2
 195 1292 195 1292 249.5 1292 c 128,-1,3
 304 1292 304 1292 304 1253 c 0,4,5
 304 1086 304 1086 249 357 c 1,6,-1
 162 376 l 1,7,8
 157 483 157 483 133 815 c 128,-1,9
 109 1147 109 1147 109 1245 c 0,0,1
118.5 1.5 m 128,-1,11
 83 39 83 39 83 90.5 c 128,-1,12
 83 142 83 142 119.5 176 c 128,-1,13
 156 210 156 210 206.5 210 c 128,-1,14
 257 210 257 210 294 175 c 128,-1,15
 331 140 331 140 331 88.5 c 128,-1,16
 331 37 331 37 294.5 0.5 c 128,-1,17
 258 -36 258 -36 206 -36 c 128,-1,10
 154 -36 154 -36 118.5 1.5 c 128,-1,11
EndSplineSet
EndChar

StartChar: quotedbl
Encoding: 34 34 5
Width: 497
GlyphClass: 2
Flags: W
LayerCount: 2
Fore
SplineSet
258 1302 m 1,0,-1
 442 1286 l 1,1,-1
 406 903 l 1,2,-1
 311 892 l 1,3,-1
 258 1302 l 1,0,-1
50 1302 m 1,4,-1
 233 1286 l 1,5,-1
 197 903 l 1,6,-1
 104 892 l 1,7,-1
 50 1302 l 1,4,-1
EndSplineSet
EndChar

StartChar: numbersign
Encoding: 35 35 6
Width: 913
GlyphClass: 2
Flags: W
LayerCount: 2
Fore
SplineSet
-22 326 m 1,0,-1
 11 451 l 1,1,-1
 254 451 l 1,2,-1
 293 711 l 1,3,-1
 49 711 l 1,4,-1
 83 836 l 1,5,-1
 312 836 l 1,6,-1
 359 1149 l 1,7,-1
 475 1159 l 1,8,-1
 427 836 l 1,9,-1
 616 836 l 1,10,-1
 663 1149 l 1,11,-1
 781 1158 l 1,12,-1
 733 836 l 1,13,-1
 992 836 l 1,14,-1
 961 711 l 1,15,-1
 714 711 l 1,16,-1
 675 451 l 1,17,-1
 917 451 l 1,18,-1
 886 326 l 1,19,-1
 656 326 l 1,20,-1
 604 -19 l 1,21,-1
 487 -26 l 1,22,-1
 540 326 l 1,23,-1
 351 326 l 1,24,-1
 299 -19 l 1,25,-1
 182 -26 l 1,26,-1
 235 326 l 1,27,-1
 -22 326 l 1,0,-1
558 451 m 1,28,-1
 597 711 l 1,29,-1
 408 711 l 1,30,-1
 369 451 l 1,31,-1
 558 451 l 1,28,-1
EndSplineSet
EndChar

StartChar: dollar
Encoding: 36 36 7
Width: 859
GlyphClass: 2
Flags: W
LayerCount: 2
Fore
SplineSet
66 122 m 1,0,-1
 79 389 l 1,1,-1
 181 375 l 1,2,-1
 220 187 l 1,3,4
 248 143 248 143 300.5 111.5 c 128,-1,5
 353 80 353 80 416 77 c 1,6,-1
 416 538 l 1,7,8
 416 538 416 538 348 575 c 0,9,10
 264 622 264 622 231.5 650 c 128,-1,11
 199 678 199 678 170.5 708 c 128,-1,12
 142 738 142 738 127 767 c 0,13,14
 90 839 90 839 90 916 c 0,15,16
 90 1052 90 1052 173 1142 c 128,-1,17
 256 1232 256 1232 383 1259 c 1,18,-1
 370 1394 l 1,19,-1
 535 1409 l 1,20,-1
 521 1267 l 1,21,22
 657 1255 657 1255 761 1169 c 1,23,-1
 739 887 l 1,24,-1
 640 899 l 1,25,-1
 615 1090 l 1,26,27
 602 1115 602 1115 564.5 1143 c 128,-1,28
 527 1171 527 1171 483 1181 c 1,29,-1
 483 746 l 1,30,31
 624 670 624 670 650 654 c 0,32,33
 847 531 847 531 847 354 c 0,34,35
 847 220 847 220 757 123 c 128,-1,36
 667 26 667 26 529 -9 c 1,37,-1
 540 -164 l 1,38,-1
 367 -179 l 1,39,-1
 377 -23 l 1,40,41
 280 -18 280 -18 196.5 23 c 128,-1,42
 113 64 113 64 66 122 c 1,0,-1
421 781 m 1,43,-1
 421 1184 l 1,44,45
 350 1177 350 1177 306.5 1129 c 128,-1,46
 263 1081 263 1081 263 1004 c 128,-1,47
 263 927 263 927 304 877 c 128,-1,48
 345 827 345 827 421 781 c 1,43,-1
486 500 m 1,49,-1
 486 84 l 1,50,51
 561 100 561 100 612 151.5 c 128,-1,52
 663 203 663 203 663 278 c 128,-1,53
 663 353 663 353 617 402.5 c 128,-1,54
 571 452 571 452 486 500 c 1,49,-1
EndSplineSet
EndChar

StartChar: percent
Encoding: 37 37 8
Width: 1736
GlyphClass: 2
Flags: W
LayerCount: 2
Fore
SplineSet
917 534 m 0,0,1
 812 534 812 534 812 277 c 0,2,3
 812 180 812 180 840 106 c 128,-1,4
 868 32 868 32 920 32 c 0,5,6
 1021 32 1021 32 1021 279 c 0,7,8
 1021 423 1021 423 978 494 c 0,9,10
 953 534 953 534 917 534 c 0,0,1
732.5 53 m 128,-1,12
 647 142 647 142 647 270.5 c 128,-1,13
 647 399 647 399 734 494.5 c 128,-1,14
 821 590 821 590 923 590 c 128,-1,15
 1025 590 1025 590 1103 498.5 c 128,-1,16
 1181 407 1181 407 1181 279.5 c 128,-1,17
 1181 152 1181 152 1096.5 58 c 128,-1,18
 1012 -36 1012 -36 915 -36 c 128,-1,11
 818 -36 818 -36 732.5 53 c 128,-1,12
123 -10 m 1,19,-1
 530 588 l 1,20,-1
 867 1123 l 1,21,-1
 491 1137 l 1,22,23
 525 1102 525 1102 545.5 1024 c 128,-1,24
 566 946 566 946 566 898 c 0,25,26
 566 775 566 775 478 679 c 128,-1,27
 390 583 390 583 292.5 583 c 128,-1,28
 195 583 195 583 112 672 c 128,-1,29
 29 761 29 761 29 890.5 c 128,-1,30
 29 1020 29 1020 117 1115.5 c 128,-1,31
 205 1211 205 1211 301 1211 c 0,32,33
 321 1211 321 1211 330 1208 c 1,34,-1
 340 1142 l 1,35,36
 310 1154 310 1154 295 1154 c 0,37,38
 258 1154 258 1154 234 1112 c 0,39,40
 194 1042 194 1042 194 920 c 128,-1,41
 194 798 194 798 220 723.5 c 128,-1,42
 246 649 246 649 297 649 c 0,43,44
 402 649 402 649 402 898 c 0,45,46
 402 1082 402 1082 364 1198 c 1,47,-1
 921 1210 l 1,48,-1
 1087 1207 l 1,49,-1
 1085 1178 l 1,50,-1
 684 591 l 1,51,-1
 313 -32 l 1,52,-1
 123 -10 l 1,19,-1
EndSplineSet
EndChar

StartChar: ampersand
Encoding: 38 38 9
Width: 1281
GlyphClass: 2
Flags: W
LayerCount: 2
Fore
SplineSet
616 988 m 0,0,1
 616 1188 616 1188 474 1188 c 0,2,3
 413 1188 413 1188 375.5 1139 c 128,-1,4
 338 1090 338 1090 338 1023 c 128,-1,5
 338 956 338 956 385 886 c 128,-1,6
 432 816 432 816 488 773 c 1,7,8
 533 803 533 803 558 827 c 0,9,10
 616 884 616 884 616 988 c 0,0,1
355 632 m 1,11,12
 221 540 221 540 221 405 c 128,-1,13
 221 270 221 270 276.5 187.5 c 128,-1,14
 332 105 332 105 425.5 105 c 128,-1,15
 519 105 519 105 584.5 159 c 128,-1,16
 650 213 650 213 685 282 c 1,17,-1
 372 629 l 1,18,-1
 355 632 l 1,11,12
494 1271 m 0,19,20
 786 1271 786 1271 786 1011 c 0,21,22
 786 856 786 856 556 716 c 1,23,-1
 556 705 l 1,24,-1
 787 449 l 1,25,-1
 964 719 l 1,26,-1
 813 761 l 1,27,-1
 823 837 l 1,28,-1
 1255 837 l 1,29,-1
 1245 761 l 1,30,-1
 1075 722 l 1,31,-1
 859 380 l 1,32,33
 1113 106 1113 106 1202 79 c 1,34,-1
 1235 70 l 1,35,-1
 1220 0 l 1,36,37
 1166 -19 1166 -19 1113.5 -19 c 128,-1,38
 1061 -19 1061 -19 1023 -6 c 128,-1,39
 985 7 985 7 951 32 c 1,40,41
 898 73 898 73 844 128 c 2,42,-1
 756 218 l 1,43,44
 681 108 681 108 620 61 c 0,45,46
 516 -19 516 -19 370.5 -19 c 128,-1,47
 225 -19 225 -19 129 72 c 128,-1,48
 33 163 33 163 33 313 c 0,49,50
 33 544 33 544 310 701 c 1,51,52
 256 746 256 746 217 820 c 128,-1,53
 178 894 178 894 178 974 c 0,54,55
 178 1090 178 1090 275.5 1180.5 c 128,-1,56
 373 1271 373 1271 494 1271 c 0,19,20
EndSplineSet
EndChar

StartChar: quotesingle
Encoding: 39 39 10
Width: 289
GlyphClass: 2
Flags: W
LayerCount: 2
Fore
SplineSet
50 1302 m 1,0,-1
 233 1286 l 1,1,-1
 197 903 l 1,2,-1
 104 892 l 1,3,-1
 50 1302 l 1,0,-1
EndSplineSet
EndChar

StartChar: parenleft
Encoding: 40 40 11
Width: 477
GlyphClass: 2
Flags: W
LayerCount: 2
Fore
SplineSet
49 446 m 0,0,1
 49 553 49 553 65 652.5 c 128,-1,2
 81 752 81 752 103.5 825 c 128,-1,3
 126 898 126 898 161.5 967 c 128,-1,4
 197 1036 197 1036 225 1078 c 128,-1,5
 253 1120 253 1120 291 1162 c 128,-1,6
 329 1204 329 1204 346 1220 c 2,7,-1
 386 1255 l 1,8,-1
 436 1189 l 1,9,10
 323 1040 323 1040 275 864 c 0,11,12
 227 689 227 689 227 455 c 0,13,14
 227 51 227 51 449 -317 c 1,15,-1
 381 -375 l 1,16,-1
 346 -341 l 1,17,18
 247 -242 247 -242 165 -80 c 0,19,20
 49 151 49 151 49 446 c 0,0,1
EndSplineSet
EndChar

StartChar: parenright
Encoding: 41 41 12
Width: 477
GlyphClass: 2
Flags: W
LayerCount: 2
Fore
SplineSet
44 1189 m 1,0,-1
 93 1255 l 1,1,2
 93 1255 93 1255 133 1220 c 1,3,4
 239 1123 239 1123 318 967 c 0,5,6
 431 744 431 744 431 445 c 0,7,8
 431 87 431 87 252 -194 c 0,9,10
 199 -276 199 -276 160 -315 c 2,11,-1
 99 -375 l 1,12,-1
 30 -317 l 1,13,14
 253 53 253 53 253 455 c 0,15,16
 253 868 253 868 100 1110 c 0,17,18
 75 1148 75 1148 44 1189 c 1,0,-1
EndSplineSet
EndChar

StartChar: asterisk
Encoding: 42 42 13
Width: 808
GlyphClass: 2
Flags: W
LayerCount: 2
Fore
SplineSet
328 1292 m 1,0,-1
 464 1279 l 1,1,-1
 438 988 l 1,2,-1
 727 1119 l 1,3,-1
 756 989 l 1,4,-1
 471 921 l 1,5,-1
 690 692 l 1,6,-1
 572 623 l 1,7,-1
 419 870 l 1,8,-1
 264 593 l 1,9,-1
 162 685 l 1,10,-1
 355 904 l 1,11,-1
 43 964 l 1,12,-1
 98 1091 l 1,13,-1
 365 977 l 1,14,-1
 328 1292 l 1,0,-1
EndSplineSet
EndChar

StartChar: plus
Encoding: 43 43 14
Width: 648
GlyphClass: 2
Flags: W
LayerCount: 2
Fore
SplineSet
50 409 m 1,0,-1
 62 510 l 1,1,-1
 271 510 l 1,2,-1
 271 741 l 1,3,-1
 380 729 l 1,4,-1
 381 510 l 1,5,-1
 601 510 l 1,6,-1
 589 409 l 1,7,-1
 381 409 l 1,8,-1
 383 174 l 1,9,-1
 271 185 l 1,10,-1
 271 409 l 1,11,-1
 50 409 l 1,0,-1
EndSplineSet
EndChar

StartChar: comma
Encoding: 44 44 15
Width: 434
GlyphClass: 2
Flags: W
LayerCount: 2
Fore
SplineSet
54 -244 m 1,0,1
 146 -220 146 -220 191 -171.5 c 128,-1,2
 236 -123 236 -123 236 -75 c 128,-1,3
 236 -27 236 -27 203.5 4.5 c 128,-1,4
 171 36 171 36 120 36 c 0,5,6
 110 36 110 36 90 34 c 1,7,8
 76 71 76 71 76 111.5 c 128,-1,9
 76 152 76 152 115.5 185 c 128,-1,10
 155 218 155 218 190.5 218 c 128,-1,11
 226 218 226 218 255 206 c 128,-1,12
 284 194 284 194 311 171 c 0,13,14
 372 119 372 119 372 10 c 0,15,16
 372 -234 372 -234 77 -313 c 1,17,-1
 54 -244 l 1,0,1
EndSplineSet
EndChar

StartChar: hyphen
Encoding: 45 45 16
Width: 581
GlyphClass: 2
Flags: W
LayerCount: 2
Fore
SplineSet
81 398 m 1,0,-1
 92 498 l 1,1,-1
 500 517 l 1,2,-1
 489 415 l 1,3,-1
 81 398 l 1,0,-1
EndSplineSet
EndChar

StartChar: period
Encoding: 46 46 17
Width: 383
GlyphClass: 2
Flags: W
LayerCount: 2
Fore
SplineSet
107.5 5 m 128,-1,1
 73 41 73 41 73 90.5 c 128,-1,2
 73 140 73 140 108 172.5 c 128,-1,3
 143 205 143 205 192 205 c 128,-1,4
 241 205 241 205 277 171.5 c 128,-1,5
 313 138 313 138 313 89 c 128,-1,6
 313 40 313 40 277 4.5 c 128,-1,7
 241 -31 241 -31 191.5 -31 c 128,-1,0
 142 -31 142 -31 107.5 5 c 128,-1,1
EndSplineSet
EndChar

StartChar: slash
Encoding: 47 47 18
Width: 676
GlyphClass: 2
Flags: W
LayerCount: 2
Fore
SplineSet
44 -363 m 1,0,-1
 506 1235 l 1,1,-1
 638 1244 l 1,2,-1
 172 -355 l 1,3,-1
 44 -363 l 1,0,-1
EndSplineSet
EndChar

StartChar: zero
Encoding: 48 48 19
Width: 968
GlyphClass: 2
Flags: W
LayerCount: 2
Fore
SplineSet
344 150 m 0,0,1
 393 70 393 70 496 70 c 128,-1,2
 599 70 599 70 641 191.5 c 128,-1,3
 683 313 683 313 683 585 c 128,-1,4
 683 857 683 857 641 977.5 c 128,-1,5
 599 1098 599 1098 484 1098 c 128,-1,6
 369 1098 369 1098 326 976.5 c 128,-1,7
 283 855 283 855 283 552.5 c 128,-1,8
 283 250 283 250 344 150 c 0,0,1
67 592 m 0,9,10
 67 742 67 742 102 863.5 c 128,-1,11
 137 985 137 985 197 1058 c 0,12,13
 317 1203 317 1203 499 1203 c 128,-1,14
 681 1203 681 1203 790.5 1051 c 128,-1,15
 900 899 900 899 900 586 c 0,16,17
 900 199 900 199 718 52 c 0,18,19
 620 -27 620 -27 487 -27 c 0,20,21
 254 -27 254 -27 150 158 c 0,22,23
 67 305 67 305 67 592 c 0,9,10
EndSplineSet
EndChar

StartChar: one
Encoding: 49 49 20
Width: 777
GlyphClass: 2
Flags: W
LayerCount: 2
Fore
SplineSet
40 0 m 1,0,-1
 47 74 l 1,1,-1
 311 121 l 1,2,-1
 311 1031 l 1,3,-1
 61 1031 l 1,4,-1
 67 1108 l 1,5,-1
 488 1185 l 1,6,-1
 515 1185 l 1,7,-1
 515 114 l 1,8,-1
 777 83 l 1,9,-1
 767 0 l 1,10,-1
 40 0 l 1,0,-1
EndSplineSet
EndChar

StartChar: two
Encoding: 50 50 21
Width: 918
GlyphClass: 2
Flags: W
LayerCount: 2
Fore
SplineSet
40 102 m 1,0,-1
 275 299 l 2,1,2
 428 428 428 428 515.5 554 c 128,-1,3
 603 680 603 680 603 820 c 0,4,5
 603 977 603 977 551 1045 c 0,6,7
 505 1105 505 1105 429.5 1105 c 128,-1,8
 354 1105 354 1105 304 1071 c 128,-1,9
 254 1037 254 1037 235 987 c 1,10,-1
 198 726 l 1,11,-1
 121 736 l 1,12,-1
 94 1020 l 1,13,14
 137 1094 137 1094 256 1151.5 c 128,-1,15
 375 1209 375 1209 483 1209 c 0,16,17
 646 1209 646 1209 736 1119.5 c 128,-1,18
 826 1030 826 1030 826 866 c 0,19,20
 826 697 826 697 687 530 c 0,21,22
 574 395 574 395 410 270 c 1,23,-1
 246 151 l 1,24,-1
 700 151 l 1,25,-1
 804 368 l 1,26,-1
 874 358 l 1,27,-1
 826 0 l 1,28,-1
 46 0 l 1,29,-1
 40 102 l 1,0,-1
EndSplineSet
EndChar

StartChar: three
Encoding: 51 51 22
Width: 918
GlyphClass: 2
Flags: W
LayerCount: 2
Fore
SplineSet
37 74 m 1,0,-1
 88 373 l 1,1,-1
 173 360 l 1,2,-1
 186 157 l 1,3,4
 204 124 204 124 251.5 98 c 128,-1,5
 299 72 299 72 349 72 c 0,6,7
 468 72 468 72 532.5 129.5 c 128,-1,8
 597 187 597 187 597 291 c 128,-1,9
 597 395 597 395 503 470 c 128,-1,10
 409 545 409 545 266 545 c 1,11,-1
 256 611 l 1,12,13
 320 631 320 631 380 669.5 c 128,-1,14
 440 708 440 708 474 741 c 0,15,16
 556 819 556 819 556 909.5 c 128,-1,17
 556 1000 556 1000 507 1062 c 128,-1,18
 458 1124 458 1124 373 1124 c 128,-1,19
 288 1124 288 1124 227 1068 c 1,20,-1
 181 812 l 1,21,-1
 96 823 l 1,22,-1
 78 1090 l 1,23,24
 115 1131 115 1131 221.5 1172 c 128,-1,25
 328 1213 328 1213 452.5 1213 c 128,-1,26
 577 1213 577 1213 672.5 1146.5 c 128,-1,27
 768 1080 768 1080 768 960 c 0,28,29
 768 803 768 803 580 694 c 0,30,31
 533 667 533 667 483 649 c 1,32,-1
 483 637 l 1,33,34
 627 618 627 618 720 546 c 128,-1,35
 813 474 813 474 813 362 c 128,-1,36
 813 250 813 250 747 161 c 128,-1,37
 681 72 681 72 569.5 21 c 128,-1,38
 458 -30 458 -30 345.5 -30 c 128,-1,39
 233 -30 233 -30 146.5 3.5 c 128,-1,40
 60 37 60 37 37 74 c 1,0,-1
EndSplineSet
EndChar

StartChar: four
Encoding: 52 52 23
Width: 944
GlyphClass: 2
Flags: W
LayerCount: 2
Fore
SplineSet
164 479 m 1,0,-1
 493 479 l 1,1,-1
 493 912 l 1,2,-1
 164 479 l 1,0,-1
-21 431 m 1,3,-1
 621 1194 l 1,4,-1
 686 1176 l 1,5,6
 676 978 676 978 676 683 c 2,7,-1
 676 479 l 1,8,-1
 931 479 l 1,9,-1
 915 346 l 1,10,-1
 676 346 l 1,11,-1
 676 105 l 1,12,-1
 865 73 l 1,13,-1
 855 0 l 1,14,-1
 274 0 l 1,15,-1
 281 66 l 1,16,-1
 496 111 l 1,17,-1
 496 349 l 1,18,-1
 2 349 l 1,19,-1
 -21 431 l 1,3,-1
EndSplineSet
EndChar

StartChar: five
Encoding: 53 53 24
Width: 918
GlyphClass: 2
Flags: W
LayerCount: 2
Fore
SplineSet
-19 74 m 1,0,-1
 7 387 l 1,1,-1
 92 368 l 1,2,-1
 113 155 l 1,3,4
 170 67 170 67 304 67 c 0,5,6
 399 67 399 67 456 128 c 128,-1,7
 513 189 513 189 513 290 c 0,8,9
 513 440 513 440 400.5 513.5 c 128,-1,10
 288 587 288 587 57 602 c 1,11,-1
 176 1169 l 1,12,-1
 645 1198 l 1,13,-1
 619 1016 l 1,14,-1
 232 1000 l 1,15,-1
 196 762 l 1,16,17
 608 740 608 740 675 475 c 0,18,19
 689 420 689 420 689 354 c 0,20,21
 689 202 689 202 564.5 88.5 c 128,-1,22
 440 -25 440 -25 258 -25 c 128,-1,23
 76 -25 76 -25 -19 74 c 1,0,-1
EndSplineSet
EndChar

StartChar: six
Encoding: 54 54 25
Width: 879
GlyphClass: 2
Flags: W
LayerCount: 2
Fore
SplineSet
269 527 m 1,0,1
 262 450 262 450 262 384 c 128,-1,2
 262 318 262 318 282.5 241 c 128,-1,3
 303 164 303 164 347 112.5 c 128,-1,4
 391 61 391 61 449.5 61 c 128,-1,5
 508 61 508 61 547.5 80.5 c 128,-1,6
 587 100 587 100 608 138 c 0,7,8
 644 206 644 206 644 303 c 128,-1,9
 644 400 644 400 625 460.5 c 128,-1,10
 606 521 606 521 559 563.5 c 128,-1,11
 512 606 512 606 452 606 c 128,-1,12
 392 606 392 606 340 581 c 128,-1,13
 288 556 288 556 269 527 c 1,0,1
82 253 m 0,14,15
 59 331 59 331 59 437 c 128,-1,16
 59 543 59 543 110 671 c 128,-1,17
 161 799 161 799 244.5 905 c 128,-1,18
 328 1011 328 1011 439 1093.5 c 128,-1,19
 550 1176 550 1176 666 1214 c 1,20,-1
 703 1155 l 1,21,22
 438 1034 438 1034 320 762 c 0,23,24
 288 687 288 687 272 609 c 1,25,-1
 283 609 l 1,26,27
 320 651 320 651 381.5 680 c 128,-1,28
 443 709 443 709 518 709 c 0,29,30
 667 709 667 709 758 620 c 128,-1,31
 849 531 849 531 849 364 c 128,-1,32
 849 197 849 197 729.5 88 c 128,-1,33
 610 -21 610 -21 442 -21 c 0,34,35
 161 -21 161 -21 82 253 c 0,14,15
EndSplineSet
EndChar

StartChar: seven
Encoding: 55 55 26
Width: 837
GlyphClass: 2
Flags: W
LayerCount: 2
Fore
SplineSet
5 809 m 1,0,-1
 29 1182 l 1,1,-1
 817 1182 l 1,2,-1
 817 1130 l 1,3,-1
 380 -33 l 1,4,-1
 173 -11 l 1,5,-1
 662 1015 l 1,6,-1
 149 1015 l 1,7,-1
 74 796 l 1,8,-1
 5 809 l 1,0,-1
EndSplineSet
EndChar

StartChar: eight
Encoding: 56 56 27
Width: 876
GlyphClass: 2
Flags: W
LayerCount: 2
Fore
SplineSet
306.5 1073.5 m 128,-1,1
 266 1023 266 1023 266 954.5 c 128,-1,2
 266 886 266 886 327 813.5 c 128,-1,3
 388 741 388 741 497 678 c 1,4,5
 554 711 554 711 577.5 757 c 128,-1,6
 601 803 601 803 601 899.5 c 128,-1,7
 601 996 601 996 553 1060 c 128,-1,8
 505 1124 505 1124 426 1124 c 128,-1,0
 347 1124 347 1124 306.5 1073.5 c 128,-1,1
283 462 m 0,9,10
 243 407 243 407 243 298 c 128,-1,11
 243 189 243 189 307.5 125 c 128,-1,12
 372 61 372 61 454 61 c 128,-1,13
 536 61 536 61 582 105 c 128,-1,14
 628 149 628 149 628 236 c 0,15,16
 628 363 628 363 354 533 c 1,17,18
 298 483 298 483 283 462 c 0,9,10
54 280 m 0,19,20
 54 364 54 364 110 434.5 c 128,-1,21
 166 505 166 505 287 575 c 1,22,-1
 287 584 l 1,23,24
 232 621 232 621 194.5 656.5 c 128,-1,25
 157 692 157 692 128.5 751 c 128,-1,26
 100 810 100 810 100 879 c 0,27,28
 100 1007 100 1007 203.5 1104 c 128,-1,29
 307 1201 307 1201 449 1201 c 128,-1,30
 591 1201 591 1201 680.5 1121.5 c 128,-1,31
 770 1042 770 1042 770 940 c 128,-1,32
 770 838 770 838 710.5 753.5 c 128,-1,33
 651 669 651 669 567 639 c 1,34,-1
 564 629 l 1,35,36
 680 545 680 545 725 493 c 128,-1,37
 770 441 770 441 784 397.5 c 128,-1,38
 798 354 798 354 798 300 c 0,39,40
 798 156 798 156 693.5 64.5 c 128,-1,41
 589 -27 589 -27 396 -27 c 0,42,43
 253 -27 253 -27 153.5 57 c 128,-1,44
 54 141 54 141 54 280 c 0,19,20
EndSplineSet
EndChar

StartChar: nine
Encoding: 57 57 28
Width: 872
GlyphClass: 2
Flags: W
LayerCount: 2
Fore
SplineSet
280.5 1059.5 m 128,-1,1
 240 989 240 989 240 880.5 c 128,-1,2
 240 772 240 772 256.5 714 c 128,-1,3
 273 656 273 656 317.5 615.5 c 128,-1,4
 362 575 362 575 421.5 575 c 128,-1,5
 481 575 481 575 529 599.5 c 128,-1,6
 577 624 577 624 600 662 c 1,7,8
 609 714 609 714 609 825.5 c 128,-1,9
 609 937 609 937 559 1033.5 c 128,-1,10
 509 1130 509 1130 426 1130 c 0,11,0
 321 1130 321 1130 280.5 1059.5 c 128,-1,1
40 802 m 0,12,13
 40 890 40 890 74.5 968 c 128,-1,14
 109 1046 109 1046 164 1098 c 0,15,16
 283 1211 283 1211 432 1211 c 0,17,18
 653 1211 653 1211 754 1022 c 0,19,20
 813 913 813 913 813 739 c 128,-1,21
 813 565 813 565 738.5 397.5 c 128,-1,22
 664 230 664 230 523.5 117.5 c 128,-1,23
 383 5 383 5 198 -27 c 1,24,-1
 175 47 l 1,25,26
 412 117 412 117 502 258 c 0,27,28
 581 380 581 380 597 575 c 1,29,-1
 584 575 l 1,30,31
 485 466 485 466 340.5 466 c 128,-1,32
 196 466 196 466 118 553 c 128,-1,33
 40 640 40 640 40 802 c 0,12,13
EndSplineSet
EndChar

StartChar: colon
Encoding: 58 58 29
Width: 422
GlyphClass: 2
Flags: W
LayerCount: 2
Fore
SplineSet
132.5 664 m 128,-1,1
 99 699 99 699 99 745.5 c 128,-1,2
 99 792 99 792 132.5 822.5 c 128,-1,3
 166 853 166 853 212 853 c 128,-1,4
 258 853 258 853 291.5 821 c 128,-1,5
 325 789 325 789 325 742.5 c 128,-1,6
 325 696 325 696 291.5 662.5 c 128,-1,7
 258 629 258 629 212 629 c 128,-1,0
 166 629 166 629 132.5 664 c 128,-1,1
132.5 36 m 128,-1,9
 99 71 99 71 99 117 c 128,-1,10
 99 163 99 163 132.5 193.5 c 128,-1,11
 166 224 166 224 212 224 c 128,-1,12
 258 224 258 224 291.5 192.5 c 128,-1,13
 325 161 325 161 325 115 c 128,-1,14
 325 69 325 69 291.5 35 c 128,-1,15
 258 1 258 1 212 1 c 128,-1,8
 166 1 166 1 132.5 36 c 128,-1,9
EndSplineSet
EndChar

StartChar: semicolon
Encoding: 59 59 30
Width: 462
GlyphClass: 2
Flags: W
LayerCount: 2
Fore
SplineSet
159 660.5 m 128,-1,1
 126 695 126 695 126 742.5 c 128,-1,2
 126 790 126 790 159.5 821.5 c 128,-1,3
 193 853 193 853 240.5 853 c 128,-1,4
 288 853 288 853 322 821 c 128,-1,5
 356 789 356 789 356 741.5 c 128,-1,6
 356 694 356 694 322 660 c 128,-1,7
 288 626 288 626 240 626 c 128,-1,0
 192 626 192 626 159 660.5 c 128,-1,1
77 -230 m 1,8,9
 163 -207 163 -207 204.5 -163.5 c 128,-1,10
 246 -120 246 -120 246 -74.5 c 128,-1,11
 246 -29 246 -29 216 1 c 128,-1,12
 186 31 186 31 138 31 c 0,13,14
 137 31 137 31 110 28 c 1,15,16
 96 61 96 61 96 99.5 c 128,-1,17
 96 138 96 138 132.5 168.5 c 128,-1,18
 169 199 169 199 218.5 199 c 128,-1,19
 268 199 268 199 320 149.5 c 128,-1,20
 372 100 372 100 372 6 c 0,21,22
 372 -223 372 -223 98 -295 c 1,23,-1
 77 -230 l 1,8,9
EndSplineSet
EndChar

StartChar: less
Encoding: 60 60 31
Width: 713
GlyphClass: 2
Flags: W
LayerCount: 2
Fore
SplineSet
756 -13 m 1,0,-1
 693 -83 l 1,1,-1
 59 415 l 1,2,-1
 60 472 l 1,3,-1
 680 973 l 1,4,-1
 736 900 l 1,5,-1
 296 434 l 1,6,-1
 756 -13 l 1,0,-1
EndSplineSet
EndChar

StartChar: equal
Encoding: 61 61 32
Width: 809
GlyphClass: 2
Flags: W
LayerCount: 2
Fore
SplineSet
95 559 m 1,0,-1
 105 663 l 1,1,-1
 721 663 l 1,2,-1
 709 559 l 1,3,-1
 95 559 l 1,0,-1
92 319 m 1,4,-1
 102 424 l 1,5,-1
 717 424 l 1,6,-1
 706 319 l 1,7,-1
 92 319 l 1,4,-1
EndSplineSet
EndChar

StartChar: greater
Encoding: 62 62 33
Width: 727
GlyphClass: 2
Flags: W
LayerCount: 2
Fore
SplineSet
59 -13 m 1,0,-1
 519 434 l 1,1,-1
 79 900 l 1,2,-1
 135 973 l 1,3,-1
 755 472 l 1,4,-1
 756 415 l 1,5,-1
 122 -83 l 1,6,-1
 59 -13 l 1,0,-1
EndSplineSet
EndChar

StartChar: question
Encoding: 63 63 34
Width: 642
GlyphClass: 2
Flags: W
LayerCount: 2
Fore
SplineSet
194.5 1.5 m 128,-1,1
 159 39 159 39 159 90.5 c 128,-1,2
 159 142 159 142 195.5 176 c 128,-1,3
 232 210 232 210 282.5 210 c 128,-1,4
 333 210 333 210 369.5 175 c 128,-1,5
 406 140 406 140 406 88.5 c 128,-1,6
 406 37 406 37 370 0.5 c 128,-1,7
 334 -36 334 -36 282 -36 c 128,-1,0
 230 -36 230 -36 194.5 1.5 c 128,-1,1
313 1113 m 0,8,9
 189 1113 189 1113 121 1041 c 1,10,11
 93 1052 93 1052 70 1083 c 128,-1,12
 47 1114 47 1114 47 1158.5 c 128,-1,13
 47 1203 47 1203 92.5 1245 c 128,-1,14
 138 1287 138 1287 219.5 1287 c 128,-1,15
 301 1287 301 1287 362 1255.5 c 128,-1,16
 423 1224 423 1224 473 1169.5 c 128,-1,17
 523 1115 523 1115 555 1033 c 128,-1,18
 587 951 587 951 587 881.5 c 128,-1,19
 587 812 587 812 571 774 c 128,-1,20
 555 736 555 736 529.5 712 c 128,-1,21
 504 688 504 688 473.5 669 c 128,-1,22
 443 650 443 650 412.5 634 c 128,-1,23
 382 618 382 618 356 602 c 1,24,25
 299 564 299 564 299 509.5 c 128,-1,26
 299 455 299 455 321 383 c 1,27,-1
 246 366 l 1,28,29
 219 405 219 405 194 468.5 c 128,-1,30
 169 532 169 532 169 581 c 128,-1,31
 169 630 169 630 186 664 c 128,-1,32
 203 698 203 698 230 718 c 128,-1,33
 257 738 257 738 290 754 c 2,34,-1
 355 784 l 1,35,36
 434 822 434 822 455 860 c 128,-1,37
 476 898 476 898 476 951 c 128,-1,38
 476 1004 476 1004 419 1058.5 c 128,-1,39
 362 1113 362 1113 313 1113 c 0,8,9
EndSplineSet
EndChar

StartChar: at
Encoding: 64 64 35
Width: 1367
GlyphClass: 2
Flags: W
LayerCount: 2
Fore
SplineSet
601 181 m 0,0,1
 677 181 677 181 739 254 c 1,2,-1
 792 692 l 1,3,4
 740 703 740 703 694.5 703 c 128,-1,5
 649 703 649 703 604 651 c 0,6,7
 516 548 516 548 516 364.5 c 128,-1,8
 516 181 516 181 601 181 c 0,0,1
832 70 m 0,9,10
 734 70 734 70 738 187 c 1,11,-1
 728 187 l 1,12,13
 693 135 693 135 643 97 c 128,-1,14
 593 59 593 59 541 59 c 0,15,16
 460 59 460 59 410 130 c 128,-1,17
 360 201 360 201 360 314.5 c 128,-1,18
 360 428 360 428 398.5 517.5 c 128,-1,19
 437 607 437 607 496 665 c 0,20,21
 624 789 624 789 758 789 c 0,22,23
 854 789 854 789 924 773 c 1,24,-1
 943 751 l 1,25,-1
 902 385 l 2,26,27
 901 371 901 371 897.5 346.5 c 128,-1,28
 894 322 894 322 892 304.5 c 128,-1,29
 890 287 890 287 888 264.5 c 128,-1,30
 886 242 886 242 886.5 226.5 c 128,-1,31
 887 211 887 211 889 196 c 0,32,33
 893 168 893 168 914 168 c 0,34,35
 1025 168 1025 168 1099 280.5 c 128,-1,36
 1173 393 1173 393 1173 566 c 128,-1,37
 1173 739 1173 739 1053.5 847 c 128,-1,38
 934 955 934 955 751 955 c 0,39,40
 631 955 631 955 528 905 c 128,-1,41
 425 855 425 855 356 771 c 0,42,43
 209 592 209 592 209 359.5 c 128,-1,44
 209 127 209 127 346 -4 c 128,-1,45
 483 -135 483 -135 727 -135 c 0,46,47
 828 -135 828 -135 931.5 -96 c 128,-1,48
 1035 -57 1035 -57 1079 -19 c 1,49,-1
 1115 -83 l 1,50,51
 1111 -85 1111 -85 1069 -111 c 128,-1,52
 1027 -137 1027 -137 1011.5 -145.5 c 128,-1,53
 996 -154 996 -154 952 -174.5 c 128,-1,54
 908 -195 908 -195 876 -204 c 0,55,56
 782 -228 782 -228 689 -228 c 128,-1,57
 596 -228 596 -228 507.5 -209.5 c 128,-1,58
 419 -191 419 -191 335.5 -148.5 c 128,-1,59
 252 -106 252 -106 190.5 -43.5 c 128,-1,60
 129 19 129 19 91.5 114 c 128,-1,61
 54 209 54 209 54 325 c 0,62,63
 54 523 54 523 146.5 687 c 128,-1,64
 239 851 239 851 407.5 947.5 c 128,-1,65
 576 1044 576 1044 787 1044 c 0,66,67
 927 1044 927 1044 1045 988.5 c 128,-1,68
 1163 933 1163 933 1234.5 827.5 c 128,-1,69
 1306 722 1306 722 1306 588 c 128,-1,70
 1306 454 1306 454 1245.5 335.5 c 128,-1,71
 1185 217 1185 217 1075 143.5 c 128,-1,72
 965 70 965 70 832 70 c 0,9,10
EndSplineSet
EndChar

StartChar: A
Encoding: 65 65 36
Width: 1234
GlyphClass: 2
Flags: W
LayerCount: 2
Fore
SplineSet
406 534 m 1,0,-1
 758 534 l 1,1,-1
 592 1034 l 1,2,-1
 406 534 l 1,0,-1
-37 0 m 1,3,-1
 -28 74 l 1,4,-1
 121 129 l 1,5,-1
 559 1237 l 1,6,-1
 710 1268 l 1,7,-1
 1100 124 l 1,8,-1
 1237 80 l 1,9,-1
 1228 0 l 1,10,-1
 713 0 l 1,11,-1
 725 74 l 1,12,-1
 896 129 l 1,13,-1
 787 432 l 1,14,-1
 368 432 l 1,15,-1
 256 124 l 1,16,-1
 442 80 l 1,17,-1
 431 0 l 1,18,-1
 -37 0 l 1,3,-1
EndSplineSet
EndChar

StartChar: B
Encoding: 66 66 37
Width: 1147
GlyphClass: 2
Flags: W
LayerCount: 2
Fore
SplineSet
420 688 m 1,0,-1
 678 688 l 1,1,2
 808 742 808 742 808 909 c 0,3,4
 808 1011 808 1011 746 1086 c 0,5,6
 675 1171 675 1171 500 1171 c 0,7,8
 467 1171 467 1171 420 1164 c 1,9,-1
 420 688 l 1,0,-1
420 96 m 1,10,-1
 640 96 l 2,11,12
 764 96 764 96 834 169.5 c 128,-1,13
 904 243 904 243 904 346 c 128,-1,14
 904 449 904 449 835 527 c 128,-1,15
 766 605 766 605 643 605 c 2,16,-1
 420 605 l 1,17,-1
 420 96 l 1,10,-1
50 0 m 1,18,-1
 61 74 l 1,19,-1
 228 121 l 1,20,-1
 228 1104 l 1,21,-1
 57 1134 l 1,22,-1
 67 1211 l 1,23,24
 385 1257 385 1257 528 1257 c 128,-1,25
 671 1257 671 1257 757.5 1233 c 128,-1,26
 844 1209 844 1209 894 1168 c 0,27,28
 996 1086 996 1086 996 967 c 0,29,30
 996 843 996 843 912 756 c 0,31,32
 864 706 864 706 790 679 c 1,33,-1
 790 672 l 1,34,35
 934 664 934 664 1017 576 c 128,-1,36
 1100 488 1100 488 1100 380 c 0,37,38
 1100 182 1100 182 930 79 c 0,39,40
 799 0 799 0 568 0 c 2,41,-1
 50 0 l 1,18,-1
EndSplineSet
EndChar

StartChar: C
Encoding: 67 67 38
Width: 1153
GlyphClass: 2
Flags: W
LayerCount: 2
Fore
SplineSet
110 325.5 m 128,-1,1
 61 444 61 444 61 562.5 c 128,-1,2
 61 681 61 681 83.5 773.5 c 128,-1,3
 106 866 106 866 156.5 956 c 128,-1,4
 207 1046 207 1046 279.5 1115 c 128,-1,5
 352 1184 352 1184 462 1226.5 c 128,-1,6
 572 1269 572 1269 704 1269 c 0,7,8
 934 1269 934 1269 1066 1169 c 1,9,-1
 1035 837 l 1,10,-1
 947 850 l 1,11,-1
 905 1070 l 1,12,13
 824 1174 824 1174 655.5 1174 c 128,-1,14
 487 1174 487 1174 381 1034 c 128,-1,15
 275 894 275 894 275 658 c 0,16,17
 275 528 275 528 312.5 422 c 128,-1,18
 350 316 350 316 413 249 c 0,19,20
 543 111 543 111 728 111 c 0,21,22
 822 111 822 111 914.5 153.5 c 128,-1,23
 1007 196 1007 196 1078 261 c 1,24,-1
 1113 185 l 1,25,26
 1045 102 1045 102 920 39 c 128,-1,27
 795 -24 795 -24 664.5 -24 c 128,-1,28
 534 -24 534 -24 429 16.5 c 128,-1,29
 324 57 324 57 241.5 132 c 128,-1,0
 159 207 159 207 110 325.5 c 128,-1,1
EndSplineSet
EndChar

StartChar: D
Encoding: 68 68 39
Width: 1364
GlyphClass: 2
Flags: W
LayerCount: 2
Fore
SplineSet
424 104 m 1,0,-1
 569 104 l 2,1,2
 698 104 698 104 800 143.5 c 128,-1,3
 902 183 902 183 965 252 c 0,4,5
 1093 391 1093 391 1093 598 c 0,6,7
 1093 835 1093 835 958 992 c 0,8,9
 892 1068 892 1068 786 1111.5 c 128,-1,10
 680 1155 680 1155 572 1155 c 128,-1,11
 464 1155 464 1155 424 1151 c 1,12,-1
 424 104 l 1,0,-1
47 0 m 1,13,-1
 61 74 l 1,14,-1
 233 129 l 1,15,-1
 233 1103 l 1,16,-1
 61 1133 l 1,17,-1
 70 1209 l 1,18,19
 381 1258 381 1258 563.5 1258 c 128,-1,20
 746 1258 746 1258 873 1224 c 128,-1,21
 1000 1190 1000 1190 1080 1134 c 128,-1,22
 1160 1078 1160 1078 1212 998 c 0,23,24
 1304 856 1304 856 1304 653 c 0,25,26
 1304 436 1304 436 1182 275 c 0,27,28
 975 0 975 0 541 0 c 2,29,-1
 47 0 l 1,13,-1
EndSplineSet
EndChar

StartChar: E
Encoding: 69 69 40
Width: 1142
GlyphClass: 2
Flags: W
LayerCount: 2
Fore
SplineSet
50 1168 m 1,0,-1
 61 1244 l 1,1,-1
 1056 1244 l 1,2,-1
 1025 924 l 1,3,-1
 938 937 l 1,4,-1
 897 1152 l 1,5,-1
 426 1152 l 1,6,-1
 426 676 l 1,7,-1
 716 676 l 1,8,-1
 758 796 l 1,9,-1
 853 810 l 1,10,-1
 819 421 l 1,11,-1
 734 408 l 1,12,-1
 700 583 l 1,13,-1
 426 583 l 1,14,-1
 426 96 l 1,15,-1
 921 96 l 1,16,-1
 1019 326 l 1,17,-1
 1102 313 l 1,18,-1
 1072 0 l 1,19,-1
 57 0 l 1,20,-1
 65 74 l 1,21,-1
 232 121 l 1,22,-1
 232 1126 l 1,23,-1
 50 1168 l 1,0,-1
EndSplineSet
EndChar

StartChar: F
Encoding: 70 70 41
Width: 1064
GlyphClass: 2
Flags: W
LayerCount: 2
Fore
SplineSet
50 1168 m 1,0,-1
 61 1244 l 1,1,-1
 1054 1244 l 1,2,-1
 1013 922 l 1,3,-1
 925 936 l 1,4,-1
 891 1152 l 1,5,-1
 426 1152 l 1,6,-1
 426 670 l 1,7,-1
 713 670 l 1,8,-1
 755 790 l 1,9,-1
 845 804 l 1,10,-1
 818 412 l 1,11,-1
 730 398 l 1,12,-1
 700 578 l 1,13,-1
 426 578 l 1,14,-1
 423 122 l 1,15,-1
 661 83 l 1,16,-1
 648 0 l 1,17,-1
 57 0 l 1,18,-1
 65 74 l 1,19,-1
 232 121 l 1,20,-1
 232 1126 l 1,21,-1
 50 1168 l 1,0,-1
EndSplineSet
EndChar

StartChar: G
Encoding: 71 71 42
Width: 1299
GlyphClass: 2
Flags: W
LayerCount: 2
Fore
SplineSet
1139 79 m 1,0,1
 955 -31 955 -31 658 -31 c 0,2,3
 511 -31 511 -31 395.5 16 c 128,-1,4
 280 63 280 63 208 146 c 0,5,6
 61 315 61 315 61 578 c 0,7,8
 61 947 61 947 342 1143 c 0,9,10
 511 1260 511 1260 717 1260 c 0,11,12
 976 1260 976 1260 1139 1163 c 1,13,-1
 1115 841 l 1,14,-1
 1028 856 l 1,15,-1
 992 1047 l 1,16,17
 950 1089 950 1089 861.5 1125 c 128,-1,18
 773 1161 773 1161 681.5 1161 c 128,-1,19
 590 1161 590 1161 522 1131.5 c 128,-1,20
 454 1102 454 1102 398 1042 c 0,21,22
 276 913 276 913 276 647 c 0,23,24
 276 361 276 361 460 192 c 0,25,26
 584 77 584 77 771 77 c 0,27,28
 870 77 870 77 943 119 c 1,29,-1
 943 434 l 1,30,-1
 707 472 l 1,31,-1
 719 555 l 1,32,-1
 1275 555 l 1,33,-1
 1263 480 l 1,34,-1
 1139 439 l 1,35,-1
 1139 79 l 1,0,1
EndSplineSet
EndChar

StartChar: H
Encoding: 72 72 43
Width: 1478
GlyphClass: 2
Flags: W
LayerCount: 2
Fore
SplineSet
50 1168 m 1,0,-1
 61 1244 l 1,1,-1
 605 1244 l 1,2,-1
 595 1168 l 1,3,-1
 427 1130 l 1,4,-1
 427 692 l 1,5,-1
 1054 692 l 1,6,-1
 1054 1126 l 1,7,-1
 871 1168 l 1,8,-1
 882 1244 l 1,9,-1
 1428 1244 l 1,10,-1
 1416 1168 l 1,11,-1
 1249 1130 l 1,12,-1
 1249 114 l 1,13,-1
 1431 80 l 1,14,-1
 1421 0 l 1,15,-1
 878 0 l 1,16,-1
 888 74 l 1,17,-1
 1054 121 l 1,18,-1
 1054 589 l 1,19,-1
 427 589 l 1,20,-1
 427 114 l 1,21,-1
 611 80 l 1,22,-1
 598 0 l 1,23,-1
 57 0 l 1,24,-1
 65 74 l 1,25,-1
 232 121 l 1,26,-1
 232 1126 l 1,27,-1
 50 1168 l 1,0,-1
EndSplineSet
EndChar

StartChar: I
Encoding: 73 73 44
Width: 655
GlyphClass: 2
Flags: W
LayerCount: 2
Fore
SplineSet
50 1168 m 1,0,-1
 61 1244 l 1,1,-1
 605 1244 l 1,2,-1
 595 1168 l 1,3,-1
 426 1130 l 1,4,-1
 426 114 l 1,5,-1
 607 80 l 1,6,-1
 597 0 l 1,7,-1
 57 0 l 1,8,-1
 65 74 l 1,9,-1
 232 121 l 1,10,-1
 232 1126 l 1,11,-1
 50 1168 l 1,0,-1
EndSplineSet
EndChar

StartChar: J
Encoding: 74 74 45
Width: 638
GlyphClass: 2
Flags: W
LayerCount: 2
Fore
SplineSet
-4 -237 m 1,0,1
 117 -122 117 -122 174.5 -20.5 c 128,-1,2
 232 81 232 81 232 197 c 2,3,-1
 233 1126 l 1,4,-1
 52 1168 l 1,5,-1
 62 1244 l 1,6,-1
 607 1244 l 1,7,-1
 597 1168 l 1,8,-1
 427 1130 l 1,9,-1
 426 385 l 2,10,11
 426 176 426 176 399 85.5 c 128,-1,12
 372 -5 372 -5 346 -53 c 128,-1,13
 320 -101 320 -101 274 -149 c 0,14,15
 202 -225 202 -225 50 -326 c 1,16,-1
 -4 -237 l 1,0,1
EndSplineSet
EndChar

StartChar: K
Encoding: 75 75 46
Width: 1238
GlyphClass: 2
Flags: W
LayerCount: 2
Fore
SplineSet
453 626 m 1,0,1
 532 705 532 705 605 798 c 1,2,-1
 851 1121 l 1,3,-1
 696 1168 l 1,4,-1
 704 1244 l 1,5,-1
 1197 1244 l 1,6,-1
 1185 1168 l 1,7,-1
 1008 1121 l 1,8,-1
 635 653 l 1,9,-1
 862 385 l 2,10,11
 991 232 991 232 1057.5 171.5 c 128,-1,12
 1124 111 1124 111 1213 83 c 1,13,-1
 1250 70 l 1,14,-1
 1240 1 l 1,15,16
 1177 -21 1177 -21 1109 -21 c 0,17,18
 994 -21 994 -21 899.5 52 c 128,-1,19
 805 125 805 125 706 261 c 2,20,-1
 454 605 l 1,21,-1
 453 626 l 1,0,1
47 1168 m 1,22,-1
 61 1244 l 1,23,-1
 611 1244 l 1,24,-1
 601 1168 l 1,25,-1
 429 1121 l 1,26,-1
 429 124 l 1,27,-1
 618 80 l 1,28,-1
 607 0 l 1,29,-1
 54 0 l 1,30,-1
 64 74 l 1,31,-1
 236 129 l 1,32,-1
 236 1117 l 1,33,-1
 47 1168 l 1,22,-1
EndSplineSet
EndChar

StartChar: L
Encoding: 76 76 47
Width: 1097
GlyphClass: 2
Flags: W
LayerCount: 2
Fore
SplineSet
58 0 m 1,0,-1
 67 74 l 1,1,-1
 233 121 l 1,2,-1
 233 1117 l 1,3,-1
 45 1168 l 1,4,-1
 58 1244 l 1,5,-1
 608 1244 l 1,6,-1
 598 1168 l 1,7,-1
 427 1121 l 1,8,-1
 427 96 l 1,9,-1
 869 96 l 1,10,-1
 1000 344 l 1,11,-1
 1085 331 l 1,12,-1
 1048 0 l 1,13,-1
 58 0 l 1,0,-1
EndSplineSet
EndChar

StartChar: M
Encoding: 77 77 48
Width: 1700
GlyphClass: 2
Flags: W
LayerCount: 2
Fore
SplineSet
24 0 m 1,0,-1
 35 74 l 1,1,-1
 202 121 l 1,2,-1
 275 1126 l 1,3,-1
 92 1168 l 1,4,-1
 102 1244 l 1,5,-1
 505 1244 l 1,6,-1
 583 1050 l 1,7,-1
 845 313 l 1,8,-1
 1152 1083 l 1,9,-1
 1223 1244 l 1,10,-1
 1618 1244 l 1,11,-1
 1608 1168 l 1,12,-1
 1440 1130 l 1,13,-1
 1492 114 l 1,14,-1
 1674 80 l 1,15,-1
 1664 0 l 1,16,-1
 1128 0 l 1,17,-1
 1139 74 l 1,18,-1
 1305 121 l 1,19,-1
 1249 1004 l 1,20,-1
 868 50 l 1,21,-1
 740 31 l 1,22,-1
 397 967 l 1,23,-1
 334 114 l 1,24,-1
 517 80 l 1,25,-1
 504 0 l 1,26,-1
 24 0 l 1,0,-1
EndSplineSet
EndChar

StartChar: N
Encoding: 78 78 49
Width: 1390
GlyphClass: 2
Flags: W
LayerCount: 2
Fore
SplineSet
50 1168 m 1,0,-1
 61 1244 l 1,1,-1
 411 1244 l 1,2,-1
 1054 274 l 1,3,-1
 1054 1126 l 1,4,-1
 869 1168 l 1,5,-1
 881 1244 l 1,6,-1
 1356 1244 l 1,7,-1
 1343 1168 l 1,8,-1
 1176 1130 l 1,9,-1
 1176 1 l 1,10,-1
 1023 -30 l 1,11,-1
 360 961 l 1,12,-1
 360 114 l 1,13,-1
 543 80 l 1,14,-1
 532 0 l 1,15,-1
 57 0 l 1,16,-1
 65 74 l 1,17,-1
 232 121 l 1,18,-1
 232 1117 l 1,19,-1
 50 1168 l 1,0,-1
EndSplineSet
EndChar

StartChar: O
Encoding: 79 79 50
Width: 1342
GlyphClass: 2
Flags: W
LayerCount: 2
Fore
SplineSet
283 676 m 0,0,1
 283 377 283 377 420 204 c 0,2,3
 519 79 519 79 686 79 c 0,4,5
 932 79 932 79 1017 295 c 0,6,7
 1062 409 1062 409 1062 535 c 128,-1,8
 1062 661 1062 661 1048 745 c 128,-1,9
 1034 829 1034 829 1002 907.5 c 128,-1,10
 970 986 970 986 924 1046 c 0,11,12
 825 1176 825 1176 658 1176 c 0,13,14
 283 1176 283 1176 283 676 c 0,0,1
61 619 m 0,15,16
 61 911 61 911 236 1091.5 c 128,-1,17
 411 1272 411 1272 706 1272 c 0,18,19
 838 1272 838 1272 948.5 1219.5 c 128,-1,20
 1059 1167 1059 1167 1132 1077 c 0,21,22
 1284 888 1284 888 1284 619 c 0,23,24
 1284 352 1284 352 1116 167 c 0,25,26
 1036 78 1036 78 911.5 25.5 c 128,-1,27
 787 -27 787 -27 627 -27 c 128,-1,28
 467 -27 467 -27 335 59 c 128,-1,29
 203 145 203 145 132 292 c 128,-1,30
 61 439 61 439 61 619 c 0,15,16
EndSplineSet
EndChar

StartChar: P
Encoding: 80 80 51
Width: 1078
GlyphClass: 2
Flags: W
LayerCount: 2
Fore
SplineSet
50 0 m 1,0,-1
 61 74 l 1,1,-1
 228 121 l 1,2,-1
 228 1104 l 1,3,-1
 57 1134 l 1,4,-1
 67 1211 l 1,5,6
 366 1255 366 1255 543 1255 c 0,7,8
 1045 1255 1045 1255 1045 892 c 0,9,10
 1045 805 1045 805 1007 730 c 128,-1,11
 969 655 969 655 906 604 c 0,12,13
 769 494 769 494 584 494 c 0,14,15
 577 494 577 494 484 497 c 1,16,-1
 466 580 l 1,17,-1
 519 581 l 1,18,19
 838 590 838 590 838 856 c 0,20,21
 838 995 838 995 760.5 1083.5 c 128,-1,22
 683 1172 683 1172 522 1172 c 1,23,-1
 420 1166 l 1,24,-1
 420 122 l 1,25,-1
 657 83 l 1,26,-1
 643 0 l 1,27,-1
 50 0 l 1,0,-1
EndSplineSet
EndChar

StartChar: Q
Encoding: 81 81 52
Width: 1357
GlyphClass: 2
Flags: W
LayerCount: 2
Fore
SplineSet
263 679 m 0,0,1
 263 551 263 551 294.5 450.5 c 128,-1,2
 326 350 326 350 364 290.5 c 128,-1,3
 402 231 402 231 454 182 c 0,4,5
 564 77 564 77 749 67 c 1,6,7
 1037 140 1037 140 1082 430 c 0,8,9
 1092 491 1092 491 1092 582.5 c 128,-1,10
 1092 674 1092 674 1061.5 781.5 c 128,-1,11
 1031 889 1031 889 977.5 975.5 c 128,-1,12
 924 1062 924 1062 842 1115 c 128,-1,13
 760 1168 760 1168 664 1168 c 0,14,15
 475 1168 475 1168 369 1039.5 c 128,-1,16
 263 911 263 911 263 679 c 0,0,1
132.5 283.5 m 128,-1,18
 61 428 61 428 61 614 c 128,-1,19
 61 800 61 800 142.5 950.5 c 128,-1,20
 224 1101 224 1101 375 1186.5 c 128,-1,21
 526 1272 526 1272 710.5 1272 c 128,-1,22
 895 1272 895 1272 1028 1184 c 128,-1,23
 1161 1096 1161 1096 1230 951 c 128,-1,24
 1299 806 1299 806 1299 643.5 c 128,-1,25
 1299 481 1299 481 1243 351 c 128,-1,26
 1187 221 1187 221 1076.5 125.5 c 128,-1,27
 966 30 966 30 818 -6 c 1,28,29
 891 -173 891 -173 1070 -233 c 0,30,31
 1145 -258 1145 -258 1250 -275 c 1,32,33
 1250 -324 1250 -324 1241 -351 c 1,34,35
 1171 -385 1171 -385 1065 -385 c 0,36,37
 924 -385 924 -385 820 -286 c 128,-1,38
 716 -187 716 -187 703 -21 c 1,39,40
 683 -27 683 -27 638 -27 c 0,41,42
 469 -27 469 -27 336.5 56 c 128,-1,17
 204 139 204 139 132.5 283.5 c 128,-1,18
EndSplineSet
EndChar

StartChar: R
Encoding: 82 82 53
Width: 1208
GlyphClass: 2
Flags: W
LayerCount: 2
Fore
SplineSet
420 628 m 1,0,-1
 618 628 l 1,1,2
 702 656 702 656 760 722 c 128,-1,3
 818 788 818 788 818 900.5 c 128,-1,4
 818 1013 818 1013 744 1091 c 128,-1,5
 670 1169 670 1169 540 1169 c 1,6,-1
 420 1164 l 1,7,-1
 420 628 l 1,0,-1
50 0 m 1,8,-1
 61 74 l 1,9,-1
 228 121 l 1,10,-1
 228 1100 l 1,11,-1
 57 1130 l 1,12,-1
 67 1207 l 1,13,14
 361 1253 361 1253 500 1253 c 128,-1,15
 639 1253 639 1253 727.5 1237 c 128,-1,16
 816 1221 816 1221 884 1186 c 0,17,18
 1025 1113 1025 1113 1025 943 c 0,19,20
 1025 841 1025 841 949 744 c 128,-1,21
 873 647 873 647 738 599 c 1,22,-1
 738 598 l 1,23,24
 975 270 975 270 999 239 c 128,-1,25
 1023 208 1023 208 1060 169 c 0,26,27
 1121 104 1121 104 1211 77 c 2,28,-1
 1244 67 l 1,29,-1
 1229 -1 l 1,30,31
 1172 -21 1172 -21 1109 -21 c 0,32,33
 998 -21 998 -21 911.5 51.5 c 128,-1,34
 825 124 825 124 753 253 c 2,35,-1
 594 537 l 1,36,-1
 420 537 l 1,37,-1
 420 126 l 1,38,-1
 608 83 l 1,39,-1
 598 0 l 1,40,-1
 50 0 l 1,8,-1
EndSplineSet
EndChar

StartChar: S
Encoding: 83 83 54
Width: 900
GlyphClass: 2
Flags: W
LayerCount: 2
Fore
SplineSet
66 122 m 1,0,-1
 79 389 l 1,1,-1
 181 375 l 1,2,-1
 220 187 l 1,3,4
 249 141 249 141 304.5 109 c 128,-1,5
 360 77 360 77 421.5 77 c 128,-1,6
 483 77 483 77 534.5 97.5 c 128,-1,7
 586 118 586 118 624.5 167.5 c 128,-1,8
 663 217 663 217 663 278 c 128,-1,9
 663 339 663 339 631.5 383.5 c 128,-1,10
 600 428 600 428 549.5 461 c 128,-1,11
 499 494 499 494 437.5 526 c 128,-1,12
 376 558 376 558 315 594.5 c 128,-1,13
 254 631 254 631 204 674 c 1,14,15
 90 769 90 769 90 916 c 0,16,17
 90 1025 90 1025 147 1107 c 0,18,19
 260 1269 260 1269 479 1269 c 0,20,21
 641 1269 641 1269 761 1169 c 1,22,-1
 739 887 l 1,23,-1
 640 899 l 1,24,-1
 615 1090 l 1,25,26
 599 1122 599 1122 549.5 1153.5 c 128,-1,27
 500 1185 500 1185 432.5 1185 c 128,-1,28
 365 1185 365 1185 314 1137 c 128,-1,29
 263 1089 263 1089 263 1013 c 128,-1,30
 263 937 263 937 295 889.5 c 128,-1,31
 327 842 327 842 378.5 807.5 c 128,-1,32
 430 773 430 773 492.5 741 c 128,-1,33
 555 709 555 709 617.5 673 c 128,-1,34
 680 637 680 637 732 596 c 1,35,36
 847 502 847 502 847 354 c 0,37,38
 847 243 847 243 783 155 c 128,-1,39
 719 67 719 67 618 21.5 c 128,-1,40
 517 -24 517 -24 407.5 -24 c 128,-1,41
 298 -24 298 -24 207.5 17.5 c 128,-1,42
 117 59 117 59 66 122 c 1,0,-1
EndSplineSet
EndChar

StartChar: T
Encoding: 84 84 55
Width: 1146
GlyphClass: 2
Flags: W
LayerCount: 2
Fore
SplineSet
23 1244 m 1,0,-1
 1134 1244 l 1,1,-1
 1100 906 l 1,2,-1
 1005 921 l 1,3,-1
 967 1152 l 1,4,-1
 662 1152 l 1,5,-1
 662 114 l 1,6,-1
 847 80 l 1,7,-1
 833 0 l 1,8,-1
 294 0 l 1,9,-1
 301 74 l 1,10,-1
 470 121 l 1,11,-1
 470 1152 l 1,12,-1
 175 1152 l 1,13,-1
 122 909 l 1,14,-1
 31 922 l 1,15,-1
 23 1244 l 1,0,-1
EndSplineSet
EndChar

StartChar: U
Encoding: 85 85 56
Width: 1401
GlyphClass: 2
Flags: W
LayerCount: 2
Fore
SplineSet
22 1168 m 1,0,-1
 35 1244 l 1,1,-1
 577 1244 l 1,2,-1
 568 1168 l 1,3,-1
 399 1130 l 1,4,-1
 399 510 l 2,5,6
 399 304 399 304 492.5 204.5 c 128,-1,7
 586 105 586 105 744 105 c 0,8,9
 1070 105 1070 105 1072 482 c 2,10,-1
 1075 1126 l 1,11,-1
 892 1168 l 1,12,-1
 902 1244 l 1,13,-1
 1380 1244 l 1,14,-1
 1369 1168 l 1,15,-1
 1203 1130 l 1,16,-1
 1198 515 l 2,17,18
 1196 241 1196 241 1075 107 c 128,-1,19
 954 -27 954 -27 697 -27 c 0,20,21
 433 -27 433 -27 312 112 c 1,22,23
 206 232 206 232 206 469 c 2,24,-1
 206 1126 l 1,25,-1
 22 1168 l 1,0,-1
EndSplineSet
EndChar

StartChar: V
Encoding: 86 86 57
Width: 1235
GlyphClass: 2
Flags: W
LayerCount: 2
Fore
SplineSet
-21 1168 m 1,0,-1
 -11 1244 l 1,1,-1
 527 1244 l 1,2,-1
 517 1168 l 1,3,-1
 347 1130 l 1,4,-1
 660 251 l 1,5,-1
 980 1126 l 1,6,-1
 798 1168 l 1,7,-1
 805 1244 l 1,8,-1
 1260 1244 l 1,9,-1
 1253 1168 l 1,10,-1
 1121 1130 l 1,11,-1
 696 4 l 1,12,-1
 544 -24 l 1,13,-1
 126 1126 l 1,14,-1
 -21 1168 l 1,0,-1
EndSplineSet
EndChar

StartChar: W
Encoding: 87 87 58
Width: 1789
GlyphClass: 2
Flags: W
LayerCount: 2
Fore
SplineSet
-11 1168 m 1,0,-1
 -2 1244 l 1,1,-1
 512 1244 l 1,2,-1
 497 1168 l 1,3,-1
 330 1130 l 1,4,-1
 572 271 l 1,5,-1
 853 1194 l 1,6,-1
 1029 1219 l 1,7,-1
 1277 287 l 1,8,-1
 1538 1126 l 1,9,-1
 1357 1168 l 1,10,-1
 1368 1244 l 1,11,-1
 1817 1244 l 1,12,-1
 1806 1168 l 1,13,-1
 1683 1130 l 1,14,-1
 1318 4 l 1,15,-1
 1164 -24 l 1,16,-1
 902 951 l 1,17,-1
 617 4 l 1,18,-1
 454 -24 l 1,19,-1
 129 1126 l 1,20,-1
 -11 1168 l 1,0,-1
EndSplineSet
EndChar

StartChar: X
Encoding: 88 88 59
Width: 1193
GlyphClass: 2
Flags: W
LayerCount: 2
Fore
SplineSet
-1 0 m 1,0,-1
 11 76 l 1,1,-1
 138 121 l 1,2,-1
 504 615 l 1,3,-1
 165 1123 l 1,4,-1
 28 1166 l 1,5,-1
 40 1244 l 1,6,-1
 553 1244 l 1,7,-1
 543 1166 l 1,8,-1
 386 1121 l 1,9,-1
 633 750 l 1,10,-1
 904 1126 l 1,11,-1
 734 1166 l 1,12,-1
 747 1244 l 1,13,-1
 1182 1244 l 1,14,-1
 1174 1168 l 1,15,-1
 1047 1130 l 1,16,-1
 709 657 l 1,17,-1
 1050 114 l 1,18,-1
 1185 80 l 1,19,-1
 1172 0 l 1,20,-1
 669 0 l 1,21,-1
 682 74 l 1,22,-1
 842 121 l 1,23,-1
 580 529 l 1,24,-1
 288 117 l 1,25,-1
 454 83 l 1,26,-1
 439 0 l 1,27,-1
 -1 0 l 1,0,-1
EndSplineSet
EndChar

StartChar: Y
Encoding: 89 89 60
Width: 1123
GlyphClass: 2
Flags: W
LayerCount: 2
Fore
SplineSet
-21 1168 m 1,0,-1
 -8 1244 l 1,1,-1
 500 1244 l 1,2,-1
 488 1168 l 1,3,-1
 330 1130 l 1,4,-1
 607 640 l 1,5,-1
 871 1126 l 1,6,-1
 688 1168 l 1,7,-1
 698 1244 l 1,8,-1
 1143 1244 l 1,9,-1
 1133 1168 l 1,10,-1
 1008 1130 l 1,11,-1
 663 529 l 1,12,-1
 663 114 l 1,13,-1
 826 80 l 1,14,-1
 816 0 l 1,15,-1
 310 0 l 1,16,-1
 320 74 l 1,17,-1
 470 121 l 1,18,-1
 470 504 l 1,19,-1
 117 1126 l 1,20,-1
 -21 1168 l 1,0,-1
EndSplineSet
EndChar

StartChar: Z
Encoding: 90 90 61
Width: 1096
GlyphClass: 2
Flags: W
LayerCount: 2
Fore
SplineSet
47 104 m 1,0,-1
 792 1149 l 1,1,-1
 255 1149 l 1,2,-1
 178 903 l 1,3,-1
 88 921 l 1,4,-1
 98 1244 l 1,5,-1
 1026 1244 l 1,6,-1
 1026 1168 l 1,7,-1
 262 100 l 1,8,-1
 832 100 l 1,9,-1
 955 351 l 1,10,-1
 1048 335 l 1,11,-1
 991 0 l 1,12,-1
 55 0 l 1,13,-1
 47 104 l 1,0,-1
EndSplineSet
EndChar

StartChar: bracketleft
Encoding: 91 91 62
Width: 474
GlyphClass: 2
Flags: W
LayerCount: 2
Fore
SplineSet
109 -376 m 1,0,-1
 109 1255 l 1,1,-1
 463 1255 l 1,2,-1
 474 1166 l 1,3,-1
 260 1146 l 1,4,-1
 260 -260 l 1,5,-1
 476 -279 l 1,6,-1
 466 -375 l 1,7,-1
 109 -376 l 1,0,-1
EndSplineSet
EndChar

StartChar: backslash
Encoding: 92 92 63
Width: 677
GlyphClass: 2
Flags: W
LayerCount: 2
Fore
SplineSet
37 1274 m 1,0,-1
 171 1266 l 1,1,-1
 632 -376 l 1,2,-1
 504 -368 l 1,3,-1
 37 1274 l 1,0,-1
EndSplineSet
EndChar

StartChar: bracketright
Encoding: 93 93 64
Width: 474
GlyphClass: 2
Flags: W
LayerCount: 2
Fore
SplineSet
0 -279 m 1,0,-1
 217 -260 l 1,1,-1
 217 1146 l 1,2,-1
 1 1166 l 1,3,-1
 13 1255 l 1,4,-1
 366 1255 l 1,5,-1
 368 -376 l 1,6,-1
 10 -375 l 1,7,-1
 0 -279 l 1,0,-1
EndSplineSet
EndChar

StartChar: asciicircum
Encoding: 94 94 65
Width: 720
GlyphClass: 2
Flags: W
LayerCount: 2
Fore
SplineSet
42 826 m 1,0,-1
 331 1237 l 1,1,-1
 386 1250 l 1,2,-1
 681 824 l 1,3,-1
 624 787 l 1,4,-1
 353 1073 l 1,5,-1
 343 1073 l 1,6,-1
 92 793 l 1,7,-1
 42 826 l 1,0,-1
EndSplineSet
EndChar

StartChar: underscore
Encoding: 95 95 66
Width: 838
GlyphClass: 2
Flags: W
LayerCount: 2
Fore
SplineSet
-1 -132 m 1,0,-1
 11 -27 l 1,1,-1
 839 -27 l 1,2,-1
 828 -132 l 1,3,-1
 -1 -132 l 1,0,-1
EndSplineSet
EndChar

StartChar: grave
Encoding: 96 96 67
Width: 535
GlyphClass: 2
Flags: W
LayerCount: 2
Fore
SplineSet
122 1659 m 1,0,-1
 237 1697 l 1,1,-1
 369 1364 l 1,2,-1
 313 1329 l 1,3,-1
 122 1659 l 1,0,-1
EndSplineSet
EndChar

StartChar: a
Encoding: 97 97 68
Width: 830
GlyphClass: 2
Flags: W
LayerCount: 2
Fore
SplineSet
222 215 m 0,0,1
 222 173 222 173 252.5 136 c 128,-1,2
 283 99 283 99 332.5 99 c 128,-1,3
 382 99 382 99 430 127 c 128,-1,4
 478 155 478 155 508 188 c 1,5,-1
 508 428 l 1,6,7
 352 397 352 397 287 344.5 c 128,-1,8
 222 292 222 292 222 215 c 0,0,1
104 28 m 128,-1,10
 47 80 47 80 47 152.5 c 128,-1,11
 47 225 47 225 74 276.5 c 128,-1,12
 101 328 101 328 154 372 c 0,13,14
 270 469 270 469 508 485 c 1,15,-1
 508 540 l 2,16,17
 508 807 508 807 331 807 c 0,18,19
 276 807 276 807 260.5 787 c 128,-1,20
 245 767 245 767 239 744 c 0,21,22
 220 669 220 669 220 592 c 1,23,24
 145 592 145 592 123 609 c 0,25,26
 81 641 81 641 81 694 c 128,-1,27
 81 747 81 747 138 795.5 c 128,-1,28
 195 844 195 844 274 872 c 128,-1,29
 353 900 353 900 423 900 c 0,30,31
 555 900 555 900 612.5 826.5 c 128,-1,32
 670 753 670 753 670 593 c 2,33,-1
 670 230 l 2,34,35
 670 160 670 160 691.5 133.5 c 128,-1,36
 713 107 713 107 782 96 c 1,37,-1
 832 87 l 1,38,-1
 819 1 l 1,39,40
 811 0 811 0 764.5 -9 c 128,-1,41
 718 -18 718 -18 683 -18 c 0,42,43
 604 -18 604 -18 566 23 c 128,-1,44
 528 64 528 64 528 116 c 2,45,-1
 528 131 l 1,46,-1
 517 131 l 1,47,48
 492 82 492 82 446 45 c 0,49,50
 360 -24 360 -24 260.5 -24 c 128,-1,9
 161 -24 161 -24 104 28 c 128,-1,10
EndSplineSet
EndChar

StartChar: b
Encoding: 98 98 69
Width: 955
GlyphClass: 2
Flags: W
LayerCount: 2
Fore
SplineSet
299 155 m 1,0,1
 329 125 329 125 387 106 c 128,-1,2
 445 87 445 87 510 87 c 0,3,4
 602 87 602 87 663.5 168.5 c 128,-1,5
 725 250 725 250 725 408 c 0,6,7
 725 669 725 669 600 744 c 1,8,9
 562 768 562 768 513 768 c 0,10,11
 390 768 390 768 299 672 c 1,12,-1
 299 155 l 1,0,1
-15 1161 m 1,13,-1
 -2 1237 l 1,14,-1
 275 1258 l 1,15,-1
 299 1235 l 1,16,-1
 299 849 l 1,17,-1
 285 744 l 1,18,-1
 296 744 l 1,19,20
 434 899 434 899 580 899 c 128,-1,21
 726 899 726 899 815 780.5 c 128,-1,22
 904 662 904 662 904 490.5 c 128,-1,23
 904 319 904 319 834.5 204.5 c 128,-1,24
 765 90 765 90 654 33.5 c 128,-1,25
 543 -23 543 -23 397 -23 c 128,-1,26
 251 -23 251 -23 136 49 c 1,27,-1
 136 1108 l 1,28,-1
 -15 1161 l 1,13,-1
EndSplineSet
EndChar

StartChar: c
Encoding: 99 99 70
Width: 778
GlyphClass: 2
Flags: W
LayerCount: 2
Fore
SplineSet
545 90 m 0,0,1
 635 90 635 90 730 151 c 1,2,-1
 755 93 l 1,3,4
 713 43 713 43 625.5 6.5 c 128,-1,5
 538 -30 538 -30 445 -30 c 0,6,7
 270 -30 270 -30 160 100 c 128,-1,8
 50 230 50 230 50 415 c 0,9,10
 50 523 50 523 86 615.5 c 128,-1,11
 122 708 122 708 182 770 c 0,12,13
 308 900 308 900 475 900 c 0,14,15
 593 900 593 900 654.5 855.5 c 128,-1,16
 716 811 716 811 716 756 c 0,17,18
 716 650 716 650 589 642 c 1,19,20
 542 758 542 758 485 791 c 0,21,22
 459 806 459 806 428 806 c 0,23,24
 339 806 339 806 285 724.5 c 128,-1,25
 231 643 231 643 231 507 c 0,26,27
 231 369 231 369 301 236 c 0,28,29
 378 90 378 90 545 90 c 0,0,1
EndSplineSet
EndChar

StartChar: d
Encoding: 100 100 71
Width: 987
GlyphClass: 2
Flags: W
LayerCount: 2
Fore
SplineSet
443 802 m 0,0,1
 230 802 230 802 230 454 c 0,2,3
 230 290 230 290 291.5 197.5 c 128,-1,4
 353 105 353 105 451 105 c 0,5,6
 509 105 509 105 568.5 134 c 128,-1,7
 628 163 628 163 657 197 c 1,8,-1
 657 666 l 1,9,10
 619 728 619 728 557.5 765 c 128,-1,11
 496 802 496 802 443 802 c 0,0,1
54 399 m 0,12,13
 54 504 54 504 93.5 599.5 c 128,-1,14
 133 695 133 695 195.5 759.5 c 128,-1,15
 258 824 258 824 336 862 c 128,-1,16
 414 900 414 900 477 900 c 0,17,18
 602 900 602 900 663 856 c 1,19,-1
 670 856 l 1,20,-1
 658 984 l 1,21,-1
 658 1111 l 1,22,-1
 506 1166 l 1,23,-1
 520 1241 l 1,24,-1
 798 1265 l 1,25,-1
 819 1241 l 1,26,-1
 819 215 l 2,27,28
 819 141 819 141 843 123.5 c 128,-1,29
 867 106 867 106 877.5 102 c 128,-1,30
 888 98 888 98 907 94 c 128,-1,31
 926 90 926 90 928 89 c 2,32,-1
 973 79 l 1,33,-1
 962 -4 l 1,34,35
 887 -23 887 -23 815 -23 c 128,-1,36
 743 -23 743 -23 704.5 18 c 128,-1,37
 666 59 666 59 666 124 c 2,38,-1
 666 131 l 1,39,-1
 657 131 l 1,40,41
 546 -21 546 -21 380 -21 c 0,42,43
 240 -21 240 -21 147 90 c 128,-1,44
 54 201 54 201 54 399 c 0,12,13
EndSplineSet
EndChar

StartChar: e
Encoding: 101 101 72
Width: 802
GlyphClass: 2
Flags: W
LayerCount: 2
Fore
SplineSet
233 523 m 1,0,-1
 547 546 l 1,1,2
 553 570 553 570 553 615 c 0,3,4
 553 801 553 801 415 801 c 0,5,6
 348 801 348 801 294 729.5 c 128,-1,7
 240 658 240 658 233 523 c 1,0,-1
758 104 m 1,8,9
 630 -30 630 -30 429 -30 c 0,10,11
 281 -30 281 -30 170 84 c 1,12,13
 53 206 53 206 53 428 c 0,14,15
 53 536 53 536 90 627.5 c 128,-1,16
 127 719 127 719 186 777 c 0,17,18
 310 899 310 899 464 899 c 0,19,20
 579 899 579 899 655 816 c 128,-1,21
 731 733 731 733 731 581 c 0,22,23
 731 519 731 519 715 451 c 1,24,-1
 231 445 l 1,25,26
 238 282 238 282 333 177 c 0,27,28
 401 102 401 102 510 102 c 0,29,30
 594 102 594 102 641 116.5 c 128,-1,31
 688 131 688 131 737 157 c 1,32,-1
 758 104 l 1,8,9
EndSplineSet
EndChar

StartChar: f
Encoding: 102 102 73
Width: 694
GlyphClass: 2
Flags: W
LayerCount: 2
Fore
SplineSet
35 0 m 1,0,-1
 47 73 l 1,1,-1
 199 116 l 1,2,-1
 199 784 l 1,3,-1
 50 784 l 1,4,-1
 62 857 l 1,5,-1
 200 879 l 1,6,7
 212 982 212 982 252 1066 c 128,-1,8
 292 1150 292 1150 347 1200 c 0,9,10
 460 1304 460 1304 575 1304 c 0,11,12
 659 1304 659 1304 710.5 1275 c 128,-1,13
 762 1246 762 1246 762 1200.5 c 128,-1,14
 762 1155 762 1155 732 1121.5 c 128,-1,15
 702 1088 702 1088 673 1077 c 1,16,17
 635 1124 635 1124 587 1161 c 128,-1,18
 539 1198 539 1198 488 1198 c 0,19,20
 373 1198 373 1198 368 981 c 2,21,-1
 366 873 l 1,22,-1
 623 873 l 1,23,-1
 611 784 l 1,24,-1
 366 784 l 1,25,-1
 366 121 l 1,26,-1
 611 83 l 1,27,-1
 604 0 l 1,28,-1
 35 0 l 1,0,-1
EndSplineSet
EndChar

StartChar: g
Encoding: 103 103 74
Width: 890
GlyphClass: 2
Flags: W
LayerCount: 2
Fore
SplineSet
289.5 766 m 128,-1,1
 252 709 252 709 252 609.5 c 128,-1,2
 252 510 252 510 304.5 445 c 128,-1,3
 357 380 357 380 417 380 c 0,4,5
 564 380 564 380 564 580 c 0,6,7
 564 670 564 670 519.5 746.5 c 128,-1,8
 475 823 475 823 401 823 c 128,-1,0
 327 823 327 823 289.5 766 c 128,-1,1
252 3 m 1,9,10
 200 -23 200 -23 200 -108 c 0,11,12
 200 -279 200 -279 440 -279 c 0,13,14
 547 -279 547 -279 611.5 -236 c 128,-1,15
 676 -193 676 -193 676 -100 c 0,16,17
 676 -36 676 -36 622.5 -16.5 c 128,-1,18
 569 3 569 3 426 3 c 2,19,-1
 252 3 l 1,9,10
184 27 m 1,20,21
 88 73 88 73 88 164 c 0,22,23
 88 203 88 203 142 253.5 c 128,-1,24
 196 304 196 304 255 328 c 1,25,-1
 255 335 l 1,26,27
 208 347 208 347 150 422.5 c 128,-1,28
 92 498 92 498 92 589 c 0,29,30
 92 711 92 711 195 803.5 c 128,-1,31
 298 896 298 896 423 896 c 128,-1,32
 548 896 548 896 636 833 c 1,33,-1
 851 849 l 1,34,-1
 871 826 l 1,35,-1
 832 715 l 1,36,-1
 816 715 l 1,37,-1
 693 755 l 1,38,-1
 693 738 l 1,39,40
 727 665 727 665 727 588.5 c 128,-1,41
 727 512 727 512 673.5 441.5 c 128,-1,42
 620 371 620 371 543.5 336 c 128,-1,43
 467 301 467 301 401.5 301 c 128,-1,44
 336 301 336 301 299 311 c 1,45,46
 249 259 249 259 249 223.5 c 128,-1,47
 249 188 249 188 286.5 169.5 c 128,-1,48
 324 151 324 151 432 151 c 2,49,-1
 568 151 l 2,50,51
 774 151 774 151 824 54 c 0,52,53
 845 13 845 13 845 -61 c 128,-1,54
 845 -135 845 -135 778 -213.5 c 128,-1,55
 711 -292 711 -292 604.5 -339 c 128,-1,56
 498 -386 498 -386 405.5 -386 c 128,-1,57
 313 -386 313 -386 251.5 -375 c 128,-1,58
 190 -364 190 -364 137 -339 c 0,59,60
 24 -286 24 -286 24 -162 c 0,61,62
 24 -72 24 -72 184 18 c 1,63,-1
 184 27 l 1,20,21
EndSplineSet
EndChar

StartChar: h
Encoding: 104 104 75
Width: 1029
GlyphClass: 2
Flags: W
LayerCount: 2
Fore
SplineSet
10 0 m 1,0,-1
 21 79 l 1,1,-1
 175 116 l 1,2,-1
 175 1117 l 1,3,-1
 15 1171 l 1,4,-1
 27 1247 l 1,5,-1
 316 1269 l 1,6,-1
 341 1245 l 1,7,-1
 341 850 l 1,8,-1
 325 744 l 1,9,-1
 335 744 l 1,10,11
 476 900 476 900 629 900 c 0,12,13
 809 900 809 900 854 748 c 0,14,15
 872 687 872 687 872 599 c 2,16,-1
 872 114 l 1,17,-1
 1017 79 l 1,18,-1
 1005 0 l 1,19,-1
 556 0 l 1,20,-1
 568 74 l 1,21,-1
 703 114 l 1,22,-1
 706 580 l 2,23,24
 706 677 706 677 655 720.5 c 128,-1,25
 604 764 604 764 534 764 c 0,26,27
 426 764 426 764 341 675 c 1,28,-1
 341 116 l 1,29,-1
 487 80 l 1,30,-1
 475 0 l 1,31,-1
 10 0 l 1,0,-1
EndSplineSet
EndChar

StartChar: i
Encoding: 105 105 76
Width: 539
GlyphClass: 2
Flags: W
LayerCount: 2
Fore
SplineSet
191 1106.5 m 128,-1,1
 156 1143 156 1143 156 1192 c 128,-1,2
 156 1241 156 1241 191.5 1273.5 c 128,-1,3
 227 1306 227 1306 276 1306 c 128,-1,4
 325 1306 325 1306 361 1273 c 128,-1,5
 397 1240 397 1240 397 1191 c 128,-1,6
 397 1142 397 1142 361 1106 c 128,-1,7
 325 1070 325 1070 275.5 1070 c 128,-1,0
 226 1070 226 1070 191 1106.5 c 128,-1,1
37 0 m 1,8,-1
 49 79 l 1,9,-1
 200 116 l 1,10,-1
 200 731 l 1,11,-1
 49 786 l 1,12,-1
 62 862 l 1,13,-1
 343 885 l 1,14,-1
 368 860 l 1,15,-1
 368 116 l 1,16,-1
 528 80 l 1,17,-1
 517 0 l 1,18,-1
 37 0 l 1,8,-1
EndSplineSet
EndChar

StartChar: j
Encoding: 106 106 77
Width: 463
GlyphClass: 2
Flags: W
LayerCount: 2
Fore
SplineSet
175.5 1100.5 m 128,-1,1
 139 1138 139 1138 139 1188.5 c 128,-1,2
 139 1239 139 1239 175.5 1273.5 c 128,-1,3
 212 1308 212 1308 262.5 1308 c 128,-1,4
 313 1308 313 1308 348.5 1272.5 c 128,-1,5
 384 1237 384 1237 384 1187 c 128,-1,6
 384 1137 384 1137 348 1100 c 128,-1,7
 312 1063 312 1063 262 1063 c 128,-1,0
 212 1063 212 1063 175.5 1100.5 c 128,-1,1
-34 -295 m 1,8,9
 90 -205 90 -205 141 -86 c 0,10,11
 187 21 187 21 187 172 c 2,12,-1
 187 731 l 1,13,-1
 37 786 l 1,14,-1
 52 866 l 1,15,-1
 331 887 l 1,16,-1
 356 862 l 1,17,-1
 356 151 l 2,18,19
 356 -193 356 -193 61 -359 c 1,20,-1
 15 -383 l 1,21,-1
 -34 -295 l 1,8,9
EndSplineSet
EndChar

StartChar: k
Encoding: 107 107 78
Width: 972
GlyphClass: 2
Flags: W
LayerCount: 2
Fore
SplineSet
365 432 m 1,0,-1
 365 452 l 1,1,-1
 624 777 l 1,2,-1
 491 817 l 1,3,-1
 501 893 l 1,4,-1
 927 893 l 1,5,-1
 913 819 l 1,6,-1
 764 777 l 1,7,-1
 527 487 l 1,8,-1
 728 226 l 1,9,10
 789 149 789 149 817 131 c 0,11,12
 879 90 879 90 931 83 c 2,13,-1
 971 77 l 1,14,-1
 960 0 l 1,15,16
 889 -19 889 -19 841 -19 c 0,17,18
 747 -19 747 -19 675 44 c 128,-1,19
 603 107 603 107 470 287 c 1,20,-1
 365 432 l 1,0,-1
10 0 m 1,21,-1
 21 79 l 1,22,-1
 174 116 l 1,23,-1
 174 1108 l 1,24,-1
 16 1161 l 1,25,-1
 28 1237 l 1,26,-1
 316 1260 l 1,27,-1
 341 1235 l 1,28,-1
 341 116 l 1,29,-1
 500 80 l 1,30,-1
 488 0 l 1,31,-1
 10 0 l 1,21,-1
EndSplineSet
EndChar

StartChar: l
Encoding: 108 108 79
Width: 510
GlyphClass: 2
Flags: W
LayerCount: 2
Fore
SplineSet
10 0 m 1,0,-1
 21 79 l 1,1,-1
 174 116 l 1,2,-1
 174 1117 l 1,3,-1
 16 1171 l 1,4,-1
 28 1247 l 1,5,-1
 316 1269 l 1,6,-1
 341 1245 l 1,7,-1
 341 116 l 1,8,-1
 500 80 l 1,9,-1
 488 0 l 1,10,-1
 10 0 l 1,0,-1
EndSplineSet
EndChar

StartChar: m
Encoding: 109 109 80
Width: 1584
GlyphClass: 2
Flags: W
LayerCount: 2
Fore
SplineSet
43 0 m 1,0,-1
 53 74 l 1,1,-1
 203 114 l 1,2,-1
 203 719 l 1,3,-1
 43 770 l 1,4,-1
 53 845 l 1,5,-1
 357 887 l 1,6,-1
 375 866 l 1,7,-1
 357 740 l 1,8,-1
 366 740 l 1,9,10
 419 806 419 806 498.5 851 c 128,-1,11
 578 896 578 896 660 896 c 128,-1,12
 742 896 742 896 803.5 856 c 128,-1,13
 865 816 865 816 887 731 c 1,14,-1
 899 731 l 1,15,16
 952 799 952 799 1028.5 843.5 c 128,-1,17
 1105 888 1105 888 1194 888 c 0,18,19
 1430 888 1430 888 1430 609 c 2,20,-1
 1430 116 l 1,21,-1
 1568 80 l 1,22,-1
 1555 1 l 1,23,-1
 1130 1 l 1,24,-1
 1137 74 l 1,25,-1
 1262 114 l 1,26,-1
 1262 585 l 2,27,28
 1262 660 1262 660 1217 710 c 128,-1,29
 1172 760 1172 760 1103 760 c 128,-1,30
 1034 760 1034 760 990.5 733.5 c 128,-1,31
 947 707 947 707 903 660 c 1,32,-1
 903 114 l 1,33,-1
 1051 79 l 1,34,-1
 1041 0 l 1,35,-1
 598 0 l 1,36,-1
 609 74 l 1,37,-1
 740 114 l 1,38,-1
 740 585 l 2,39,40
 740 663 740 663 691 711.5 c 128,-1,41
 642 760 642 760 569 760 c 0,42,43
 448 760 448 760 372 673 c 1,44,-1
 372 114 l 1,45,-1
 515 79 l 1,46,-1
 504 0 l 1,47,-1
 43 0 l 1,0,-1
EndSplineSet
EndChar

StartChar: n
Encoding: 110 110 81
Width: 1060
GlyphClass: 2
Flags: W
LayerCount: 2
Fore
SplineSet
37 0 m 1,0,-1
 47 73 l 1,1,-1
 198 114 l 1,2,-1
 198 721 l 1,3,-1
 44 773 l 1,4,-1
 54 849 l 1,5,-1
 352 888 l 1,6,-1
 369 869 l 1,7,-1
 352 741 l 1,8,-1
 362 741 l 1,9,10
 419 809 419 809 497 854 c 128,-1,11
 575 899 575 899 677.5 899 c 128,-1,12
 780 899 780 899 842 825 c 128,-1,13
 904 751 904 751 904 616 c 2,14,-1
 904 114 l 1,15,-1
 1048 79 l 1,16,-1
 1038 0 l 1,17,-1
 589 0 l 1,18,-1
 599 73 l 1,19,-1
 737 114 l 1,20,-1
 737 577 l 2,21,22
 737 670 737 670 689.5 715.5 c 128,-1,23
 642 761 642 761 563 761 c 0,24,25
 443 761 443 761 366 675 c 1,26,-1
 366 114 l 1,27,-1
 515 79 l 1,28,-1
 501 0 l 1,29,-1
 37 0 l 1,0,-1
EndSplineSet
EndChar

StartChar: o
Encoding: 111 111 82
Width: 934
GlyphClass: 2
Flags: W
LayerCount: 2
Fore
SplineSet
251.5 645 m 128,-1,1
 230 579 230 579 230 497.5 c 128,-1,2
 230 416 230 416 244.5 343 c 128,-1,3
 259 270 259 270 289 207 c 128,-1,4
 319 144 319 144 372.5 107 c 128,-1,5
 426 70 426 70 497 70 c 0,6,7
 596 70 596 70 650 156.5 c 128,-1,8
 704 243 704 243 704 340.5 c 128,-1,9
 704 438 704 438 689.5 512 c 128,-1,10
 675 586 675 586 646 652 c 128,-1,11
 617 718 617 718 565 758 c 128,-1,12
 513 798 513 798 443 798 c 128,-1,13
 373 798 373 798 323 754.5 c 128,-1,0
 273 711 273 711 251.5 645 c 128,-1,1
52 426 m 0,14,15
 52 536 52 536 88.5 628 c 128,-1,16
 125 720 125 720 186 779 c 0,17,18
 314 903 314 903 492 903 c 128,-1,19
 670 903 670 903 776 776.5 c 128,-1,20
 882 650 882 650 882 442.5 c 128,-1,21
 882 235 882 235 761.5 104 c 128,-1,22
 641 -27 641 -27 455.5 -27 c 128,-1,23
 270 -27 270 -27 161 100 c 128,-1,24
 52 227 52 227 52 426 c 0,14,15
EndSplineSet
EndChar

StartChar: p
Encoding: 112 112 83
Width: 968
GlyphClass: 2
Flags: W
LayerCount: 2
Fore
SplineSet
369 111 m 1,0,1
 427 89 427 89 525 89 c 128,-1,2
 623 89 623 89 677 175 c 128,-1,3
 731 261 731 261 731 406 c 0,4,5
 731 768 731 768 540 768 c 0,6,7
 433 768 433 768 335 666 c 1,8,-1
 335 -257 l 1,9,-1
 491 -292 l 1,10,-1
 479 -372 l 1,11,-1
 13 -372 l 1,12,-1
 19 -294 l 1,13,-1
 172 -256 l 1,14,-1
 172 722 l 1,15,-1
 18 768 l 1,16,-1
 30 845 l 1,17,-1
 321 882 l 1,18,-1
 342 863 l 1,19,-1
 328 734 l 1,20,-1
 335 734 l 1,21,22
 383 801 383 801 453 850 c 128,-1,23
 523 899 523 899 611 899 c 0,24,25
 747 899 747 899 830.5 792 c 128,-1,26
 914 685 914 685 914 469.5 c 128,-1,27
 914 254 914 254 788 117.5 c 128,-1,28
 662 -19 662 -19 469 -19 c 0,29,30
 425 -19 425 -19 375 -10 c 1,31,-1
 369 111 l 1,0,1
EndSplineSet
EndChar

StartChar: q
Encoding: 113 113 84
Width: 955
GlyphClass: 2
Flags: W
LayerCount: 2
Fore
SplineSet
337 861.5 m 128,-1,1
 416 900 416 900 497.5 900 c 128,-1,2
 579 900 579 900 667 853 c 1,3,-1
 784 892 l 1,4,-1
 813 890 l 1,5,-1
 813 -251 l 1,6,-1
 973 -285 l 1,7,-1
 962 -366 l 1,8,-1
 486 -366 l 1,9,-1
 496 -287 l 1,10,-1
 647 -251 l 1,11,-1
 647 663 l 1,12,13
 616 719 616 719 564.5 760 c 128,-1,14
 513 801 513 801 445 801 c 0,15,16
 351 801 351 801 289.5 712 c 128,-1,17
 228 623 228 623 228 461.5 c 128,-1,18
 228 300 228 300 288.5 202 c 128,-1,19
 349 104 349 104 446 104 c 0,20,21
 476 104 476 104 530.5 116 c 128,-1,22
 585 128 585 128 618 148 c 1,23,-1
 621 73 l 1,24,25
 577 31 577 31 507 5 c 128,-1,26
 437 -21 437 -21 381 -21 c 0,27,28
 239 -21 239 -21 146.5 89.5 c 128,-1,29
 54 200 54 200 54 412 c 0,30,31
 54 510 54 510 93.5 602 c 128,-1,32
 133 694 133 694 195.5 758.5 c 128,-1,0
 258 823 258 823 337 861.5 c 128,-1,1
EndSplineSet
EndChar

StartChar: r
Encoding: 114 114 85
Width: 735
GlyphClass: 2
Flags: W
LayerCount: 2
Fore
SplineSet
40 0 m 1,0,-1
 50 74 l 1,1,-1
 203 114 l 1,2,-1
 203 728 l 1,3,-1
 40 777 l 1,4,-1
 54 853 l 1,5,-1
 341 890 l 1,6,-1
 364 866 l 1,7,-1
 344 636 l 1,8,-1
 363 636 l 1,9,10
 401 765 401 765 466.5 835.5 c 128,-1,11
 532 906 532 906 592 906 c 128,-1,12
 652 906 652 906 685 872.5 c 128,-1,13
 718 839 718 839 718 793 c 0,14,15
 718 726 718 726 640 673 c 1,16,17
 584 722 584 722 533.5 722 c 128,-1,18
 483 722 483 722 433 664.5 c 128,-1,19
 383 607 383 607 369 504 c 1,20,-1
 369 121 l 1,21,-1
 602 87 l 1,22,-1
 592 0 l 1,23,-1
 40 0 l 1,0,-1
EndSplineSet
EndChar

StartChar: s
Encoding: 115 115 86
Width: 697
GlyphClass: 2
Flags: W
LayerCount: 2
Fore
SplineSet
130.5 18 m 128,-1,1
 50 70 50 70 50 131.5 c 128,-1,2
 50 193 50 193 85.5 230 c 128,-1,3
 121 267 121 267 182 271 c 1,4,5
 213 168 213 168 262.5 116 c 128,-1,6
 312 64 312 64 370.5 64 c 128,-1,7
 429 64 429 64 466 88.5 c 128,-1,8
 503 113 503 113 503 155 c 128,-1,9
 503 197 503 197 479.5 226.5 c 128,-1,10
 456 256 456 256 418 280 c 128,-1,11
 380 304 380 304 334 329.5 c 128,-1,12
 288 355 288 355 242.5 385 c 128,-1,13
 197 415 197 415 159 449 c 0,14,15
 74 525 74 525 74 635 c 0,16,17
 74 730 74 730 146 810 c 0,18,19
 227 900 227 900 372 900 c 0,20,21
 476 900 476 900 546.5 856.5 c 128,-1,22
 617 813 617 813 617 742.5 c 128,-1,23
 617 672 617 672 579.5 632.5 c 128,-1,24
 542 593 542 593 477 589 c 1,25,-1
 470 632 l 1,26,27
 435 816 435 816 321 816 c 0,28,29
 270 816 270 816 239.5 781 c 128,-1,30
 209 746 209 746 209 702 c 128,-1,31
 209 658 209 658 233 625 c 128,-1,32
 257 592 257 592 296 566 c 128,-1,33
 335 540 335 540 381.5 514.5 c 128,-1,34
 428 489 428 489 475 460 c 128,-1,35
 522 431 522 431 561 398 c 0,36,37
 648 326 648 326 648 220 c 0,38,39
 648 149 648 149 603 89.5 c 128,-1,40
 558 30 558 30 487.5 -2 c 128,-1,41
 417 -34 417 -34 314 -34 c 128,-1,0
 211 -34 211 -34 130.5 18 c 128,-1,1
EndSplineSet
EndChar

StartChar: t
Encoding: 116 116 87
Width: 649
GlyphClass: 2
Flags: W
LayerCount: 2
Fore
SplineSet
635 124 m 1,0,1
 535 -23 535 -23 364 -23 c 0,2,3
 205 -23 205 -23 166 122 c 0,4,5
 150 179 150 179 151 260 c 2,6,-1
 155 783 l 1,7,-1
 28 783 l 1,8,-1
 28 837 l 1,9,10
 156 936 156 936 275 1087 c 1,11,-1
 328 1087 l 1,12,-1
 328 869 l 1,13,-1
 611 869 l 1,14,-1
 602 781 l 1,15,-1
 326 781 l 1,16,-1
 323 319 l 2,17,18
 323 208 323 208 357 165 c 128,-1,19
 391 122 391 122 470 122 c 0,20,21
 536 122 536 122 594 164 c 1,22,-1
 614 178 l 1,23,-1
 635 124 l 1,0,1
EndSplineSet
EndChar

StartChar: u
Encoding: 117 117 88
Width: 1002
GlyphClass: 2
Flags: W
LayerCount: 2
Fore
SplineSet
19 783 m 1,0,-1
 33 862 l 1,1,-1
 301 883 l 1,2,-1
 326 859 l 1,3,-1
 326 317 l 2,4,5
 326 114 326 114 480 114 c 0,6,7
 591 114 591 114 666 191 c 1,8,-1
 666 722 l 1,9,-1
 507 764 l 1,10,-1
 517 856 l 1,11,-1
 811 883 l 1,12,-1
 832 859 l 1,13,-1
 832 215 l 2,14,15
 832 143 832 143 856 125 c 0,16,17
 887 101 887 101 940 89 c 2,18,-1
 986 79 l 1,19,-1
 977 -4 l 1,20,21
 898 -23 898 -23 826 -23 c 128,-1,22
 754 -23 754 -23 716.5 17 c 128,-1,23
 679 57 679 57 679 122 c 2,24,-1
 679 131 l 1,25,-1
 666 131 l 1,26,27
 560 -23 560 -23 380 -23 c 0,28,29
 157 -23 157 -23 157 267 c 2,30,-1
 157 728 l 1,31,-1
 19 783 l 1,0,-1
EndSplineSet
EndChar

StartChar: v
Encoding: 118 118 89
Width: 904
GlyphClass: 2
Flags: W
LayerCount: 2
Fore
SplineSet
-6 798 m 1,0,-1
 4 873 l 1,1,-1
 451 873 l 1,2,-1
 443 799 l 1,3,-1
 298 758 l 1,4,-1
 486 194 l 1,5,-1
 678 756 l 1,6,-1
 517 798 l 1,7,-1
 531 873 l 1,8,-1
 914 873 l 1,9,-1
 902 799 l 1,10,-1
 794 758 l 1,11,-1
 521 -10 l 1,12,-1
 394 -28 l 1,13,-1
 116 756 l 1,14,-1
 -6 798 l 1,0,-1
EndSplineSet
EndChar

StartChar: w
Encoding: 119 119 90
Width: 1234
GlyphClass: 2
Flags: W
LayerCount: 2
Fore
SplineSet
-2 799 m 1,0,-1
 8 875 l 1,1,-1
 423 875 l 1,2,-1
 414 801 l 1,3,-1
 279 760 l 1,4,-1
 390 360 l 1,5,-1
 414 240 l 1,6,-1
 565 811 l 1,7,-1
 704 829 l 1,8,-1
 841 345 l 1,9,-1
 862 234 l 1,10,-1
 998 758 l 1,11,-1
 848 799 l 1,12,-1
 858 875 l 1,13,-1
 1241 875 l 1,14,-1
 1229 801 l 1,15,-1
 1121 760 l 1,16,-1
 909 -10 l 1,17,-1
 790 -28 l 1,18,-1
 617 586 l 1,19,-1
 460 -10 l 1,20,-1
 341 -28 l 1,21,-1
 113 758 l 1,22,-1
 -2 799 l 1,0,-1
EndSplineSet
EndChar

StartChar: x
Encoding: 120 120 91
Width: 958
GlyphClass: 2
Flags: W
LayerCount: 2
Fore
SplineSet
21 0 m 1,0,-1
 31 73 l 1,1,-1
 138 114 l 1,2,-1
 383 436 l 1,3,-1
 154 764 l 1,4,-1
 36 806 l 1,5,-1
 46 882 l 1,6,-1
 480 882 l 1,7,-1
 467 807 l 1,8,-1
 352 767 l 1,9,-1
 508 549 l 1,10,-1
 675 764 l 1,11,-1
 538 806 l 1,12,-1
 552 882 l 1,13,-1
 927 882 l 1,14,-1
 914 807 l 1,15,-1
 810 767 l 1,16,-1
 580 467 l 1,17,-1
 823 114 l 1,18,-1
 936 74 l 1,19,-1
 927 0 l 1,20,-1
 482 0 l 1,21,-1
 495 73 l 1,22,-1
 623 114 l 1,23,-1
 458 351 l 1,24,-1
 277 114 l 1,25,-1
 419 74 l 1,26,-1
 409 0 l 1,27,-1
 21 0 l 1,0,-1
EndSplineSet
EndChar

StartChar: y
Encoding: 121 121 92
Width: 931
GlyphClass: 2
Flags: W
LayerCount: 2
Fore
SplineSet
52 -343 m 128,-1,1
 8 -306 8 -306 8 -248 c 128,-1,2
 8 -190 8 -190 64 -141 c 1,3,4
 141 -194 141 -194 215 -194 c 0,5,6
 296 -194 296 -194 344 -128 c 0,7,8
 366 -97 366 -97 386 -49 c 2,9,-1
 406 0 l 1,10,-1
 121 758 l 1,11,-1
 -3 796 l 1,12,-1
 8 873 l 1,13,-1
 428 873 l 1,14,-1
 419 799 l 1,15,-1
 292 761 l 1,16,-1
 496 222 l 1,17,-1
 712 756 l 1,18,-1
 581 798 l 1,19,-1
 595 873 l 1,20,-1
 937 873 l 1,21,-1
 930 799 l 1,22,-1
 829 758 l 1,23,-1
 498 -53 l 2,24,25
 421 -242 421 -242 349 -311 c 128,-1,26
 277 -380 277 -380 162 -380 c 0,27,0
 96 -380 96 -380 52 -343 c 128,-1,1
EndSplineSet
EndChar

StartChar: z
Encoding: 122 122 93
Width: 818
GlyphClass: 2
Flags: W
LayerCount: 2
Fore
SplineSet
53 87 m 1,0,-1
 543 780 l 1,1,-1
 206 780 l 1,2,-1
 147 595 l 1,3,-1
 70 608 l 1,4,-1
 78 873 l 1,5,-1
 750 873 l 1,6,-1
 750 799 l 1,7,-1
 248 99 l 1,8,-1
 608 99 l 1,9,-1
 703 275 l 1,10,-1
 770 267 l 1,11,-1
 728 0 l 1,12,-1
 57 0 l 1,13,-1
 53 87 l 1,0,-1
EndSplineSet
EndChar

StartChar: braceleft
Encoding: 123 123 94
Width: 551
GlyphClass: 2
Flags: W
LayerCount: 2
Fore
SplineSet
4 389 m 1,0,-1
 4 488 l 1,1,-1
 53 497 l 1,2,3
 164 516 164 516 184 670 c 0,4,5
 192 737 192 737 193 816 c 128,-1,6
 194 895 194 895 200 972.5 c 128,-1,7
 206 1050 206 1050 224 1113.5 c 128,-1,8
 242 1177 242 1177 292.5 1216 c 128,-1,9
 343 1255 343 1255 426 1255 c 2,10,-1
 527 1255 l 1,11,-1
 518 1155 l 1,12,-1
 436 1149 l 2,13,14
 390 1145 390 1145 377 1089.5 c 128,-1,15
 364 1034 364 1034 364 921 c 2,16,-1
 364 862 l 2,17,18
 364 647 364 647 324 560 c 0,19,20
 282 469 282 469 194 445 c 1,21,-1
 194 438 l 1,22,23
 254 421 254 421 291.5 372.5 c 128,-1,24
 329 324 329 324 343 261.5 c 128,-1,25
 357 199 357 199 361.5 127 c 128,-1,26
 366 55 366 55 365.5 -14 c 128,-1,27
 365 -83 365 -83 370 -140 c 0,28,29
 380 -267 380 -267 449 -271 c 1,30,-1
 523 -277 l 1,31,-1
 531 -378 l 1,32,-1
 429 -378 l 2,33,34
 345 -378 345 -378 293.5 -338.5 c 128,-1,35
 242 -299 242 -299 223.5 -235.5 c 128,-1,36
 205 -172 205 -172 199 -94 c 128,-1,37
 193 -16 193 -16 192 63.5 c 128,-1,38
 191 143 191 143 184 210 c 0,39,40
 166 364 166 364 56 381 c 2,41,-1
 4 389 l 1,0,-1
EndSplineSet
EndChar

StartChar: bar
Encoding: 124 124 95
Width: 331
GlyphClass: 2
Flags: W
LayerCount: 2
Fore
SplineSet
109 -366 m 1,0,-1
 109 1260 l 1,1,-1
 224 1248 l 1,2,-1
 224 -380 l 1,3,-1
 109 -366 l 1,0,-1
EndSplineSet
EndChar

StartChar: braceright
Encoding: 125 125 96
Width: 553
GlyphClass: 2
Flags: W
LayerCount: 2
Fore
SplineSet
22 -378 m 1,0,-1
 31 -277 l 1,1,-1
 105 -271 l 1,2,3
 174 -267 174 -267 184 -140 c 0,4,5
 189 -83 189 -83 188.5 -14 c 128,-1,6
 188 55 188 55 192.5 127 c 128,-1,7
 197 199 197 199 211 261.5 c 128,-1,8
 225 324 225 324 262.5 372.5 c 128,-1,9
 300 421 300 421 360 438 c 1,10,-1
 360 445 l 1,11,12
 300 459 300 459 262.5 505 c 128,-1,13
 225 551 225 551 212 613 c 128,-1,14
 199 675 199 675 195 746.5 c 128,-1,15
 191 818 191 818 192 887.5 c 128,-1,16
 193 957 193 957 190 1014 c 0,17,18
 183 1143 183 1143 117 1149 c 1,19,-1
 35 1155 l 1,20,-1
 28 1255 l 1,21,-1
 129 1255 l 2,22,23
 258 1255 258 1255 308 1165 c 1,24,25
 351 1085 351 1085 356 956 c 0,26,27
 359 895 359 895 359.5 834 c 128,-1,28
 360 773 360 773 365 716 c 128,-1,29
 370 659 370 659 382 613 c 0,30,31
 410 513 410 513 500 497 c 2,32,-1
 549 488 l 1,33,-1
 549 389 l 1,34,-1
 497 381 l 2,35,36
 388 364 388 364 370 210 c 0,37,38
 362 143 362 143 361.5 63.5 c 128,-1,39
 361 -16 361 -16 355.5 -94 c 128,-1,40
 350 -172 350 -172 331.5 -235.5 c 128,-1,41
 313 -299 313 -299 261.5 -338.5 c 128,-1,42
 210 -378 210 -378 126 -378 c 2,43,-1
 22 -378 l 1,0,-1
EndSplineSet
EndChar

StartChar: asciitilde
Encoding: 126 126 97
Width: 947
GlyphClass: 2
Flags: W
LayerCount: 2
Fore
SplineSet
83 412 m 1,0,1
 88 435 88 435 109 478 c 128,-1,2
 130 521 130 521 150 547.5 c 128,-1,3
 170 574 170 574 203.5 594.5 c 128,-1,4
 237 615 237 615 274 611 c 2,5,-1
 724 566 l 1,6,7
 756 564 756 564 806 628 c 1,8,-1
 870 626 l 1,9,-1
 862 602 l 2,10,11
 822 485 822 485 745 440 c 0,12,13
 710 420 710 420 672 424 c 2,14,-1
 222 469 l 2,15,16
 204 471 204 471 183 453.5 c 128,-1,17
 162 436 162 436 150 418 c 2,18,-1
 138 399 l 1,19,-1
 83 412 l 1,0,1
EndSplineSet
EndChar

StartChar: exclamdown
Encoding: 161 161 99
Width: 387
GlyphClass: 2
Flags: W
LayerCount: 2
Fore
SplineSet
107.5 700 m 128,-1,1
 70 734 70 734 70 785 c 128,-1,2
 70 836 70 836 107 873 c 128,-1,3
 144 910 144 910 196 910 c 128,-1,4
 248 910 248 910 284 873 c 128,-1,5
 320 836 320 836 320 785 c 128,-1,6
 320 734 320 734 283 700 c 128,-1,7
 246 666 246 666 195.5 666 c 128,-1,0
 145 666 145 666 107.5 700 c 128,-1,1
162 -418 m 0,8,9
 97 -418 97 -418 97 -378 c 0,10,11
 97 -110 97 -110 151 534 c 1,12,-1
 151 540 l 1,13,-1
 240 520 l 1,14,-1
 240 517 l 1,15,16
 294 -208 294 -208 294 -375 c 2,17,-1
 294 -378 l 1,18,19
 289 -397 289 -397 243.5 -407.5 c 128,-1,20
 198 -418 198 -418 162 -418 c 0,8,9
EndSplineSet
EndChar

StartChar: cent
Encoding: 162 162 100
Width: 808
GlyphClass: 2
Flags: W
LayerCount: 2
Fore
SplineSet
536 90 m 0,0,1
 626 90 626 90 721 151 c 1,2,-1
 746 93 l 1,3,4
 709 48 709 48 634 13.5 c 128,-1,5
 559 -21 559 -21 476 -28 c 1,6,-1
 505 -250 l 1,7,-1
 357 -266 l 1,8,-1
 380 -26 l 1,9,10
 227 -5 227 -5 134 120.5 c 128,-1,11
 41 246 41 246 41 423.5 c 128,-1,12
 41 601 41 601 138 743.5 c 128,-1,13
 235 886 235 886 375 927 c 1,14,-1
 347 1154 l 1,15,-1
 493 1171 l 1,16,-1
 472 940 l 1,17,18
 587 939 587 939 647 894.5 c 128,-1,19
 707 850 707 850 707 796 c 0,20,21
 707 691 707 691 581 683 c 1,22,23
 532 800 532 800 476 831 c 0,24,25
 450 846 450 846 419 846 c 0,26,27
 332 846 332 846 277 746.5 c 128,-1,28
 222 647 222 647 222 507 c 0,29,30
 222 369 222 369 292 236 c 0,31,32
 369 90 369 90 536 90 c 0,0,1
EndSplineSet
EndChar

StartChar: sterling
Encoding: 163 163 101
Width: 1113
GlyphClass: 2
Flags: W
LayerCount: 2
Fore
SplineSet
43 0 m 1,0,-1
 50 74 l 1,1,-1
 218 121 l 1,2,3
 240 191 240 191 247 264 c 128,-1,4
 254 337 254 337 257 461 c 1,5,-1
 260 549 l 1,6,-1
 80 538 l 1,7,-1
 92 639 l 1,8,-1
 263 649 l 1,9,-1
 266 786 l 1,10,11
 273 1018 273 1018 383.5 1134 c 128,-1,12
 494 1250 494 1250 673 1250 c 0,13,14
 813 1250 813 1250 906 1211 c 1,15,-1
 875 895 l 1,16,-1
 789 907 l 1,17,-1
 748 1121 l 1,18,19
 706 1143 706 1143 659 1143 c 128,-1,20
 612 1143 612 1143 578 1128.5 c 128,-1,21
 544 1114 544 1114 520.5 1085 c 128,-1,22
 497 1056 497 1056 484 1001 c 0,23,24
 462 901 462 901 458 703 c 1,25,-1
 458 655 l 1,26,-1
 676 669 l 1,27,-1
 666 568 l 1,28,-1
 455 555 l 1,29,-1
 454 515 l 2,30,31
 446 209 446 209 393 99 c 1,32,-1
 853 96 l 1,33,-1
 984 349 l 1,34,-1
 1070 331 l 1,35,-1
 1032 0 l 1,36,-1
 43 0 l 1,0,-1
EndSplineSet
EndChar

StartChar: currency
Encoding: 164 164 102
Width: 763
GlyphClass: 2
Flags: W
LayerCount: 2
Fore
SplineSet
268 621.5 m 128,-1,1
 225 573 225 573 225 493 c 128,-1,2
 225 413 225 413 268.5 363 c 128,-1,3
 312 313 312 313 382.5 313 c 128,-1,4
 453 313 453 313 497 361 c 128,-1,5
 541 409 541 409 541 489.5 c 128,-1,6
 541 570 541 570 497 620 c 128,-1,7
 453 670 453 670 382 670 c 128,-1,0
 311 670 311 670 268 621.5 c 128,-1,1
230 709 m 1,8,9
 300 768 300 768 387 768 c 128,-1,10
 474 768 474 768 541 718 c 1,11,-1
 618 798 l 1,12,-1
 694 709 l 1,13,-1
 611 636 l 1,14,15
 647 573 647 573 647 487 c 128,-1,16
 647 401 647 401 604 342 c 1,17,-1
 697 256 l 1,18,-1
 611 174 l 1,19,-1
 531 264 l 1,20,21
 454 217 454 217 381.5 217 c 128,-1,22
 309 217 309 217 242 257 c 1,23,-1
 165 168 l 1,24,-1
 80 254 l 1,25,-1
 165 332 l 1,26,27
 120 399 120 399 120 483 c 128,-1,28
 120 567 120 567 159 628 c 1,29,-1
 68 713 l 1,30,-1
 153 796 l 1,31,-1
 230 709 l 1,8,9
EndSplineSet
EndChar

StartChar: yen
Encoding: 165 165 103
Width: 1097
GlyphClass: 2
Flags: W
LayerCount: 2
Fore
SplineSet
42 1168 m 1,0,-1
 55 1244 l 1,1,-1
 515 1244 l 1,2,-1
 504 1168 l 1,3,-1
 371 1130 l 1,4,-1
 589 636 l 1,5,-1
 806 1126 l 1,6,-1
 649 1168 l 1,7,-1
 658 1244 l 1,8,-1
 1054 1244 l 1,9,-1
 1045 1168 l 1,10,-1
 921 1130 l 1,11,-1
 667 578 l 1,12,-1
 968 578 l 1,13,-1
 957 480 l 1,14,-1
 640 480 l 1,15,-1
 640 338 l 1,16,-1
 964 338 l 1,17,-1
 953 240 l 1,18,-1
 640 240 l 1,19,-1
 640 113 l 1,20,-1
 804 78 l 1,21,-1
 794 0 l 1,22,-1
 294 0 l 1,23,-1
 304 71 l 1,24,-1
 453 119 l 1,25,-1
 453 240 l 1,26,-1
 143 240 l 1,27,-1
 155 338 l 1,28,-1
 453 338 l 1,29,-1
 453 480 l 1,30,-1
 147 480 l 1,31,-1
 159 578 l 1,32,-1
 426 578 l 1,33,-1
 178 1126 l 1,34,-1
 42 1168 l 1,0,-1
EndSplineSet
EndChar

StartChar: brokenbar
Encoding: 166 166 104
Width: 335
GlyphClass: 2
Flags: W
LayerCount: 2
Fore
SplineSet
109 540 m 1,0,-1
 109 1260 l 1,1,-1
 227 1248 l 1,2,-1
 225 529 l 1,3,-1
 109 540 l 1,0,-1
109 -366 m 1,4,-1
 109 423 l 1,5,-1
 228 411 l 1,6,-1
 228 -380 l 1,7,-1
 109 -366 l 1,4,-1
EndSplineSet
EndChar

StartChar: section
Encoding: 167 167 105
Width: 889
GlyphClass: 2
Flags: W
LayerCount: 2
Fore
SplineSet
83 916 m 0,0,1
 83 1025 83 1025 140 1107 c 0,2,3
 251 1269 251 1269 470 1269 c 0,4,5
 633 1269 633 1269 753 1169 c 1,6,-1
 731 887 l 1,7,-1
 632 899 l 1,8,-1
 606 1090 l 1,9,10
 590 1122 590 1122 541.5 1153.5 c 128,-1,11
 493 1185 493 1185 425.5 1185 c 128,-1,12
 358 1185 358 1185 306 1136.5 c 128,-1,13
 254 1088 254 1088 254 1011.5 c 128,-1,14
 254 935 254 935 289.5 886 c 128,-1,15
 325 837 325 837 381 801.5 c 128,-1,16
 437 766 437 766 504 732 c 128,-1,17
 571 698 571 698 635 659 c 128,-1,18
 699 620 699 620 749 574 c 0,19,20
 862 468 862 468 835 300 c 1,21,-1
 429 527 l 2,22,23
 292 604 292 604 253 631 c 0,24,25
 83 750 83 750 83 916 c 0,0,1
55 -236 m 1,26,-1
 68 31 l 1,27,-1
 172 16 l 1,28,-1
 209 -172 l 1,29,30
 238 -218 238 -218 293.5 -250 c 128,-1,31
 349 -282 349 -282 410 -282 c 128,-1,32
 471 -282 471 -282 523.5 -261 c 128,-1,33
 576 -240 576 -240 614.5 -190.5 c 128,-1,34
 653 -141 653 -141 653 -79.5 c 128,-1,35
 653 -18 653 -18 618 27.5 c 128,-1,36
 583 73 583 73 528.5 107.5 c 128,-1,37
 474 142 474 142 408 176 c 128,-1,38
 342 210 342 210 279.5 249.5 c 128,-1,39
 217 289 217 289 168 336 c 0,40,41
 57 441 57 441 83 606 c 1,42,43
 464 392 464 392 506 370 c 2,44,-1
 574 334 l 1,45,46
 743 246 743 246 799 145 c 0,47,48
 836 78 836 78 836 -18.5 c 128,-1,49
 836 -115 836 -115 772.5 -203 c 128,-1,50
 709 -291 709 -291 608.5 -337 c 128,-1,51
 508 -383 508 -383 399 -383 c 128,-1,52
 290 -383 290 -383 198 -341 c 128,-1,53
 106 -299 106 -299 55 -236 c 1,26,-1
EndSplineSet
EndChar

StartChar: dieresis
Encoding: 168 168 106
Width: 623
GlyphClass: 2
Flags: W
LayerCount: 2
Fore
SplineSet
385.5 1406.5 m 128,-1,1
 360 1430 360 1430 360 1464 c 128,-1,2
 360 1498 360 1498 386.5 1520 c 128,-1,3
 413 1542 413 1542 446 1542 c 128,-1,4
 479 1542 479 1542 505.5 1520 c 128,-1,5
 532 1498 532 1498 532 1464 c 128,-1,6
 532 1430 532 1430 505.5 1406.5 c 128,-1,7
 479 1383 479 1383 445 1383 c 128,-1,0
 411 1383 411 1383 385.5 1406.5 c 128,-1,1
117.5 1406.5 m 128,-1,9
 92 1430 92 1430 92 1464 c 128,-1,10
 92 1498 92 1498 118.5 1520 c 128,-1,11
 145 1542 145 1542 178 1542 c 128,-1,12
 211 1542 211 1542 237 1520 c 128,-1,13
 263 1498 263 1498 263 1463.5 c 128,-1,14
 263 1429 263 1429 237 1406 c 128,-1,15
 211 1383 211 1383 177 1383 c 128,-1,8
 143 1383 143 1383 117.5 1406.5 c 128,-1,9
EndSplineSet
EndChar

StartChar: copyright
Encoding: 169 169 107
Width: 1377
GlyphClass: 2
Flags: W
LayerCount: 2
Fore
SplineSet
706 1056 m 0,0,1
 806 1056 806 1056 858.5 1018.5 c 128,-1,2
 911 981 911 981 911 934 c 0,3,4
 911 845 911 845 803 837 c 1,5,6
 762 937 762 937 714 964 c 0,7,8
 692 976 692 976 666 976 c 0,9,10
 590 976 590 976 544 906.5 c 128,-1,11
 498 837 498 837 498 722 c 0,12,13
 498 602 498 602 558 492 c 0,14,15
 587 438 587 438 637.5 403 c 128,-1,16
 688 368 688 368 766 368 c 128,-1,17
 844 368 844 368 922 419 c 1,18,-1
 944 370 l 1,19,20
 909 328 909 328 834 297 c 128,-1,21
 759 266 759 266 680 266 c 0,22,23
 531 266 531 266 437.5 376 c 128,-1,24
 344 486 344 486 344 658.5 c 128,-1,25
 344 831 344 831 454.5 943.5 c 128,-1,26
 565 1056 565 1056 706 1056 c 0,0,1
176 657 m 0,27,28
 176 411 176 411 318.5 251.5 c 128,-1,29
 461 92 461 92 683 92 c 0,30,31
 790 92 790 92 886 133.5 c 128,-1,32
 982 175 982 175 1052 247 c 128,-1,33
 1122 319 1122 319 1163.5 421.5 c 128,-1,34
 1205 524 1205 524 1205 663.5 c 128,-1,35
 1205 803 1205 803 1145.5 932.5 c 128,-1,36
 1086 1062 1086 1062 966.5 1139.5 c 128,-1,37
 847 1217 847 1217 695 1217 c 128,-1,38
 543 1217 543 1217 425.5 1140.5 c 128,-1,39
 308 1064 308 1064 242 935.5 c 128,-1,40
 176 807 176 807 176 657 c 0,27,28
53 645 m 128,-1,42
 53 831 53 831 140 987 c 128,-1,43
 227 1143 227 1143 372 1231.5 c 128,-1,44
 517 1320 517 1320 697 1320 c 128,-1,45
 877 1320 877 1320 1024.5 1232.5 c 128,-1,46
 1172 1145 1172 1145 1249.5 993 c 128,-1,47
 1327 841 1327 841 1327 679 c 128,-1,48
 1327 517 1327 517 1276 395 c 128,-1,49
 1225 273 1225 273 1138.5 183 c 128,-1,50
 1052 93 1052 93 930.5 39 c 128,-1,51
 809 -15 809 -15 652 -15 c 128,-1,52
 495 -15 495 -15 352.5 71.5 c 128,-1,53
 210 158 210 158 131.5 308.5 c 128,-1,41
 53 459 53 459 53 645 c 128,-1,42
EndSplineSet
EndChar

StartChar: ordfeminine
Encoding: 170 170 108
Width: 830
GlyphClass: 2
Flags: W
LayerCount: 2
Fore
SplineSet
339.5 814.5 m 128,-1,1
 293 776 293 776 293 728 c 0,2,3
 293 627 293 627 379 627 c 0,4,5
 407 627 407 627 432 640 c 128,-1,6
 457 653 457 653 465 661 c 128,-1,7
 473 669 473 669 496 694 c 1,8,-1
 496 873 l 1,9,0
 386 853 386 853 339.5 814.5 c 128,-1,1
173 556 m 128,-1,11
 125 597 125 597 125 656.5 c 128,-1,12
 125 716 125 716 144 760 c 128,-1,13
 163 804 163 804 204 844 c 0,14,15
 293 932 293 932 496 932 c 1,16,-1
 496 966 l 2,17,18
 496 1121 496 1121 446 1154 c 0,19,20
 423 1170 423 1170 379.5 1170 c 128,-1,21
 336 1170 336 1170 319 1129.5 c 128,-1,22
 302 1089 302 1089 292 978 c 1,23,24
 231 972 231 972 192.5 1004.5 c 128,-1,25
 154 1037 154 1037 154 1099 c 128,-1,26
 154 1161 154 1161 251 1207.5 c 128,-1,27
 348 1254 348 1254 452 1254 c 128,-1,28
 556 1254 556 1254 605 1195 c 128,-1,29
 654 1136 654 1136 654 1008 c 2,30,-1
 654 748 l 2,31,32
 654 692 654 692 673.5 668.5 c 128,-1,33
 693 645 693 645 749 635 c 2,34,-1
 792 628 l 1,35,-1
 781 566 l 1,36,37
 751 539 751 539 727 529.5 c 128,-1,38
 703 520 703 520 649.5 520 c 128,-1,39
 596 520 596 520 555 553.5 c 128,-1,40
 514 587 514 587 514 627 c 2,41,-1
 514 639 l 1,42,-1
 504 639 l 1,43,44
 436 515 436 515 291 515 c 0,45,10
 221 515 221 515 173 556 c 128,-1,11
EndSplineSet
EndChar

StartChar: guillemotleft
Encoding: 171 171 109
Width: 643
GlyphClass: 2
Flags: W
LayerCount: 2
Fore
SplineSet
270 469 m 1,0,-1
 538 820 l 1,1,-1
 583 761 l 1,2,-1
 418 461 l 1,3,-1
 586 141 l 1,4,-1
 534 77 l 1,5,-1
 271 449 l 1,6,-1
 270 469 l 1,0,-1
23 469 m 1,7,-1
 292 820 l 1,8,-1
 335 761 l 1,9,-1
 171 461 l 1,10,-1
 338 141 l 1,11,-1
 286 77 l 1,12,-1
 24 449 l 1,13,-1
 23 469 l 1,7,-1
EndSplineSet
EndChar

StartChar: logicalnot
Encoding: 172 172 110
Width: 910
GlyphClass: 2
Flags: W
LayerCount: 2
Fore
SplineSet
74 559 m 1,0,-1
 86 663 l 1,1,-1
 830 663 l 1,2,-1
 832 351 l 1,3,-1
 726 332 l 1,4,-1
 726 559 l 1,5,-1
 74 559 l 1,0,-1
EndSplineSet
EndChar

StartChar: uni00AD
Encoding: 173 173 111
Width: 580
GlyphClass: 2
Flags: W
LayerCount: 2
Fore
SplineSet
85 406 m 1,0,-1
 92 521 l 1,1,-1
 500 581 l 1,2,-1
 492 465 l 1,3,-1
 85 406 l 1,0,-1
EndSplineSet
EndChar

StartChar: registered
Encoding: 174 174 112
Width: 1257
GlyphClass: 2
Flags: W
LayerCount: 2
Fore
SplineSet
370.5 1337.5 m 128,-1,1
 261 1229 261 1229 261 1037 c 128,-1,2
 261 845 261 845 371.5 730.5 c 128,-1,3
 482 616 482 616 652.5 616 c 128,-1,4
 823 616 823 616 941 730 c 128,-1,5
 1059 844 1059 844 1059 1027 c 128,-1,6
 1059 1210 1059 1210 942.5 1328 c 128,-1,7
 826 1446 826 1446 653 1446 c 128,-1,0
 480 1446 480 1446 370.5 1337.5 c 128,-1,1
173 1022 m 0,8,9
 173 1256 173 1256 308.5 1389 c 128,-1,10
 444 1522 444 1522 652 1522 c 0,11,12
 864 1522 864 1522 1002 1397 c 0,13,14
 1147 1266 1147 1266 1147 1026 c 0,15,16
 1147 875 1147 875 1079 763.5 c 128,-1,17
 1011 652 1011 652 897.5 596 c 128,-1,18
 784 540 784 540 647.5 540 c 128,-1,19
 511 540 511 540 405 597.5 c 128,-1,20
 299 655 299 655 236 766 c 128,-1,21
 173 877 173 877 173 1022 c 0,8,9
621 1272 m 1,22,-1
 587 1270 l 1,23,-1
 587 1068 l 1,24,-1
 666 1068 l 1,25,26
 737 1098 737 1098 737 1170 c 0,27,28
 737 1217 737 1217 706.5 1244.5 c 128,-1,29
 676 1272 676 1272 621 1272 c 1,22,-1
373 777 m 1,30,-1
 380 825 l 1,31,-1
 460 853 l 1,32,-1
 460 1248 l 1,33,-1
 379 1266 l 1,34,-1
 384 1319 l 1,35,36
 529 1341 529 1341 639.5 1341 c 128,-1,37
 750 1341 750 1341 812 1307.5 c 128,-1,38
 874 1274 874 1274 874 1194 c 0,39,40
 874 1142 874 1142 837 1093.5 c 128,-1,41
 800 1045 800 1045 749 1028 c 1,42,-1
 748 1026 l 1,43,-1
 826 935 l 2,44,45
 863 892 863 892 885 874 c 0,46,47
 910 853 910 853 962 832 c 1,48,-1
 951 777 l 1,49,50
 916 766 916 766 861 766 c 128,-1,51
 806 766 806 766 767.5 802 c 128,-1,52
 729 838 729 838 687 918 c 2,53,-1
 643 1001 l 1,54,-1
 587 1001 l 1,55,-1
 587 857 l 1,56,-1
 661 830 l 1,57,-1
 656 777 l 1,58,-1
 373 777 l 1,30,-1
EndSplineSet
EndChar

StartChar: macron
Encoding: 175 175 113
Width: 637
GlyphClass: 2
Flags: W
LayerCount: 2
Fore
SplineSet
92 1379 m 1,0,-1
 105 1479 l 1,1,-1
 547 1479 l 1,2,-1
 534 1379 l 1,3,-1
 92 1379 l 1,0,-1
EndSplineSet
EndChar

StartChar: degree
Encoding: 176 176 114
Width: 424
GlyphClass: 2
Flags: W
LayerCount: 2
Fore
SplineSet
145 1205.5 m 128,-1,1
 123 1174 123 1174 123 1126 c 128,-1,2
 123 1078 123 1078 148.5 1036.5 c 128,-1,3
 174 995 174 995 219 995 c 0,4,5
 304 995 304 995 304 1105 c 0,6,7
 304 1156 304 1156 278.5 1196.5 c 128,-1,8
 253 1237 253 1237 210 1237 c 128,-1,0
 167 1237 167 1237 145 1205.5 c 128,-1,1
77.5 974.5 m 128,-1,10
 32 1021 32 1021 32 1103.5 c 128,-1,11
 32 1186 32 1186 88.5 1245 c 128,-1,12
 145 1304 145 1304 227.5 1304 c 128,-1,13
 310 1304 310 1304 353 1258 c 128,-1,14
 396 1212 396 1212 396 1127.5 c 128,-1,15
 396 1043 396 1043 339 985.5 c 128,-1,16
 282 928 282 928 202.5 928 c 128,-1,9
 123 928 123 928 77.5 974.5 c 128,-1,10
EndSplineSet
EndChar

StartChar: plusminus
Encoding: 177 177 115
Width: 737
GlyphClass: 2
Flags: W
LayerCount: 2
Fore
SplineSet
83 475 m 1,0,-1
 95 575 l 1,1,-1
 304 575 l 1,2,-1
 304 807 l 1,3,-1
 412 795 l 1,4,-1
 414 575 l 1,5,-1
 633 575 l 1,6,-1
 621 475 l 1,7,-1
 414 475 l 1,8,-1
 415 240 l 1,9,-1
 304 251 l 1,10,-1
 304 475 l 1,11,-1
 83 475 l 1,0,-1
58 13 m 1,12,-1
 74 117 l 1,13,-1
 686 123 l 1,14,-1
 670 19 l 1,15,-1
 58 13 l 1,12,-1
EndSplineSet
EndChar

StartChar: uni00B2
Encoding: 178 178 116
Width: 622
GlyphClass: 2
Flags: W
LayerCount: 2
Fore
SplineSet
35 638 m 1,0,-1
 190 761 l 1,1,2
 373 911 373 911 373 1005 c 0,3,4
 373 1111 373 1111 320 1140 c 0,5,6
 298 1153 298 1153 263 1153 c 128,-1,7
 228 1153 228 1153 200 1136.5 c 128,-1,8
 172 1120 172 1120 160 1095 c 1,9,-1
 138 966 l 1,10,-1
 70 971 l 1,11,-1
 55 1141 l 1,12,13
 84 1195 84 1195 164.5 1226 c 128,-1,14
 245 1257 245 1257 344 1257 c 128,-1,15
 443 1257 443 1257 506 1208.5 c 128,-1,16
 569 1160 569 1160 569 1071 c 0,17,18
 569 961 569 961 473 865 c 0,19,20
 392 784 392 784 258 696 c 2,21,-1
 191 652 l 1,22,-1
 461 652 l 1,23,-1
 540 805 l 1,24,-1
 597 784 l 1,25,-1
 578 531 l 1,26,-1
 27 531 l 1,27,-1
 35 638 l 1,0,-1
EndSplineSet
EndChar

StartChar: uni00B3
Encoding: 179 179 117
Width: 635
GlyphClass: 2
Flags: W
LayerCount: 2
Fore
SplineSet
21 563 m 1,0,-1
 51 762 l 1,1,-1
 126 754 l 1,2,-1
 134 619 l 1,3,4
 168 579 168 579 235.5 579 c 128,-1,5
 303 579 303 579 343.5 617 c 128,-1,6
 384 655 384 655 384 714 c 128,-1,7
 384 773 384 773 326.5 811 c 128,-1,8
 269 849 269 849 180 849 c 1,9,-1
 164 908 l 1,10,11
 348 966 348 966 348 1070 c 0,12,13
 348 1117 348 1117 320 1153 c 128,-1,14
 292 1189 292 1189 237 1189 c 128,-1,15
 182 1189 182 1189 158 1167 c 1,16,-1
 134 1010 l 1,17,-1
 58 1016 l 1,18,-1
 46 1187 l 1,19,20
 70 1221 70 1221 145 1250 c 128,-1,21
 220 1279 220 1279 310 1279 c 128,-1,22
 400 1279 400 1279 467.5 1236.5 c 128,-1,23
 535 1194 535 1194 535 1117 c 0,24,25
 535 979 535 979 356 927 c 1,26,-1
 356 920 l 1,27,28
 464 909 464 909 519 861.5 c 128,-1,29
 574 814 574 814 574 724.5 c 128,-1,30
 574 635 574 635 472.5 565 c 128,-1,31
 371 495 371 495 229 495 c 0,32,33
 155 495 155 495 95.5 513.5 c 128,-1,34
 36 532 36 532 21 563 c 1,0,-1
EndSplineSet
EndChar

StartChar: acute
Encoding: 180 180 118
Width: 520
GlyphClass: 2
Flags: W
LayerCount: 2
Fore
SplineSet
172 1380 m 1,0,-1
 295 1705 l 1,1,-1
 406 1666 l 1,2,-1
 223 1348 l 1,3,-1
 172 1380 l 1,0,-1
EndSplineSet
EndChar

StartChar: paragraph
Encoding: 182 182 119
Width: 1289
GlyphClass: 2
Flags: W
LayerCount: 2
Fore
SplineSet
912 0 m 1,0,-1
 912 1245 l 1,1,-1
 1232 1245 l 1,2,-1
 1223 1168 l 1,3,-1
 1053 1130 l 1,4,-1
 1053 114 l 1,5,-1
 1234 80 l 1,6,-1
 1224 0 l 1,7,-1
 912 0 l 1,0,-1
44 828 m 0,8,9
 44 1004 44 1004 173.5 1124.5 c 128,-1,10
 303 1245 303 1245 487 1245 c 2,11,-1
 833 1245 l 1,12,-1
 833 0 l 1,13,-1
 427 0 l 1,14,-1
 434 74 l 1,15,-1
 675 121 l 1,16,-1
 675 1152 l 1,17,18
 595 1154 595 1154 568 1154 c 0,19,20
 410 1154 410 1154 329.5 1077 c 128,-1,21
 249 1000 249 1000 249 862.5 c 128,-1,22
 249 725 249 725 328 635.5 c 128,-1,23
 407 546 407 546 562 546 c 1,24,-1
 544 448 l 1,25,26
 334 448 334 448 197 528 c 0,27,28
 44 617 44 617 44 828 c 0,8,9
EndSplineSet
EndChar

StartChar: periodcentered
Encoding: 183 183 120
Width: 406
GlyphClass: 2
Flags: W
LayerCount: 2
Fore
SplineSet
118.5 417.5 m 128,-1,1
 83 454 83 454 83 502.5 c 128,-1,2
 83 551 83 551 118.5 584.5 c 128,-1,3
 154 618 154 618 203.5 618 c 128,-1,4
 253 618 253 618 289 585 c 128,-1,5
 325 552 325 552 325 503 c 128,-1,6
 325 454 325 454 289 417.5 c 128,-1,7
 253 381 253 381 203.5 381 c 128,-1,0
 154 381 154 381 118.5 417.5 c 128,-1,1
EndSplineSet
EndChar

StartChar: cedilla
Encoding: 184 184 121
Width: 341
GlyphClass: 2
Flags: W
LayerCount: 2
Fore
SplineSet
62 -331 m 1,0,1
 103 -317 103 -317 125.5 -294.5 c 128,-1,2
 148 -272 148 -272 148 -240 c 128,-1,3
 148 -208 148 -208 74 -138 c 1,4,-1
 172 3 l 1,5,-1
 246 3 l 1,6,-1
 193 -76 l 1,7,8
 282 -155 282 -155 282 -227 c 0,9,10
 282 -330 282 -330 81 -389 c 1,11,-1
 62 -331 l 1,0,1
EndSplineSet
EndChar

StartChar: uni00B9
Encoding: 185 185 122
Width: 512
GlyphClass: 2
Flags: W
LayerCount: 2
Fore
SplineSet
23 531 m 1,0,-1
 27 605 l 1,1,-1
 180 630 l 1,2,-1
 180 1122 l 1,3,-1
 35 1122 l 1,4,-1
 39 1199 l 1,5,-1
 341 1245 l 1,6,-1
 360 1245 l 1,7,-1
 360 627 l 1,8,-1
 512 614 l 1,9,-1
 506 531 l 1,10,-1
 23 531 l 1,0,-1
EndSplineSet
EndChar

StartChar: ordmasculine
Encoding: 186 186 123
Width: 934
GlyphClass: 2
Flags: W
LayerCount: 2
Fore
SplineSet
496 592 m 0,0,1
 549 592 549 592 586 628 c 0,2,3
 648 688 648 688 648 823 c 0,4,5
 648 957 648 957 618 1034 c 128,-1,6
 588 1111 588 1111 547 1142.5 c 128,-1,7
 506 1174 506 1174 448 1174 c 0,8,9
 286 1174 286 1174 286 926 c 0,10,11
 286 592 286 592 496 592 c 0,0,1
207 615.5 m 128,-1,13
 114 717 114 717 114 883.5 c 128,-1,14
 114 1050 114 1050 223.5 1154 c 128,-1,15
 333 1258 333 1258 486 1258 c 128,-1,16
 639 1258 639 1258 729.5 1156.5 c 128,-1,17
 820 1055 820 1055 820 889 c 128,-1,18
 820 723 820 723 717.5 618.5 c 128,-1,19
 615 514 615 514 457.5 514 c 128,-1,12
 300 514 300 514 207 615.5 c 128,-1,13
EndSplineSet
EndChar

StartChar: guillemotright
Encoding: 187 187 124
Width: 645
GlyphClass: 2
Flags: W
LayerCount: 2
Fore
SplineSet
308 141 m 1,0,-1
 476 461 l 1,1,-1
 311 761 l 1,2,-1
 355 820 l 1,3,-1
 623 469 l 1,4,-1
 621 449 l 1,5,-1
 360 77 l 1,6,-1
 308 141 l 1,0,-1
61 141 m 1,7,-1
 228 461 l 1,8,-1
 64 761 l 1,9,-1
 108 820 l 1,10,-1
 376 469 l 1,11,-1
 374 449 l 1,12,-1
 113 77 l 1,13,-1
 61 141 l 1,7,-1
EndSplineSet
EndChar

StartChar: onequarter
Encoding: 188 188 125
Width: 1736
GlyphClass: 2
Flags: W
LayerCount: 2
Fore
SplineSet
159 -10 m 1,0,-1
 566 588 l 1,1,-1
 957 1210 l 1,2,-1
 1133 1207 l 1,3,-1
 1131 1178 l 1,4,-1
 730 591 l 1,5,-1
 359 -32 l 1,6,-1
 159 -10 l 1,0,-1
-52 531 m 1,7,-1
 -48 605 l 1,8,-1
 105 630 l 1,9,-1
 105 1122 l 1,10,-1
 -40 1122 l 1,11,-1
 -36 1199 l 1,12,-1
 266 1245 l 1,13,-1
 285 1245 l 1,14,-1
 285 627 l 1,15,-1
 437 614 l 1,16,-1
 431 531 l 1,17,-1
 -52 531 l 1,7,-1
800 272 m 1,18,-1
 990 272 l 1,19,-1
 990 508 l 1,20,-1
 800 272 l 1,18,-1
693 270 m 1,21,-1
 1103 737 l 1,22,-1
 1160 726 l 1,23,24
 1151 598 1151 598 1151 430 c 2,25,-1
 1151 272 l 1,26,-1
 1299 272 l 1,27,-1
 1290 175 l 1,28,-1
 1151 175 l 1,29,-1
 1151 83 l 1,30,-1
 1272 65 l 1,31,-1
 1266 0 l 1,32,-1
 852 0 l 1,33,-1
 856 58 l 1,34,-1
 993 85 l 1,35,-1
 993 178 l 1,36,-1
 706 178 l 1,37,-1
 693 270 l 1,21,-1
EndSplineSet
EndChar

StartChar: onehalf
Encoding: 189 189 126
Width: 1736
GlyphClass: 2
Flags: W
LayerCount: 2
Fore
SplineSet
139 -10 m 1,0,-1
 546 588 l 1,1,-1
 937 1210 l 1,2,-1
 1113 1207 l 1,3,-1
 1111 1178 l 1,4,-1
 710 591 l 1,5,-1
 339 -32 l 1,6,-1
 139 -10 l 1,0,-1
-52 531 m 1,7,-1
 -48 605 l 1,8,-1
 105 630 l 1,9,-1
 105 1122 l 1,10,-1
 -40 1122 l 1,11,-1
 -36 1199 l 1,12,-1
 266 1245 l 1,13,-1
 285 1245 l 1,14,-1
 285 627 l 1,15,-1
 437 614 l 1,16,-1
 431 531 l 1,17,-1
 -52 531 l 1,7,-1
792 109 m 1,18,-1
 947 232 l 1,19,20
 1130 382 1130 382 1130 476 c 0,21,22
 1130 582 1130 582 1078 612 c 1,23,24
 1055 624 1055 624 1020 624 c 128,-1,25
 985 624 985 624 957 607.5 c 128,-1,26
 929 591 929 591 917 566 c 1,27,-1
 895 437 l 1,28,-1
 827 442 l 1,29,-1
 812 612 l 1,30,31
 841 666 841 666 921.5 697 c 128,-1,32
 1002 728 1002 728 1101 728 c 128,-1,33
 1200 728 1200 728 1263 679.5 c 128,-1,34
 1326 631 1326 631 1326 542 c 0,35,36
 1326 432 1326 432 1230 336 c 0,37,38
 1149 255 1149 255 1015 167 c 2,39,-1
 948 123 l 1,40,-1
 1218 123 l 1,41,-1
 1297 276 l 1,42,-1
 1354 255 l 1,43,-1
 1335 2 l 1,44,-1
 784 2 l 1,45,-1
 792 109 l 1,18,-1
EndSplineSet
EndChar

StartChar: threequarters
Encoding: 190 190 127
Width: 1736
GlyphClass: 2
Flags: W
LayerCount: 2
Fore
SplineSet
800 272 m 1,0,-1
 990 272 l 1,1,-1
 990 508 l 1,2,-1
 800 272 l 1,0,-1
693 270 m 1,3,-1
 1103 737 l 1,4,-1
 1160 726 l 1,5,6
 1151 598 1151 598 1151 430 c 2,7,-1
 1151 272 l 1,8,-1
 1299 272 l 1,9,-1
 1290 175 l 1,10,-1
 1151 175 l 1,11,-1
 1151 83 l 1,12,-1
 1272 65 l 1,13,-1
 1266 0 l 1,14,-1
 852 0 l 1,15,-1
 856 58 l 1,16,-1
 993 85 l 1,17,-1
 993 178 l 1,18,-1
 706 178 l 1,19,-1
 693 270 l 1,3,-1
173 -10 m 1,20,-1
 580 588 l 1,21,-1
 971 1210 l 1,22,-1
 1147 1207 l 1,23,-1
 1145 1178 l 1,24,-1
 744 591 l 1,25,-1
 373 -32 l 1,26,-1
 173 -10 l 1,20,-1
-31 546 m 1,27,-1
 -1 745 l 1,28,-1
 74 737 l 1,29,-1
 82 602 l 1,30,31
 116 562 116 562 183.5 562 c 128,-1,32
 251 562 251 562 291.5 600 c 128,-1,33
 332 638 332 638 332 697 c 128,-1,34
 332 756 332 756 274.5 794 c 128,-1,35
 217 832 217 832 128 832 c 1,36,-1
 112 891 l 1,37,38
 240 929 240 929 281 1000 c 0,39,40
 296 1025 296 1025 296 1062.5 c 128,-1,41
 296 1100 296 1100 268 1136 c 128,-1,42
 240 1172 240 1172 185 1172 c 128,-1,43
 130 1172 130 1172 106 1150 c 1,44,-1
 82 993 l 1,45,-1
 6 999 l 1,46,-1
 -6 1170 l 1,47,48
 18 1204 18 1204 93 1233 c 128,-1,49
 168 1262 168 1262 258 1262 c 128,-1,50
 348 1262 348 1262 415.5 1219.5 c 128,-1,51
 483 1177 483 1177 483 1100 c 0,52,53
 483 962 483 962 304 910 c 1,54,-1
 304 903 l 1,55,56
 412 892 412 892 467 844.5 c 128,-1,57
 522 797 522 797 522 707.5 c 128,-1,58
 522 618 522 618 420.5 548 c 128,-1,59
 319 478 319 478 177 478 c 0,60,61
 103 478 103 478 43.5 496.5 c 128,-1,62
 -16 515 -16 515 -31 546 c 1,27,-1
EndSplineSet
EndChar

StartChar: questiondown
Encoding: 191 191 128
Width: 636
GlyphClass: 2
Flags: W
LayerCount: 2
Fore
SplineSet
270.5 725 m 128,-1,1
 233 760 233 760 233 811 c 128,-1,2
 233 862 233 862 269.5 899 c 128,-1,3
 306 936 306 936 358.5 936 c 128,-1,4
 411 936 411 936 446.5 898 c 128,-1,5
 482 860 482 860 482 808.5 c 128,-1,6
 482 757 482 757 445.5 723.5 c 128,-1,7
 409 690 409 690 358.5 690 c 128,-1,0
 308 690 308 690 270.5 725 c 128,-1,1
84.5 -133.5 m 128,-1,9
 53 -52 53 -52 53 22 c 128,-1,10
 53 96 53 96 74.5 138 c 128,-1,11
 96 180 96 180 128 203.5 c 128,-1,12
 160 227 160 227 197 249 c 128,-1,13
 234 271 234 271 266 287 c 0,14,15
 341 324 341 324 341 384.5 c 128,-1,16
 341 445 341 445 319 517 c 1,17,-1
 393 534 l 1,18,19
 420 495 420 495 445 431.5 c 128,-1,20
 470 368 470 368 470 318.5 c 128,-1,21
 470 269 470 269 453 235 c 128,-1,22
 436 201 436 201 409 181 c 128,-1,23
 382 161 382 161 349.5 145.5 c 128,-1,24
 317 130 317 130 284.5 114.5 c 128,-1,25
 252 99 252 99 225 81 c 0,26,27
 164 40 164 40 164 -32 c 128,-1,28
 164 -104 164 -104 221.5 -158.5 c 128,-1,29
 279 -213 279 -213 328 -213 c 0,30,31
 453 -213 453 -213 519 -142 c 1,32,33
 547 -153 547 -153 570 -184 c 128,-1,34
 593 -215 593 -215 593 -259.5 c 128,-1,35
 593 -304 593 -304 547 -346 c 128,-1,36
 501 -388 501 -388 419.5 -388 c 128,-1,37
 338 -388 338 -388 277 -356 c 128,-1,38
 216 -324 216 -324 166 -269.5 c 128,-1,8
 116 -215 116 -215 84.5 -133.5 c 128,-1,9
EndSplineSet
EndChar

StartChar: Agrave
Encoding: 192 192 129
Width: 1234
GlyphClass: 2
Flags: W
LayerCount: 2
Fore
SplineSet
436 1664 m 1,0,-1
 552 1702 l 1,1,-1
 684 1368 l 1,2,-1
 627 1334 l 1,3,-1
 436 1664 l 1,0,-1
406 534 m 1,4,-1
 758 534 l 1,5,-1
 592 1034 l 1,6,-1
 406 534 l 1,4,-1
-37 0 m 1,7,-1
 -28 74 l 1,8,-1
 121 129 l 1,9,-1
 559 1237 l 1,10,-1
 710 1268 l 1,11,-1
 1100 124 l 1,12,-1
 1237 80 l 1,13,-1
 1228 0 l 1,14,-1
 713 0 l 1,15,-1
 725 74 l 1,16,-1
 896 129 l 1,17,-1
 787 432 l 1,18,-1
 368 432 l 1,19,-1
 256 124 l 1,20,-1
 442 80 l 1,21,-1
 431 0 l 1,22,-1
 -37 0 l 1,7,-1
EndSplineSet
EndChar

StartChar: Aacute
Encoding: 193 193 130
Width: 1234
GlyphClass: 2
Flags: W
LayerCount: 2
Fore
SplineSet
593 1385 m 1,0,-1
 716 1710 l 1,1,-1
 827 1670 l 1,2,-1
 643 1354 l 1,3,-1
 593 1385 l 1,0,-1
406 534 m 1,4,-1
 758 534 l 1,5,-1
 592 1034 l 1,6,-1
 406 534 l 1,4,-1
-37 0 m 1,7,-1
 -28 74 l 1,8,-1
 121 129 l 1,9,-1
 559 1237 l 1,10,-1
 710 1268 l 1,11,-1
 1100 124 l 1,12,-1
 1237 80 l 1,13,-1
 1228 0 l 1,14,-1
 713 0 l 1,15,-1
 725 74 l 1,16,-1
 896 129 l 1,17,-1
 787 432 l 1,18,-1
 368 432 l 1,19,-1
 256 124 l 1,20,-1
 442 80 l 1,21,-1
 431 0 l 1,22,-1
 -37 0 l 1,7,-1
EndSplineSet
EndChar

StartChar: Acircumflex
Encoding: 194 194 131
Width: 1234
GlyphClass: 2
Flags: W
LayerCount: 2
Fore
SplineSet
443 1392 m 1,0,-1
 611 1572 l 1,1,-1
 666 1585 l 1,2,-1
 844 1400 l 1,3,-1
 794 1364 l 1,4,-1
 632 1472 l 1,5,-1
 621 1472 l 1,6,-1
 480 1361 l 1,7,-1
 443 1392 l 1,0,-1
406 534 m 1,8,-1
 758 534 l 1,9,-1
 592 1034 l 1,10,-1
 406 534 l 1,8,-1
-37 0 m 1,11,-1
 -28 74 l 1,12,-1
 121 129 l 1,13,-1
 559 1237 l 1,14,-1
 710 1268 l 1,15,-1
 1100 124 l 1,16,-1
 1237 80 l 1,17,-1
 1228 0 l 1,18,-1
 713 0 l 1,19,-1
 725 74 l 1,20,-1
 896 129 l 1,21,-1
 787 432 l 1,22,-1
 368 432 l 1,23,-1
 256 124 l 1,24,-1
 442 80 l 1,25,-1
 431 0 l 1,26,-1
 -37 0 l 1,11,-1
EndSplineSet
EndChar

StartChar: Atilde
Encoding: 195 195 132
Width: 1234
GlyphClass: 2
Flags: W
LayerCount: 2
Fore
SplineSet
504 1423 m 2,0,1
 478 1423 478 1423 445 1376 c 1,2,-1
 406 1383 l 1,3,4
 413 1427 413 1427 437 1461 c 0,5,6
 481 1526 481 1526 529 1526 c 2,7,-1
 543 1526 l 1,8,-1
 764 1496 l 1,9,-1
 768 1496 l 2,10,11
 791 1496 791 1496 825 1536 c 1,12,-1
 872 1535 l 1,13,14
 824 1391 824 1391 743 1391 c 0,15,16
 734 1391 734 1391 730 1392 c 2,17,-1
 507 1423 l 1,18,-1
 504 1423 l 2,0,1
406 534 m 1,19,-1
 758 534 l 1,20,-1
 592 1034 l 1,21,-1
 406 534 l 1,19,-1
-37 0 m 1,22,-1
 -28 74 l 1,23,-1
 121 129 l 1,24,-1
 559 1237 l 1,25,-1
 710 1268 l 1,26,-1
 1100 124 l 1,27,-1
 1237 80 l 1,28,-1
 1228 0 l 1,29,-1
 713 0 l 1,30,-1
 725 74 l 1,31,-1
 896 129 l 1,32,-1
 787 432 l 1,33,-1
 368 432 l 1,34,-1
 256 124 l 1,35,-1
 442 80 l 1,36,-1
 431 0 l 1,37,-1
 -37 0 l 1,22,-1
EndSplineSet
EndChar

StartChar: Adieresis
Encoding: 196 196 133
Width: 1234
GlyphClass: 2
Flags: W
LayerCount: 2
Fore
SplineSet
714.5 1395.5 m 128,-1,1
 690 1418 690 1418 690 1452.5 c 128,-1,2
 690 1487 690 1487 715.5 1508.5 c 128,-1,3
 741 1530 741 1530 774.5 1530 c 128,-1,4
 808 1530 808 1530 834.5 1508 c 128,-1,5
 861 1486 861 1486 861 1452 c 128,-1,6
 861 1418 861 1418 834.5 1395.5 c 128,-1,7
 808 1373 808 1373 773.5 1373 c 128,-1,0
 739 1373 739 1373 714.5 1395.5 c 128,-1,1
447.5 1395.5 m 128,-1,9
 423 1418 423 1418 423 1452.5 c 128,-1,10
 423 1487 423 1487 448.5 1508.5 c 128,-1,11
 474 1530 474 1530 507 1530 c 128,-1,12
 540 1530 540 1530 566 1508 c 128,-1,13
 592 1486 592 1486 592 1452 c 128,-1,14
 592 1418 592 1418 566.5 1395.5 c 128,-1,15
 541 1373 541 1373 506.5 1373 c 128,-1,8
 472 1373 472 1373 447.5 1395.5 c 128,-1,9
406 534 m 1,16,-1
 758 534 l 1,17,-1
 592 1034 l 1,18,-1
 406 534 l 1,16,-1
-37 0 m 1,19,-1
 -28 74 l 1,20,-1
 121 129 l 1,21,-1
 559 1237 l 1,22,-1
 710 1268 l 1,23,-1
 1100 124 l 1,24,-1
 1237 80 l 1,25,-1
 1228 0 l 1,26,-1
 713 0 l 1,27,-1
 725 74 l 1,28,-1
 896 129 l 1,29,-1
 787 432 l 1,30,-1
 368 432 l 1,31,-1
 256 124 l 1,32,-1
 442 80 l 1,33,-1
 431 0 l 1,34,-1
 -37 0 l 1,19,-1
EndSplineSet
EndChar

StartChar: Aring
Encoding: 197 197 134
Width: 1234
GlyphClass: 2
Flags: W
LayerCount: 2
Fore
SplineSet
573.5 1623 m 128,-1,1
 552 1590 552 1590 552 1541 c 128,-1,2
 552 1492 552 1492 577 1453.5 c 128,-1,3
 602 1415 602 1415 645 1415 c 128,-1,4
 688 1415 688 1415 711 1445 c 128,-1,5
 734 1475 734 1475 734 1527 c 128,-1,6
 734 1579 734 1579 707 1617.5 c 128,-1,7
 680 1656 680 1656 637.5 1656 c 128,-1,0
 595 1656 595 1656 573.5 1623 c 128,-1,1
523 1411.5 m 128,-1,9
 480 1456 480 1456 480 1528.5 c 128,-1,10
 480 1601 480 1601 530 1652.5 c 128,-1,11
 580 1704 580 1704 650 1704 c 128,-1,12
 720 1704 720 1704 762 1658.5 c 128,-1,13
 804 1613 804 1613 804 1542.5 c 128,-1,14
 804 1472 804 1472 757 1419.5 c 128,-1,15
 710 1367 710 1367 638 1367 c 128,-1,8
 566 1367 566 1367 523 1411.5 c 128,-1,9
406 534 m 1,16,-1
 758 534 l 1,17,-1
 592 1034 l 1,18,-1
 406 534 l 1,16,-1
-37 0 m 1,19,-1
 -28 74 l 1,20,-1
 121 129 l 1,21,-1
 559 1237 l 1,22,-1
 710 1268 l 1,23,-1
 1100 124 l 1,24,-1
 1237 80 l 1,25,-1
 1228 0 l 1,26,-1
 713 0 l 1,27,-1
 725 74 l 1,28,-1
 896 129 l 1,29,-1
 787 432 l 1,30,-1
 368 432 l 1,31,-1
 256 124 l 1,32,-1
 442 80 l 1,33,-1
 431 0 l 1,34,-1
 -37 0 l 1,19,-1
EndSplineSet
EndChar

StartChar: AE
Encoding: 198 198 135
Width: 1684
GlyphClass: 2
Flags: W
LayerCount: 2
Fore
SplineSet
510 568 m 1,0,-1
 817 568 l 1,1,-1
 817 1058 l 1,2,-1
 510 568 l 1,0,-1
-40 1 m 1,3,-1
 -31 76 l 1,4,-1
 105 131 l 1,5,-1
 738 1126 l 1,6,-1
 524 1168 l 1,7,-1
 534 1244 l 1,8,-1
 1596 1244 l 1,9,-1
 1564 927 l 1,10,-1
 1478 940 l 1,11,-1
 1436 1152 l 1,12,-1
 998 1152 l 1,13,-1
 998 679 l 1,14,-1
 1257 679 l 1,15,-1
 1299 802 l 1,16,-1
 1394 810 l 1,17,-1
 1360 424 l 1,18,-1
 1275 409 l 1,19,-1
 1241 586 l 1,20,-1
 998 586 l 1,21,-1
 998 96 l 1,22,-1
 1462 96 l 1,23,-1
 1563 329 l 1,24,-1
 1643 313 l 1,25,-1
 1613 0 l 1,26,-1
 642 0 l 1,27,-1
 650 74 l 1,28,-1
 817 121 l 1,29,-1
 817 472 l 1,30,-1
 458 472 l 1,31,-1
 240 126 l 1,32,-1
 428 83 l 1,33,-1
 415 1 l 1,34,-1
 -40 1 l 1,3,-1
EndSplineSet
EndChar

StartChar: Ccedilla
Encoding: 199 199 136
Width: 1153
GlyphClass: 2
Flags: W
LayerCount: 2
Fore
SplineSet
110 325.5 m 128,-1,1
 61 444 61 444 61 562.5 c 128,-1,2
 61 681 61 681 83.5 773.5 c 128,-1,3
 106 866 106 866 156.5 956 c 128,-1,4
 207 1046 207 1046 280 1115 c 128,-1,5
 353 1184 353 1184 463 1226.5 c 128,-1,6
 573 1269 573 1269 705 1269 c 0,7,8
 934 1269 934 1269 1066 1169 c 1,9,-1
 1035 837 l 1,10,-1
 947 850 l 1,11,-1
 906 1070 l 1,12,13
 825 1174 825 1174 656 1174 c 128,-1,14
 487 1174 487 1174 381 1034 c 128,-1,15
 275 894 275 894 275 658 c 0,16,17
 275 528 275 528 312.5 422 c 128,-1,18
 350 316 350 316 414 249 c 0,19,20
 544 111 544 111 729 111 c 0,21,22
 823 111 823 111 915 153.5 c 128,-1,23
 1007 196 1007 196 1078 261 c 1,24,-1
 1114 185 l 1,25,26
 1058 117 1058 117 959 59 c 128,-1,27
 860 1 860 1 743 -18 c 1,28,-1
 703 -76 l 1,29,30
 792 -155 792 -155 792 -227 c 0,31,32
 792 -330 792 -330 592 -389 c 1,33,-1
 572 -331 l 1,34,35
 613 -317 613 -317 635.5 -294.5 c 128,-1,36
 658 -272 658 -272 658 -239.5 c 128,-1,37
 658 -207 658 -207 585 -138 c 1,38,-1
 663 -24 l 1,39,-1
 652 -24 l 2,40,41
 413 -24 413 -24 242 132 c 0,42,0
 159 207 159 207 110 325.5 c 128,-1,1
EndSplineSet
EndChar

StartChar: Egrave
Encoding: 200 200 137
Width: 1142
GlyphClass: 2
Flags: W
LayerCount: 2
Fore
SplineSet
443 1664 m 1,0,-1
 559 1702 l 1,1,-1
 691 1368 l 1,2,-1
 633 1334 l 1,3,-1
 443 1664 l 1,0,-1
50 1168 m 1,4,-1
 61 1244 l 1,5,-1
 1056 1244 l 1,6,-1
 1025 924 l 1,7,-1
 938 937 l 1,8,-1
 897 1152 l 1,9,-1
 426 1152 l 1,10,-1
 426 676 l 1,11,-1
 716 676 l 1,12,-1
 758 796 l 1,13,-1
 853 810 l 1,14,-1
 819 421 l 1,15,-1
 734 408 l 1,16,-1
 700 583 l 1,17,-1
 426 583 l 1,18,-1
 426 96 l 1,19,-1
 921 96 l 1,20,-1
 1019 326 l 1,21,-1
 1102 313 l 1,22,-1
 1072 0 l 1,23,-1
 57 0 l 1,24,-1
 65 74 l 1,25,-1
 232 121 l 1,26,-1
 232 1126 l 1,27,-1
 50 1168 l 1,4,-1
EndSplineSet
EndChar

StartChar: Eacute
Encoding: 201 201 138
Width: 1142
GlyphClass: 2
Flags: W
LayerCount: 2
Fore
SplineSet
517 1385 m 1,0,-1
 640 1710 l 1,1,-1
 751 1670 l 1,2,-1
 568 1354 l 1,3,-1
 517 1385 l 1,0,-1
50 1168 m 1,4,-1
 61 1244 l 1,5,-1
 1056 1244 l 1,6,-1
 1025 924 l 1,7,-1
 938 937 l 1,8,-1
 897 1152 l 1,9,-1
 426 1152 l 1,10,-1
 426 676 l 1,11,-1
 716 676 l 1,12,-1
 758 796 l 1,13,-1
 853 810 l 1,14,-1
 819 421 l 1,15,-1
 734 408 l 1,16,-1
 700 583 l 1,17,-1
 426 583 l 1,18,-1
 426 96 l 1,19,-1
 921 96 l 1,20,-1
 1019 326 l 1,21,-1
 1102 313 l 1,22,-1
 1072 0 l 1,23,-1
 57 0 l 1,24,-1
 65 74 l 1,25,-1
 232 121 l 1,26,-1
 232 1126 l 1,27,-1
 50 1168 l 1,4,-1
EndSplineSet
EndChar

StartChar: Ecircumflex
Encoding: 202 202 139
Width: 1142
GlyphClass: 2
Flags: W
LayerCount: 2
Fore
SplineSet
75 1168 m 1,0,-1
 86 1244 l 1,1,-1
 1081 1244 l 1,2,-1
 1050 924 l 1,3,-1
 963 937 l 1,4,-1
 922 1152 l 1,5,-1
 451 1152 l 1,6,-1
 451 676 l 1,7,-1
 741 676 l 1,8,-1
 783 796 l 1,9,-1
 878 810 l 1,10,-1
 844 421 l 1,11,-1
 759 408 l 1,12,-1
 725 583 l 1,13,-1
 451 583 l 1,14,-1
 451 96 l 1,15,-1
 946 96 l 1,16,-1
 1044 326 l 1,17,-1
 1127 313 l 1,18,-1
 1097 0 l 1,19,-1
 82 0 l 1,20,-1
 90 74 l 1,21,-1
 257 121 l 1,22,-1
 257 1126 l 1,23,-1
 75 1168 l 1,0,-1
406 1387 m 1,24,-1
 574 1566 l 1,25,-1
 629 1581 l 1,26,-1
 807 1395 l 1,27,-1
 758 1358 l 1,28,-1
 595 1468 l 1,29,-1
 584 1468 l 1,30,-1
 445 1357 l 1,31,-1
 406 1387 l 1,24,-1
EndSplineSet
EndChar

StartChar: Edieresis
Encoding: 203 203 140
Width: 1142
GlyphClass: 2
Flags: W
LayerCount: 2
Fore
SplineSet
671.5 1395.5 m 128,-1,1
 647 1418 647 1418 647 1452.5 c 128,-1,2
 647 1487 647 1487 672.5 1508.5 c 128,-1,3
 698 1530 698 1530 731.5 1530 c 128,-1,4
 765 1530 765 1530 791.5 1508 c 128,-1,5
 818 1486 818 1486 818 1452 c 128,-1,6
 818 1418 818 1418 791.5 1395.5 c 128,-1,7
 765 1373 765 1373 730.5 1373 c 128,-1,0
 696 1373 696 1373 671.5 1395.5 c 128,-1,1
404.5 1395.5 m 128,-1,9
 380 1418 380 1418 380 1452.5 c 128,-1,10
 380 1487 380 1487 405.5 1508.5 c 128,-1,11
 431 1530 431 1530 464 1530 c 128,-1,12
 497 1530 497 1530 523 1508 c 128,-1,13
 549 1486 549 1486 549 1452 c 128,-1,14
 549 1418 549 1418 523.5 1395.5 c 128,-1,15
 498 1373 498 1373 463.5 1373 c 128,-1,8
 429 1373 429 1373 404.5 1395.5 c 128,-1,9
50 1168 m 1,16,-1
 61 1244 l 1,17,-1
 1056 1244 l 1,18,-1
 1025 924 l 1,19,-1
 938 937 l 1,20,-1
 897 1152 l 1,21,-1
 426 1152 l 1,22,-1
 426 676 l 1,23,-1
 716 676 l 1,24,-1
 758 796 l 1,25,-1
 853 810 l 1,26,-1
 819 421 l 1,27,-1
 734 408 l 1,28,-1
 700 583 l 1,29,-1
 426 583 l 1,30,-1
 426 96 l 1,31,-1
 921 96 l 1,32,-1
 1019 326 l 1,33,-1
 1102 313 l 1,34,-1
 1072 0 l 1,35,-1
 57 0 l 1,36,-1
 65 74 l 1,37,-1
 232 121 l 1,38,-1
 232 1126 l 1,39,-1
 50 1168 l 1,16,-1
EndSplineSet
EndChar

StartChar: Igrave
Encoding: 204 204 141
Width: 655
GlyphClass: 2
Flags: W
LayerCount: 2
Fore
SplineSet
133 1664 m 1,0,-1
 249 1702 l 1,1,-1
 381 1368 l 1,2,-1
 323 1334 l 1,3,-1
 133 1664 l 1,0,-1
50 1168 m 1,4,-1
 61 1244 l 1,5,-1
 605 1244 l 1,6,-1
 595 1168 l 1,7,-1
 426 1130 l 1,8,-1
 426 114 l 1,9,-1
 607 80 l 1,10,-1
 597 0 l 1,11,-1
 57 0 l 1,12,-1
 65 74 l 1,13,-1
 232 121 l 1,14,-1
 232 1126 l 1,15,-1
 50 1168 l 1,4,-1
EndSplineSet
EndChar

StartChar: Iacute
Encoding: 205 205 142
Width: 655
GlyphClass: 2
Flags: W
LayerCount: 2
Fore
SplineSet
289 1385 m 1,0,-1
 412 1710 l 1,1,-1
 523 1670 l 1,2,-1
 341 1354 l 1,3,-1
 289 1385 l 1,0,-1
50 1168 m 1,4,-1
 61 1244 l 1,5,-1
 605 1244 l 1,6,-1
 595 1168 l 1,7,-1
 426 1130 l 1,8,-1
 426 114 l 1,9,-1
 607 80 l 1,10,-1
 597 0 l 1,11,-1
 57 0 l 1,12,-1
 65 74 l 1,13,-1
 232 121 l 1,14,-1
 232 1126 l 1,15,-1
 50 1168 l 1,4,-1
EndSplineSet
EndChar

StartChar: Icircumflex
Encoding: 206 206 143
Width: 655
GlyphClass: 2
Flags: W
LayerCount: 2
Fore
SplineSet
132 1392 m 1,0,-1
 299 1572 l 1,1,-1
 354 1585 l 1,2,-1
 532 1400 l 1,3,-1
 483 1364 l 1,4,-1
 319 1472 l 1,5,-1
 309 1472 l 1,6,-1
 169 1361 l 1,7,-1
 132 1392 l 1,0,-1
50 1168 m 1,8,-1
 61 1244 l 1,9,-1
 605 1244 l 1,10,-1
 595 1168 l 1,11,-1
 426 1130 l 1,12,-1
 426 114 l 1,13,-1
 607 80 l 1,14,-1
 597 0 l 1,15,-1
 57 0 l 1,16,-1
 65 74 l 1,17,-1
 232 121 l 1,18,-1
 232 1126 l 1,19,-1
 50 1168 l 1,8,-1
EndSplineSet
EndChar

StartChar: Idieresis
Encoding: 207 207 144
Width: 655
GlyphClass: 2
Flags: W
LayerCount: 2
Fore
SplineSet
402 1395.5 m 128,-1,1
 377 1418 377 1418 377 1452.5 c 128,-1,2
 377 1487 377 1487 403 1508.5 c 128,-1,3
 429 1530 429 1530 462.5 1530 c 128,-1,4
 496 1530 496 1530 522.5 1508 c 128,-1,5
 549 1486 549 1486 549 1452 c 128,-1,6
 549 1418 549 1418 522.5 1395.5 c 128,-1,7
 496 1373 496 1373 461.5 1373 c 128,-1,0
 427 1373 427 1373 402 1395.5 c 128,-1,1
135 1395.5 m 128,-1,9
 110 1418 110 1418 110 1452.5 c 128,-1,10
 110 1487 110 1487 136 1508.5 c 128,-1,11
 162 1530 162 1530 195 1530 c 128,-1,12
 228 1530 228 1530 253.5 1508 c 128,-1,13
 279 1486 279 1486 279 1452 c 128,-1,14
 279 1418 279 1418 253.5 1395.5 c 128,-1,15
 228 1373 228 1373 194 1373 c 128,-1,8
 160 1373 160 1373 135 1395.5 c 128,-1,9
50 1168 m 1,16,-1
 61 1244 l 1,17,-1
 605 1244 l 1,18,-1
 595 1168 l 1,19,-1
 426 1130 l 1,20,-1
 426 114 l 1,21,-1
 607 80 l 1,22,-1
 597 0 l 1,23,-1
 57 0 l 1,24,-1
 65 74 l 1,25,-1
 232 121 l 1,26,-1
 232 1126 l 1,27,-1
 50 1168 l 1,16,-1
EndSplineSet
EndChar

StartChar: Eth
Encoding: 208 208 145
Width: 1374
GlyphClass: 2
Flags: W
LayerCount: 2
Fore
SplineSet
424 104 m 1,0,-1
 636 104 l 2,1,2
 755 104 755 104 847 144.5 c 128,-1,3
 939 185 939 185 994 256 c 0,4,5
 1103 397 1103 397 1103 598 c 0,6,7
 1103 836 1103 836 964 992 c 1,8,9
 897 1069 897 1069 789.5 1113 c 128,-1,10
 682 1157 682 1157 546 1157 c 0,11,12
 484 1157 484 1157 424 1151 c 1,13,-1
 424 672 l 1,14,-1
 682 693 l 1,15,-1
 670 602 l 1,16,-1
 424 581 l 1,17,-1
 424 104 l 1,0,-1
53 555 m 1,18,-1
 64 647 l 1,19,-1
 233 660 l 1,20,-1
 233 1104 l 1,21,-1
 61 1134 l 1,22,-1
 70 1211 l 1,23,24
 381 1260 381 1260 563.5 1260 c 128,-1,25
 746 1260 746 1260 874.5 1226.5 c 128,-1,26
 1003 1193 1003 1193 1085 1137 c 128,-1,27
 1167 1081 1167 1081 1220 1002 c 0,28,29
 1317 859 1317 859 1317 658 c 0,30,31
 1317 451 1317 451 1192 286 c 1,32,33
 1057 105 1057 105 828 37 c 0,34,35
 704 0 704 0 560 0 c 2,36,-1
 47 0 l 1,37,-1
 61 74 l 1,38,-1
 233 129 l 1,39,-1
 233 569 l 1,40,-1
 53 555 l 1,18,-1
EndSplineSet
EndChar

StartChar: Ntilde
Encoding: 209 209 146
Width: 1390
GlyphClass: 2
Flags: W
LayerCount: 2
Fore
SplineSet
543 1423 m 2,0,1
 518 1423 518 1423 483 1376 c 1,2,-1
 445 1383 l 1,3,4
 452 1427 452 1427 475 1461 c 0,5,6
 517 1526 517 1526 566 1526 c 2,7,-1
 580 1526 l 1,8,-1
 802 1496 l 1,9,-1
 807 1496 l 2,10,11
 830 1496 830 1496 862 1536 c 1,12,-1
 910 1535 l 1,13,14
 862 1391 862 1391 781 1391 c 0,15,16
 772 1391 772 1391 768 1392 c 2,17,-1
 546 1423 l 1,18,-1
 543 1423 l 2,0,1
50 1168 m 1,19,-1
 61 1244 l 1,20,-1
 412 1244 l 1,21,-1
 1054 271 l 1,22,-1
 1054 1126 l 1,23,-1
 869 1168 l 1,24,-1
 881 1244 l 1,25,-1
 1356 1244 l 1,26,-1
 1343 1168 l 1,27,-1
 1176 1130 l 1,28,-1
 1176 1 l 1,29,-1
 1023 -30 l 1,30,-1
 360 961 l 1,31,-1
 360 114 l 1,32,-1
 543 80 l 1,33,-1
 532 0 l 1,34,-1
 57 0 l 1,35,-1
 65 74 l 1,36,-1
 232 121 l 1,37,-1
 232 1117 l 1,38,-1
 50 1168 l 1,19,-1
EndSplineSet
EndChar

StartChar: Ograve
Encoding: 210 210 147
Width: 1342
GlyphClass: 2
Flags: W
LayerCount: 2
Fore
SplineSet
527 1664 m 1,0,-1
 642 1702 l 1,1,-1
 774 1368 l 1,2,-1
 717 1334 l 1,3,-1
 527 1664 l 1,0,-1
283 676 m 0,4,5
 283 377 283 377 420 204 c 0,6,7
 519 79 519 79 686 79 c 0,8,9
 932 79 932 79 1017 295 c 0,10,11
 1062 409 1062 409 1062 535 c 128,-1,12
 1062 661 1062 661 1048 745 c 128,-1,13
 1034 829 1034 829 1002 907.5 c 128,-1,14
 970 986 970 986 924 1046 c 0,15,16
 825 1176 825 1176 658 1176 c 0,17,18
 283 1176 283 1176 283 676 c 0,4,5
61 619 m 0,19,20
 61 911 61 911 236 1091.5 c 128,-1,21
 411 1272 411 1272 706 1272 c 0,22,23
 838 1272 838 1272 948.5 1219.5 c 128,-1,24
 1059 1167 1059 1167 1132 1077 c 0,25,26
 1284 888 1284 888 1284 619 c 0,27,28
 1284 352 1284 352 1116 167 c 0,29,30
 1036 78 1036 78 911.5 25.5 c 128,-1,31
 787 -27 787 -27 627 -27 c 128,-1,32
 467 -27 467 -27 335 59 c 128,-1,33
 203 145 203 145 132 292 c 128,-1,34
 61 439 61 439 61 619 c 0,19,20
EndSplineSet
EndChar

StartChar: Oacute
Encoding: 211 211 148
Width: 1342
GlyphClass: 2
Flags: W
LayerCount: 2
Fore
SplineSet
574 1380 m 1,0,-1
 696 1705 l 1,1,-1
 808 1666 l 1,2,-1
 624 1348 l 1,3,-1
 574 1380 l 1,0,-1
295 676 m 0,4,5
 295 377 295 377 432 204 c 0,6,7
 531 79 531 79 698 79 c 0,8,9
 943 79 943 79 1028 295 c 0,10,11
 1073 409 1073 409 1073 535 c 128,-1,12
 1073 661 1073 661 1059 744.5 c 128,-1,13
 1045 828 1045 828 1013.5 907 c 128,-1,14
 982 986 982 986 936 1046 c 0,15,16
 835 1176 835 1176 670 1176 c 0,17,18
 295 1176 295 1176 295 676 c 0,4,5
73 619 m 0,19,20
 73 911 73 911 248 1091.5 c 128,-1,21
 423 1272 423 1272 718 1272 c 0,22,23
 850 1272 850 1272 960.5 1219.5 c 128,-1,24
 1071 1167 1071 1167 1144 1077 c 0,25,26
 1296 888 1296 888 1296 619 c 0,27,28
 1296 353 1296 353 1129 167 c 0,29,30
 1049 78 1049 78 924.5 25.5 c 128,-1,31
 800 -27 800 -27 640 -27 c 128,-1,32
 480 -27 480 -27 347.5 59 c 128,-1,33
 215 145 215 145 144 292 c 128,-1,34
 73 439 73 439 73 619 c 0,19,20
EndSplineSet
EndChar

StartChar: Ocircumflex
Encoding: 212 212 149
Width: 1342
GlyphClass: 2
Flags: W
LayerCount: 2
Fore
SplineSet
484 1392 m 1,0,-1
 652 1572 l 1,1,-1
 707 1585 l 1,2,-1
 885 1400 l 1,3,-1
 836 1364 l 1,4,-1
 672 1472 l 1,5,-1
 662 1472 l 1,6,-1
 522 1361 l 1,7,-1
 484 1392 l 1,0,-1
283 676 m 0,8,9
 283 377 283 377 420 204 c 0,10,11
 519 79 519 79 686 79 c 0,12,13
 932 79 932 79 1017 295 c 0,14,15
 1062 409 1062 409 1062 535 c 128,-1,16
 1062 661 1062 661 1048 745 c 128,-1,17
 1034 829 1034 829 1002 907.5 c 128,-1,18
 970 986 970 986 924 1046 c 0,19,20
 825 1176 825 1176 658 1176 c 0,21,22
 283 1176 283 1176 283 676 c 0,8,9
61 619 m 0,23,24
 61 911 61 911 236 1091.5 c 128,-1,25
 411 1272 411 1272 706 1272 c 0,26,27
 838 1272 838 1272 948.5 1219.5 c 128,-1,28
 1059 1167 1059 1167 1132 1077 c 0,29,30
 1284 888 1284 888 1284 619 c 0,31,32
 1284 352 1284 352 1116 167 c 0,33,34
 1036 78 1036 78 911.5 25.5 c 128,-1,35
 787 -27 787 -27 627 -27 c 128,-1,36
 467 -27 467 -27 335 59 c 128,-1,37
 203 145 203 145 132 292 c 128,-1,38
 61 439 61 439 61 619 c 0,23,24
EndSplineSet
EndChar

StartChar: Otilde
Encoding: 213 213 150
Width: 1342
GlyphClass: 2
Flags: W
LayerCount: 2
Fore
SplineSet
546 1423 m 2,0,1
 520 1423 520 1423 485 1376 c 1,2,-1
 448 1383 l 1,3,4
 455 1427 455 1427 478 1461 c 0,5,6
 520 1526 520 1526 568 1526 c 2,7,-1
 581 1526 l 1,8,-1
 805 1496 l 1,9,-1
 810 1496 l 2,10,11
 832 1496 832 1496 866 1536 c 1,12,-1
 913 1535 l 1,13,14
 865 1391 865 1391 783 1391 c 0,15,16
 775 1391 775 1391 771 1392 c 2,17,-1
 547 1423 l 1,18,-1
 546 1423 l 2,0,1
283 676 m 0,19,20
 283 377 283 377 420 204 c 0,21,22
 519 79 519 79 686 79 c 0,23,24
 932 79 932 79 1017 295 c 0,25,26
 1062 409 1062 409 1062 535 c 128,-1,27
 1062 661 1062 661 1048 745 c 128,-1,28
 1034 829 1034 829 1002 907.5 c 128,-1,29
 970 986 970 986 924 1046 c 0,30,31
 825 1176 825 1176 658 1176 c 0,32,33
 283 1176 283 1176 283 676 c 0,19,20
61 619 m 0,34,35
 61 911 61 911 236 1091.5 c 128,-1,36
 411 1272 411 1272 706 1272 c 0,37,38
 838 1272 838 1272 948.5 1219.5 c 128,-1,39
 1059 1167 1059 1167 1132 1077 c 0,40,41
 1284 888 1284 888 1284 619 c 0,42,43
 1284 352 1284 352 1116 167 c 0,44,45
 1036 78 1036 78 911.5 25.5 c 128,-1,46
 787 -27 787 -27 627 -27 c 128,-1,47
 467 -27 467 -27 335 59 c 128,-1,48
 203 145 203 145 132 292 c 128,-1,49
 61 439 61 439 61 619 c 0,34,35
EndSplineSet
EndChar

StartChar: Odieresis
Encoding: 214 214 151
Width: 1342
GlyphClass: 2
Flags: W
LayerCount: 2
Fore
SplineSet
755 1395.5 m 128,-1,1
 730 1418 730 1418 730 1452.5 c 128,-1,2
 730 1487 730 1487 756 1508.5 c 128,-1,3
 782 1530 782 1530 815.5 1530 c 128,-1,4
 849 1530 849 1530 875.5 1508 c 128,-1,5
 902 1486 902 1486 902 1452 c 128,-1,6
 902 1418 902 1418 875.5 1395.5 c 128,-1,7
 849 1373 849 1373 814.5 1373 c 128,-1,0
 780 1373 780 1373 755 1395.5 c 128,-1,1
488 1395.5 m 128,-1,9
 463 1418 463 1418 463 1452.5 c 128,-1,10
 463 1487 463 1487 489 1508.5 c 128,-1,11
 515 1530 515 1530 548 1530 c 128,-1,12
 581 1530 581 1530 606.5 1508 c 128,-1,13
 632 1486 632 1486 632 1452 c 128,-1,14
 632 1418 632 1418 606.5 1395.5 c 128,-1,15
 581 1373 581 1373 547 1373 c 128,-1,8
 513 1373 513 1373 488 1395.5 c 128,-1,9
283 676 m 0,16,17
 283 377 283 377 420 204 c 0,18,19
 519 79 519 79 686 79 c 0,20,21
 932 79 932 79 1017 295 c 0,22,23
 1062 409 1062 409 1062 535 c 128,-1,24
 1062 661 1062 661 1048 745 c 128,-1,25
 1034 829 1034 829 1002 907.5 c 128,-1,26
 970 986 970 986 924 1046 c 0,27,28
 825 1176 825 1176 658 1176 c 0,29,30
 283 1176 283 1176 283 676 c 0,16,17
61 619 m 0,31,32
 61 911 61 911 236 1091.5 c 128,-1,33
 411 1272 411 1272 706 1272 c 0,34,35
 838 1272 838 1272 948.5 1219.5 c 128,-1,36
 1059 1167 1059 1167 1132 1077 c 0,37,38
 1284 888 1284 888 1284 619 c 0,39,40
 1284 352 1284 352 1116 167 c 0,41,42
 1036 78 1036 78 911.5 25.5 c 128,-1,43
 787 -27 787 -27 627 -27 c 128,-1,44
 467 -27 467 -27 335 59 c 128,-1,45
 203 145 203 145 132 292 c 128,-1,46
 61 439 61 439 61 619 c 0,31,32
EndSplineSet
EndChar

StartChar: multiply
Encoding: 215 215 152
Width: 604
GlyphClass: 2
Flags: W
LayerCount: 2
Fore
SplineSet
67 310 m 1,0,-1
 223 462 l 1,1,-1
 67 619 l 1,2,-1
 151 685 l 1,3,-1
 304 532 l 1,4,-1
 469 692 l 1,5,-1
 534 608 l 1,6,-1
 378 458 l 1,7,-1
 537 297 l 1,8,-1
 454 231 l 1,9,-1
 298 388 l 1,10,-1
 134 228 l 1,11,-1
 67 310 l 1,0,-1
EndSplineSet
EndChar

StartChar: Oslash
Encoding: 216 216 153
Width: 1342
GlyphClass: 2
Flags: W
LayerCount: 2
Fore
SplineSet
73 619 m 0,0,1
 73 911 73 911 248 1091.5 c 128,-1,2
 423 1272 423 1272 718 1272 c 0,3,4
 839 1272 839 1272 943 1227 c 1,5,-1
 984 1304 l 1,6,-1
 1136 1312 l 1,7,-1
 1054 1162 l 1,8,9
 1169 1073 1169 1073 1232.5 930 c 128,-1,10
 1296 787 1296 787 1296 638 c 128,-1,11
 1296 489 1296 489 1252.5 372.5 c 128,-1,12
 1209 256 1209 256 1129 167 c 128,-1,13
 1049 78 1049 78 924.5 25.5 c 128,-1,14
 800 -27 800 -27 667.5 -27 c 128,-1,15
 535 -27 535 -27 437 13 c 1,16,-1
 375 -102 l 1,17,-1
 228 -111 l 1,18,-1
 327 73 l 1,19,20
 207 159 207 159 140 302.5 c 128,-1,21
 73 446 73 446 73 619 c 0,0,1
952 1023 m 1,22,-1
 484 152 l 1,23,24
 574 79 574 79 680 79 c 128,-1,25
 786 79 786 79 853.5 107.5 c 128,-1,26
 921 136 921 136 961.5 182.5 c 128,-1,27
 1002 229 1002 229 1028 295 c 0,28,29
 1073 409 1073 409 1073 554 c 0,30,31
 1073 850 1073 850 952 1023 c 1,22,-1
897 1087 m 1,32,33
 802 1176 802 1176 670 1176 c 0,34,35
 295 1176 295 1176 295 676 c 0,36,37
 295 378 295 378 427 210 c 1,38,-1
 897 1087 l 1,32,33
EndSplineSet
EndChar

StartChar: Ugrave
Encoding: 217 217 154
Width: 1401
GlyphClass: 2
Flags: W
LayerCount: 2
Fore
SplineSet
37 1168 m 1,0,-1
 50 1244 l 1,1,-1
 592 1244 l 1,2,-1
 583 1168 l 1,3,-1
 414 1130 l 1,4,-1
 414 510 l 2,5,6
 414 304 414 304 507.5 204.5 c 128,-1,7
 601 105 601 105 760 105 c 0,8,9
 1085 105 1085 105 1087 482 c 2,10,-1
 1090 1126 l 1,11,-1
 907 1168 l 1,12,-1
 917 1244 l 1,13,-1
 1395 1244 l 1,14,-1
 1384 1168 l 1,15,-1
 1218 1130 l 1,16,-1
 1213 515 l 2,17,18
 1211 241 1211 241 1090 107 c 128,-1,19
 969 -27 969 -27 712 -27 c 0,20,21
 448 -27 448 -27 326 112 c 0,22,23
 221 232 221 232 221 469 c 2,24,-1
 221 1126 l 1,25,-1
 37 1168 l 1,0,-1
475 1659 m 1,26,-1
 590 1697 l 1,27,-1
 722 1364 l 1,28,-1
 666 1329 l 1,29,-1
 475 1659 l 1,26,-1
EndSplineSet
EndChar

StartChar: Uacute
Encoding: 218 218 155
Width: 1401
GlyphClass: 2
Flags: W
LayerCount: 2
Fore
SplineSet
684 1348 m 1,0,-1
 633 1380 l 1,1,-1
 756 1705 l 1,2,-1
 867 1666 l 1,3,-1
 684 1348 l 1,0,-1
37 1168 m 1,4,-1
 50 1244 l 1,5,-1
 592 1244 l 1,6,-1
 583 1168 l 1,7,-1
 414 1130 l 1,8,-1
 414 510 l 2,9,10
 414 304 414 304 507.5 204.5 c 128,-1,11
 601 105 601 105 760 105 c 0,12,13
 1085 105 1085 105 1087 482 c 2,14,-1
 1090 1126 l 1,15,-1
 907 1168 l 1,16,-1
 917 1244 l 1,17,-1
 1395 1244 l 1,18,-1
 1384 1168 l 1,19,-1
 1218 1130 l 1,20,-1
 1213 515 l 2,21,22
 1211 241 1211 241 1090 107 c 128,-1,23
 969 -27 969 -27 712 -27 c 0,24,25
 448 -27 448 -27 326 112 c 0,26,27
 221 232 221 232 221 469 c 2,28,-1
 221 1126 l 1,29,-1
 37 1168 l 1,4,-1
EndSplineSet
EndChar

StartChar: Ucircumflex
Encoding: 219 219 156
Width: 1401
GlyphClass: 2
Flags: W
LayerCount: 2
Fore
SplineSet
537 1392 m 1,0,-1
 704 1572 l 1,1,-1
 759 1585 l 1,2,-1
 937 1400 l 1,3,-1
 887 1364 l 1,4,-1
 724 1472 l 1,5,-1
 713 1472 l 1,6,-1
 574 1361 l 1,7,-1
 537 1392 l 1,0,-1
22 1168 m 1,8,-1
 35 1244 l 1,9,-1
 577 1244 l 1,10,-1
 568 1168 l 1,11,-1
 399 1130 l 1,12,-1
 399 510 l 2,13,14
 399 304 399 304 492.5 204.5 c 128,-1,15
 586 105 586 105 744 105 c 0,16,17
 1070 105 1070 105 1072 482 c 2,18,-1
 1075 1126 l 1,19,-1
 892 1168 l 1,20,-1
 902 1244 l 1,21,-1
 1380 1244 l 1,22,-1
 1369 1168 l 1,23,-1
 1203 1130 l 1,24,-1
 1198 515 l 2,25,26
 1196 241 1196 241 1075 107 c 128,-1,27
 954 -27 954 -27 697 -27 c 0,28,29
 433 -27 433 -27 312 112 c 1,30,31
 206 232 206 232 206 469 c 2,32,-1
 206 1126 l 1,33,-1
 22 1168 l 1,8,-1
EndSplineSet
EndChar

StartChar: Udieresis
Encoding: 220 220 157
Width: 1401
GlyphClass: 2
Flags: W
LayerCount: 2
Fore
SplineSet
807 1395.5 m 128,-1,1
 782 1418 782 1418 782 1452.5 c 128,-1,2
 782 1487 782 1487 808 1508.5 c 128,-1,3
 834 1530 834 1530 867 1530 c 128,-1,4
 900 1530 900 1530 926.5 1508 c 128,-1,5
 953 1486 953 1486 953 1452 c 128,-1,6
 953 1418 953 1418 927 1395.5 c 128,-1,7
 901 1373 901 1373 866.5 1373 c 128,-1,0
 832 1373 832 1373 807 1395.5 c 128,-1,1
539.5 1395.5 m 128,-1,9
 515 1418 515 1418 515 1452.5 c 128,-1,10
 515 1487 515 1487 540.5 1508.5 c 128,-1,11
 566 1530 566 1530 599 1530 c 128,-1,12
 632 1530 632 1530 658 1508 c 128,-1,13
 684 1486 684 1486 684 1452 c 128,-1,14
 684 1418 684 1418 658.5 1395.5 c 128,-1,15
 633 1373 633 1373 598.5 1373 c 128,-1,8
 564 1373 564 1373 539.5 1395.5 c 128,-1,9
22 1168 m 1,16,-1
 35 1244 l 1,17,-1
 577 1244 l 1,18,-1
 568 1168 l 1,19,-1
 399 1130 l 1,20,-1
 399 510 l 2,21,22
 399 304 399 304 492.5 204.5 c 128,-1,23
 586 105 586 105 744 105 c 0,24,25
 1070 105 1070 105 1072 482 c 2,26,-1
 1075 1126 l 1,27,-1
 892 1168 l 1,28,-1
 902 1244 l 1,29,-1
 1380 1244 l 1,30,-1
 1369 1168 l 1,31,-1
 1203 1130 l 1,32,-1
 1198 515 l 2,33,34
 1196 241 1196 241 1075 107 c 128,-1,35
 954 -27 954 -27 697 -27 c 0,36,37
 433 -27 433 -27 312 112 c 1,38,39
 206 232 206 232 206 469 c 2,40,-1
 206 1126 l 1,41,-1
 22 1168 l 1,16,-1
EndSplineSet
EndChar

StartChar: Yacute
Encoding: 221 221 158
Width: 1123
GlyphClass: 2
Flags: W
LayerCount: 2
Fore
SplineSet
-73 1168 m 1,0,-1
 -60 1244 l 1,1,-1
 448 1244 l 1,2,-1
 436 1168 l 1,3,-1
 278 1130 l 1,4,-1
 555 640 l 1,5,-1
 819 1126 l 1,6,-1
 636 1168 l 1,7,-1
 646 1244 l 1,8,-1
 1091 1244 l 1,9,-1
 1081 1168 l 1,10,-1
 956 1130 l 1,11,-1
 611 529 l 1,12,-1
 611 114 l 1,13,-1
 774 80 l 1,14,-1
 764 0 l 1,15,-1
 258 0 l 1,16,-1
 268 74 l 1,17,-1
 418 121 l 1,18,-1
 418 504 l 1,19,-1
 65 1126 l 1,20,-1
 -73 1168 l 1,0,-1
455 1380 m 1,21,-1
 578 1705 l 1,22,-1
 689 1666 l 1,23,-1
 506 1348 l 1,24,-1
 455 1380 l 1,21,-1
EndSplineSet
EndChar

StartChar: Thorn
Encoding: 222 222 159
Width: 1084
GlyphClass: 2
Flags: W
LayerCount: 2
Fore
SplineSet
423 1020 m 1,0,-1
 547 1024 l 1,1,2
 1048 1024 1048 1024 1048 660 c 0,3,4
 1048 544 1048 544 987.5 452 c 128,-1,5
 927 360 927 360 826 310 c 128,-1,6
 725 260 725 260 604 260 c 0,7,8
 547 260 547 260 487 266 c 1,9,-1
 470 351 l 1,10,11
 652 341 652 341 746.5 410 c 128,-1,12
 841 479 841 479 841 619.5 c 128,-1,13
 841 760 841 760 763 843 c 128,-1,14
 685 926 685 926 529 926 c 1,15,-1
 423 919 l 1,16,-1
 423 121 l 1,17,-1
 660 83 l 1,18,-1
 647 -1 l 1,19,-1
 54 -1 l 1,20,-1
 64 73 l 1,21,-1
 232 119 l 1,22,-1
 232 1126 l 1,23,-1
 50 1168 l 1,24,-1
 61 1244 l 1,25,-1
 604 1244 l 1,26,-1
 594 1168 l 1,27,-1
 423 1130 l 1,28,-1
 423 1020 l 1,0,-1
EndSplineSet
EndChar

StartChar: germandbls
Encoding: 223 223 160
Width: 1116
GlyphClass: 2
Flags: W
LayerCount: 2
Fore
SplineSet
34 0 m 1,0,-1
 46 73 l 1,1,-1
 198 116 l 1,2,-1
 198 784 l 1,3,-1
 53 784 l 1,4,-1
 62 849 l 1,5,-1
 200 872 l 1,6,7
 208 984 208 984 258.5 1082 c 128,-1,8
 309 1180 309 1180 400 1242.5 c 128,-1,9
 491 1305 491 1305 606 1305 c 128,-1,10
 721 1305 721 1305 793.5 1233 c 128,-1,11
 866 1161 866 1161 866 1053 c 0,12,13
 866 949 866 949 790 872 c 2,14,-1
 728 810 l 1,15,16
 652 739 652 739 652 693.5 c 128,-1,17
 652 648 652 648 676.5 618 c 128,-1,18
 701 588 701 588 740 564 c 128,-1,19
 779 540 779 540 826.5 516 c 128,-1,20
 874 492 874 492 921.5 464.5 c 128,-1,21
 969 437 969 437 1008 404 c 0,22,23
 1096 331 1096 331 1096 223 c 128,-1,24
 1096 115 1096 115 1002.5 42 c 128,-1,25
 909 -31 909 -31 784.5 -31 c 128,-1,26
 660 -31 660 -31 579 20.5 c 128,-1,27
 498 72 498 72 498 138 c 128,-1,28
 498 204 498 204 534.5 238 c 128,-1,29
 571 272 571 272 629 275 c 1,30,31
 651 180 651 180 706 123.5 c 128,-1,32
 761 67 761 67 821 67 c 128,-1,33
 881 67 881 67 916 88.5 c 128,-1,34
 951 110 951 110 951 157.5 c 128,-1,35
 951 205 951 205 907 240.5 c 128,-1,36
 863 276 863 276 800 309 c 128,-1,37
 737 342 737 342 674 380.5 c 128,-1,38
 611 419 611 419 567 479.5 c 128,-1,39
 523 540 523 540 523 603 c 128,-1,40
 523 666 523 666 542.5 710.5 c 128,-1,41
 562 755 562 755 590 788 c 2,42,-1
 646 852 l 1,43,44
 712 925 712 925 712 1004 c 128,-1,45
 712 1083 712 1083 662 1140.5 c 128,-1,46
 612 1198 612 1198 529 1198 c 0,47,48
 365 1198 365 1198 365 909 c 2,49,-1
 366 0 l 1,50,-1
 34 0 l 1,0,-1
EndSplineSet
EndChar

StartChar: agrave
Encoding: 224 224 161
Width: 830
GlyphClass: 2
Flags: W
LayerCount: 2
Fore
SplineSet
203 215 m 0,0,1
 203 173 203 173 233.5 136 c 128,-1,2
 264 99 264 99 313.5 99 c 128,-1,3
 363 99 363 99 411 127 c 128,-1,4
 459 155 459 155 489 188 c 1,5,-1
 489 428 l 1,6,7
 333 397 333 397 268 344.5 c 128,-1,8
 203 292 203 292 203 215 c 0,0,1
85 28 m 128,-1,10
 28 80 28 80 28 152.5 c 128,-1,11
 28 225 28 225 55 276.5 c 128,-1,12
 82 328 82 328 136 372 c 1,13,14
 251 469 251 469 489 485 c 1,15,-1
 489 540 l 2,16,17
 489 807 489 807 312 807 c 0,18,19
 257 807 257 807 241.5 787 c 128,-1,20
 226 767 226 767 220 744 c 0,21,22
 201 669 201 669 201 592 c 1,23,24
 126 592 126 592 104 609 c 0,25,26
 62 641 62 641 62 694 c 128,-1,27
 62 747 62 747 119 795.5 c 128,-1,28
 176 844 176 844 255 872 c 128,-1,29
 334 900 334 900 404 900 c 0,30,31
 536 900 536 900 593.5 826.5 c 128,-1,32
 651 753 651 753 651 593 c 2,33,-1
 651 230 l 2,34,35
 651 160 651 160 672.5 133.5 c 128,-1,36
 694 107 694 107 763 96 c 1,37,-1
 813 87 l 1,38,-1
 800 1 l 1,39,40
 792 0 792 0 745.5 -9 c 128,-1,41
 699 -18 699 -18 664 -18 c 0,42,43
 585 -18 585 -18 547 23 c 128,-1,44
 509 64 509 64 509 116 c 2,45,-1
 509 131 l 1,46,-1
 498 131 l 1,47,48
 474 82 474 82 427 45 c 0,49,50
 341 -24 341 -24 241.5 -24 c 128,-1,9
 142 -24 142 -24 85 28 c 128,-1,10
158 1291 m 1,51,-1
 273 1329 l 1,52,-1
 405 996 l 1,53,-1
 349 961 l 1,54,-1
 158 1291 l 1,51,-1
EndSplineSet
EndChar

StartChar: aacute
Encoding: 225 225 162
Width: 830
GlyphClass: 2
Flags: W
LayerCount: 2
Fore
SplineSet
328 1017 m 1,0,-1
 451 1342 l 1,1,-1
 562 1302 l 1,2,-1
 380 985 l 1,3,-1
 328 1017 l 1,0,-1
222 215 m 0,4,5
 222 173 222 173 252.5 136 c 128,-1,6
 283 99 283 99 332.5 99 c 128,-1,7
 382 99 382 99 430 127 c 128,-1,8
 478 155 478 155 508 188 c 1,9,-1
 508 428 l 1,10,11
 352 397 352 397 287 344.5 c 128,-1,12
 222 292 222 292 222 215 c 0,4,5
508 540 m 2,13,14
 508 804 508 804 331 804 c 0,15,16
 268 804 268 804 249 752 c 0,17,18
 229 699 229 699 220 592 c 1,19,20
 145 592 145 592 123 609 c 0,21,22
 81 641 81 641 81 694 c 128,-1,23
 81 747 81 747 138 795.5 c 128,-1,24
 195 844 195 844 274 872 c 128,-1,25
 353 900 353 900 423 900 c 0,26,27
 555 900 555 900 612.5 826.5 c 128,-1,28
 670 753 670 753 670 593 c 2,29,-1
 670 230 l 2,30,31
 670 160 670 160 691.5 133.5 c 128,-1,32
 713 107 713 107 782 96 c 1,33,-1
 832 87 l 1,34,-1
 819 1 l 1,35,36
 811 0 811 0 764.5 -9 c 128,-1,37
 718 -18 718 -18 683 -18 c 0,38,39
 604 -18 604 -18 566 23 c 128,-1,40
 528 64 528 64 528 116 c 2,41,-1
 528 131 l 1,42,-1
 517 131 l 1,43,44
 492 82 492 82 446 45 c 0,45,46
 360 -24 360 -24 260.5 -24 c 128,-1,47
 161 -24 161 -24 104 28 c 128,-1,48
 47 80 47 80 47 152.5 c 128,-1,49
 47 225 47 225 74 276.5 c 128,-1,50
 101 328 101 328 154 372 c 0,51,52
 270 469 270 469 508 485 c 1,53,-1
 508 540 l 2,13,14
EndSplineSet
EndChar

StartChar: acircumflex
Encoding: 226 226 163
Width: 830
GlyphClass: 2
Flags: W
LayerCount: 2
Fore
SplineSet
222 215 m 0,0,1
 222 173 222 173 252.5 136 c 128,-1,2
 283 99 283 99 332.5 99 c 128,-1,3
 382 99 382 99 430 127 c 128,-1,4
 478 155 478 155 508 188 c 1,5,-1
 508 428 l 1,6,7
 352 397 352 397 287 344.5 c 128,-1,8
 222 292 222 292 222 215 c 0,0,1
211 1024 m 1,9,-1
 380 1203 l 1,10,-1
 434 1217 l 1,11,-1
 611 1032 l 1,12,-1
 562 995 l 1,13,-1
 399 1104 l 1,14,-1
 389 1104 l 1,15,-1
 249 993 l 1,16,-1
 211 1024 l 1,9,-1
508 540 m 2,17,18
 508 804 508 804 331 804 c 0,19,20
 268 804 268 804 249 752 c 0,21,22
 229 699 229 699 220 592 c 1,23,24
 145 592 145 592 123 609 c 0,25,26
 81 641 81 641 81 694 c 128,-1,27
 81 747 81 747 138 795.5 c 128,-1,28
 195 844 195 844 274 872 c 128,-1,29
 353 900 353 900 423 900 c 0,30,31
 555 900 555 900 612.5 826.5 c 128,-1,32
 670 753 670 753 670 593 c 2,33,-1
 670 230 l 2,34,35
 670 160 670 160 691.5 133.5 c 128,-1,36
 713 107 713 107 782 96 c 1,37,-1
 832 87 l 1,38,-1
 819 1 l 1,39,40
 811 0 811 0 764.5 -9 c 128,-1,41
 718 -18 718 -18 683 -18 c 0,42,43
 604 -18 604 -18 566 23 c 128,-1,44
 528 64 528 64 528 116 c 2,45,-1
 528 131 l 1,46,-1
 517 131 l 1,47,48
 492 82 492 82 446 45 c 0,49,50
 360 -24 360 -24 260.5 -24 c 128,-1,51
 161 -24 161 -24 104 28 c 128,-1,52
 47 80 47 80 47 152.5 c 128,-1,53
 47 225 47 225 74 276.5 c 128,-1,54
 101 328 101 328 154 372 c 0,55,56
 270 469 270 469 508 485 c 1,57,-1
 508 540 l 2,17,18
EndSplineSet
EndChar

StartChar: atilde
Encoding: 227 227 164
Width: 830
GlyphClass: 2
Flags: W
LayerCount: 2
Fore
SplineSet
222 215 m 0,0,1
 222 173 222 173 252.5 136 c 128,-1,2
 283 99 283 99 332.5 99 c 128,-1,3
 382 99 382 99 430 127 c 128,-1,4
 478 155 478 155 508 188 c 1,5,-1
 508 428 l 1,6,7
 352 397 352 397 287 344.5 c 128,-1,8
 222 292 222 292 222 215 c 0,0,1
271 1054 m 2,9,10
 247 1054 247 1054 212 1007 c 1,11,-1
 175 1015 l 1,12,13
 182 1059 182 1059 205 1093 c 0,14,15
 247 1158 247 1158 296 1158 c 0,16,17
 305 1158 305 1158 309 1157 c 2,18,-1
 532 1127 l 1,19,-1
 537 1127 l 2,20,21
 560 1127 560 1127 592 1169 c 1,22,-1
 640 1167 l 1,23,24
 592 1023 592 1023 510 1023 c 0,25,26
 501 1023 501 1023 497 1024 c 2,27,-1
 275 1054 l 1,28,-1
 271 1054 l 2,9,10
508 540 m 2,29,30
 508 804 508 804 331 804 c 0,31,32
 268 804 268 804 249 752 c 0,33,34
 229 699 229 699 220 592 c 1,35,36
 145 592 145 592 123 609 c 0,37,38
 81 641 81 641 81 694 c 128,-1,39
 81 747 81 747 138 795.5 c 128,-1,40
 195 844 195 844 274 872 c 128,-1,41
 353 900 353 900 423 900 c 0,42,43
 555 900 555 900 612.5 826.5 c 128,-1,44
 670 753 670 753 670 593 c 2,45,-1
 670 230 l 2,46,47
 670 160 670 160 691.5 133.5 c 128,-1,48
 713 107 713 107 782 96 c 1,49,-1
 832 87 l 1,50,-1
 819 1 l 1,51,52
 811 0 811 0 764.5 -9 c 128,-1,53
 718 -18 718 -18 683 -18 c 0,54,55
 604 -18 604 -18 566 23 c 128,-1,56
 528 64 528 64 528 116 c 2,57,-1
 528 131 l 1,58,-1
 517 131 l 1,59,60
 492 82 492 82 446 45 c 0,61,62
 360 -24 360 -24 260.5 -24 c 128,-1,63
 161 -24 161 -24 104 28 c 128,-1,64
 47 80 47 80 47 152.5 c 128,-1,65
 47 225 47 225 74 276.5 c 128,-1,66
 101 328 101 328 154 372 c 0,67,68
 270 469 270 469 508 485 c 1,69,-1
 508 540 l 2,29,30
EndSplineSet
EndChar

StartChar: adieresis
Encoding: 228 228 165
Width: 830
GlyphClass: 2
Flags: W
LayerCount: 2
Fore
SplineSet
481.5 1026.5 m 128,-1,1
 457 1049 457 1049 457 1083.5 c 128,-1,2
 457 1118 457 1118 482.5 1140.5 c 128,-1,3
 508 1163 508 1163 541 1163 c 128,-1,4
 574 1163 574 1163 601 1140 c 128,-1,5
 628 1117 628 1117 628 1083 c 128,-1,6
 628 1049 628 1049 601.5 1026.5 c 128,-1,7
 575 1004 575 1004 540.5 1004 c 128,-1,0
 506 1004 506 1004 481.5 1026.5 c 128,-1,1
222 215 m 0,8,9
 222 173 222 173 252.5 136 c 128,-1,10
 283 99 283 99 332.5 99 c 128,-1,11
 382 99 382 99 430 127 c 128,-1,12
 478 155 478 155 508 188 c 1,13,-1
 508 428 l 1,14,15
 352 397 352 397 287 344.5 c 128,-1,16
 222 292 222 292 222 215 c 0,8,9
214 1026.5 m 128,-1,18
 189 1049 189 1049 189 1083.5 c 128,-1,19
 189 1118 189 1118 215 1140.5 c 128,-1,20
 241 1163 241 1163 274 1163 c 128,-1,21
 307 1163 307 1163 333 1140.5 c 128,-1,22
 359 1118 359 1118 359 1083.5 c 128,-1,23
 359 1049 359 1049 333.5 1026.5 c 128,-1,24
 308 1004 308 1004 273.5 1004 c 128,-1,17
 239 1004 239 1004 214 1026.5 c 128,-1,18
508 540 m 2,25,26
 508 804 508 804 331 804 c 0,27,28
 268 804 268 804 249 752 c 0,29,30
 229 699 229 699 220 592 c 1,31,32
 145 592 145 592 123 609 c 0,33,34
 81 641 81 641 81 694 c 128,-1,35
 81 747 81 747 138 795.5 c 128,-1,36
 195 844 195 844 274 872 c 128,-1,37
 353 900 353 900 423 900 c 0,38,39
 555 900 555 900 612.5 826.5 c 128,-1,40
 670 753 670 753 670 593 c 2,41,-1
 670 230 l 2,42,43
 670 160 670 160 691.5 133.5 c 128,-1,44
 713 107 713 107 782 96 c 1,45,-1
 832 87 l 1,46,-1
 819 1 l 1,47,48
 811 0 811 0 764.5 -9 c 128,-1,49
 718 -18 718 -18 683 -18 c 0,50,51
 604 -18 604 -18 566 23 c 128,-1,52
 528 64 528 64 528 116 c 2,53,-1
 528 131 l 1,54,-1
 517 131 l 1,55,56
 492 82 492 82 446 45 c 0,57,58
 360 -24 360 -24 260.5 -24 c 128,-1,59
 161 -24 161 -24 104 28 c 128,-1,60
 47 80 47 80 47 152.5 c 128,-1,61
 47 225 47 225 74 276.5 c 128,-1,62
 101 328 101 328 154 372 c 0,63,64
 270 469 270 469 508 485 c 1,65,-1
 508 540 l 2,25,26
EndSplineSet
EndChar

StartChar: aring
Encoding: 229 229 166
Width: 830
GlyphClass: 2
Flags: W
LayerCount: 2
Fore
SplineSet
320 1257.5 m 128,-1,1
 298 1224 298 1224 298 1176 c 128,-1,2
 298 1128 298 1128 323.5 1089 c 128,-1,3
 349 1050 349 1050 392 1050 c 0,4,5
 480 1050 480 1050 480 1164 c 0,6,7
 480 1214 480 1214 454 1252.5 c 128,-1,8
 428 1291 428 1291 385 1291 c 128,-1,0
 342 1291 342 1291 320 1257.5 c 128,-1,1
270.5 1046.5 m 128,-1,10
 228 1091 228 1091 228 1163.5 c 128,-1,11
 228 1236 228 1236 277.5 1287 c 128,-1,12
 327 1338 327 1338 397 1338 c 128,-1,13
 467 1338 467 1338 509 1293 c 128,-1,14
 551 1248 551 1248 551 1177.5 c 128,-1,15
 551 1107 551 1107 504 1054.5 c 128,-1,16
 457 1002 457 1002 385 1002 c 128,-1,9
 313 1002 313 1002 270.5 1046.5 c 128,-1,10
222 215 m 0,17,18
 222 173 222 173 252.5 136 c 128,-1,19
 283 99 283 99 332.5 99 c 128,-1,20
 382 99 382 99 430 127 c 128,-1,21
 478 155 478 155 508 188 c 1,22,-1
 508 428 l 1,23,24
 352 397 352 397 287 344.5 c 128,-1,25
 222 292 222 292 222 215 c 0,17,18
508 540 m 2,26,27
 508 804 508 804 331 804 c 0,28,29
 268 804 268 804 249 752 c 0,30,31
 229 699 229 699 220 592 c 1,32,33
 145 592 145 592 123 609 c 0,34,35
 81 641 81 641 81 694 c 128,-1,36
 81 747 81 747 138 795.5 c 128,-1,37
 195 844 195 844 274 872 c 128,-1,38
 353 900 353 900 423 900 c 0,39,40
 555 900 555 900 612.5 826.5 c 128,-1,41
 670 753 670 753 670 593 c 2,42,-1
 670 230 l 2,43,44
 670 160 670 160 691.5 133.5 c 128,-1,45
 713 107 713 107 782 96 c 1,46,-1
 832 87 l 1,47,-1
 819 1 l 1,48,49
 811 0 811 0 764.5 -9 c 128,-1,50
 718 -18 718 -18 683 -18 c 0,51,52
 604 -18 604 -18 566 23 c 128,-1,53
 528 64 528 64 528 116 c 2,54,-1
 528 131 l 1,55,-1
 517 131 l 1,56,57
 492 82 492 82 446 45 c 0,58,59
 360 -24 360 -24 260.5 -24 c 128,-1,60
 161 -24 161 -24 104 28 c 128,-1,61
 47 80 47 80 47 152.5 c 128,-1,62
 47 225 47 225 74 276.5 c 128,-1,63
 101 328 101 328 154 372 c 0,64,65
 270 469 270 469 508 485 c 1,66,-1
 508 540 l 2,26,27
EndSplineSet
EndChar

StartChar: ae
Encoding: 230 230 167
Width: 1238
GlyphClass: 2
Flags: W
LayerCount: 2
Fore
SplineSet
670 507 m 1,0,-1
 983 543 l 1,1,2
 992 579 992 579 992 615 c 0,3,4
 992 801 992 801 851 801 c 0,5,6
 786 801 786 801 731.5 722.5 c 128,-1,7
 677 644 677 644 670 507 c 1,0,-1
220 203 m 0,8,9
 220 83 220 83 334 83 c 0,10,11
 397 83 397 83 452 136 c 128,-1,12
 507 189 507 189 507 262 c 2,13,-1
 507 409 l 1,14,15
 324 379 324 379 269 326 c 0,16,17
 220 280 220 280 220 203 c 0,8,9
1194 104 m 1,18,19
 1066 -30 1066 -30 866 -30 c 0,20,21
 731 -30 731 -30 624 62 c 0,22,23
 566 111 566 111 552 175 c 1,24,25
 520 79 520 79 436 27.5 c 128,-1,26
 352 -24 352 -24 255 -24 c 128,-1,27
 158 -24 158 -24 101.5 23 c 128,-1,28
 45 70 45 70 45 142.5 c 128,-1,29
 45 215 45 215 67 261.5 c 128,-1,30
 89 308 89 308 140 350 c 0,31,32
 243 436 243 436 507 484 c 1,33,-1
 507 540 l 2,34,35
 507 801 507 801 341 801 c 0,36,37
 301 801 301 801 287 790 c 2,38,-1
 266 773 l 2,39,40
 258 767 258 767 252 750 c 2,41,-1
 242 724 l 2,42,43
 235 707 235 707 231 673 c 2,44,-1
 223 608 l 1,45,46
 127 608 127 608 100 654 c 0,47,48
 87 677 87 677 87 720.5 c 128,-1,49
 87 764 87 764 142.5 808.5 c 128,-1,50
 198 853 198 853 275 876.5 c 128,-1,51
 352 900 352 900 423 900 c 0,52,53
 582 900 582 900 623 777 c 1,54,55
 745 899 745 899 900 899 c 0,56,57
 1015 899 1015 899 1092 815.5 c 128,-1,58
 1169 732 1169 732 1169 581 c 0,59,60
 1169 522 1169 522 1151 445 c 1,61,-1
 670 426 l 1,62,63
 676 300 676 300 741 198 c 0,64,65
 812 86 812 86 947 86 c 0,66,67
 1002 86 1002 86 1050.5 100 c 128,-1,68
 1099 114 1099 114 1174 155 c 1,69,-1
 1194 104 l 1,18,19
EndSplineSet
EndChar

StartChar: ccedilla
Encoding: 231 231 168
Width: 783
GlyphClass: 2
Flags: W
LayerCount: 2
Fore
SplineSet
547 90 m 0,0,1
 637 90 637 90 732 151 c 1,2,-1
 758 93 l 1,3,4
 722 49 722 49 649.5 14.5 c 128,-1,5
 577 -20 577 -20 495 -28 c 1,6,-1
 461 -76 l 1,7,8
 550 -155 550 -155 550 -227 c 0,9,10
 550 -331 550 -331 351 -389 c 1,11,-1
 331 -331 l 1,12,13
 372 -317 372 -317 394.5 -294.5 c 128,-1,14
 417 -272 417 -272 417 -239.5 c 128,-1,15
 417 -207 417 -207 344 -138 c 1,16,-1
 419 -28 l 1,17,18
 255 -17 255 -17 154.5 110.5 c 128,-1,19
 54 238 54 238 54 415 c 0,20,21
 54 523 54 523 89.5 615.5 c 128,-1,22
 125 708 125 708 184 770 c 0,23,24
 309 900 309 900 477 900 c 0,25,26
 595 900 595 900 657 855.5 c 128,-1,27
 719 811 719 811 719 756 c 0,28,29
 719 650 719 650 592 642 c 1,30,31
 545 759 545 759 488 791 c 0,32,33
 461 806 461 806 430 806 c 0,34,35
 341 806 341 806 287 724.5 c 128,-1,36
 233 643 233 643 233 507 c 0,37,38
 233 369 233 369 303 236 c 0,39,40
 380 90 380 90 547 90 c 0,0,1
EndSplineSet
EndChar

StartChar: egrave
Encoding: 232 232 169
Width: 802
GlyphClass: 2
Flags: W
LayerCount: 2
Fore
SplineSet
225 523 m 1,0,-1
 539 546 l 1,1,2
 545 570 545 570 545 615 c 0,3,4
 545 801 545 801 407 801 c 0,5,6
 340 801 340 801 286 729.5 c 128,-1,7
 232 658 232 658 225 523 c 1,0,-1
750 104 m 1,8,9
 622 -30 622 -30 421 -30 c 0,10,11
 273 -30 273 -30 162 84 c 1,12,13
 45 206 45 206 45 428 c 0,14,15
 45 536 45 536 82 627.5 c 128,-1,16
 119 719 119 719 178 777 c 0,17,18
 302 899 302 899 456 899 c 0,19,20
 571 899 571 899 647 816 c 128,-1,21
 723 733 723 733 723 581 c 0,22,23
 723 519 723 519 707 451 c 1,24,-1
 223 445 l 1,25,26
 230 282 230 282 325 177 c 0,27,28
 393 102 393 102 502 102 c 0,29,30
 586 102 586 102 633 116.5 c 128,-1,31
 680 131 680 131 729 157 c 1,32,-1
 750 104 l 1,8,9
205 1291 m 1,33,-1
 320 1329 l 1,34,-1
 452 996 l 1,35,-1
 396 961 l 1,36,-1
 205 1291 l 1,33,-1
EndSplineSet
EndChar

StartChar: eacute
Encoding: 233 233 170
Width: 802
GlyphClass: 2
Flags: W
LayerCount: 2
Fore
SplineSet
225 523 m 1,0,-1
 539 546 l 1,1,2
 545 570 545 570 545 615 c 0,3,4
 545 801 545 801 407 801 c 0,5,6
 340 801 340 801 286 729.5 c 128,-1,7
 232 658 232 658 225 523 c 1,0,-1
750 104 m 1,8,9
 622 -30 622 -30 421 -30 c 0,10,11
 273 -30 273 -30 162 84 c 1,12,13
 45 206 45 206 45 428 c 0,14,15
 45 536 45 536 82 627.5 c 128,-1,16
 119 719 119 719 178 777 c 0,17,18
 302 899 302 899 456 899 c 0,19,20
 571 899 571 899 647 816 c 128,-1,21
 723 733 723 733 723 581 c 0,22,23
 723 519 723 519 707 451 c 1,24,-1
 223 445 l 1,25,26
 230 282 230 282 325 177 c 0,27,28
 393 102 393 102 502 102 c 0,29,30
 586 102 586 102 633 116.5 c 128,-1,31
 680 131 680 131 729 157 c 1,32,-1
 750 104 l 1,8,9
363 1012 m 1,33,-1
 486 1337 l 1,34,-1
 597 1298 l 1,35,-1
 414 980 l 1,36,-1
 363 1012 l 1,33,-1
EndSplineSet
EndChar

StartChar: ecircumflex
Encoding: 234 234 171
Width: 802
GlyphClass: 2
Flags: W
LayerCount: 2
Fore
SplineSet
233 1024 m 1,0,-1
 402 1203 l 1,1,-1
 457 1217 l 1,2,-1
 633 1032 l 1,3,-1
 585 995 l 1,4,-1
 421 1104 l 1,5,-1
 411 1104 l 1,6,-1
 271 993 l 1,7,-1
 233 1024 l 1,0,-1
233 523 m 1,8,-1
 547 546 l 1,9,10
 553 570 553 570 553 615 c 0,11,12
 553 801 553 801 415 801 c 0,13,14
 348 801 348 801 294 729.5 c 128,-1,15
 240 658 240 658 233 523 c 1,8,-1
758 104 m 1,16,17
 630 -30 630 -30 429 -30 c 0,18,19
 281 -30 281 -30 170 84 c 1,20,21
 53 206 53 206 53 428 c 0,22,23
 53 536 53 536 90 627.5 c 128,-1,24
 127 719 127 719 186 777 c 0,25,26
 310 899 310 899 464 899 c 0,27,28
 579 899 579 899 655 816 c 128,-1,29
 731 733 731 733 731 581 c 0,30,31
 731 519 731 519 715 451 c 1,32,-1
 231 445 l 1,33,34
 238 282 238 282 333 177 c 0,35,36
 401 102 401 102 510 102 c 2,37,-1
 516 102 l 2,38,39
 594 102 594 102 642 117 c 128,-1,40
 690 132 690 132 737 157 c 1,41,-1
 758 104 l 1,16,17
EndSplineSet
EndChar

StartChar: edieresis
Encoding: 235 235 172
Width: 802
GlyphClass: 2
Flags: W
LayerCount: 2
Fore
SplineSet
503.5 1026.5 m 128,-1,1
 479 1049 479 1049 479 1083.5 c 128,-1,2
 479 1118 479 1118 504.5 1140.5 c 128,-1,3
 530 1163 530 1163 563 1163 c 128,-1,4
 596 1163 596 1163 623 1140 c 128,-1,5
 650 1117 650 1117 650 1083 c 128,-1,6
 650 1049 650 1049 623.5 1026.5 c 128,-1,7
 597 1004 597 1004 562.5 1004 c 128,-1,0
 528 1004 528 1004 503.5 1026.5 c 128,-1,1
233 523 m 1,8,-1
 547 546 l 1,9,10
 553 570 553 570 553 615 c 0,11,12
 553 801 553 801 415 801 c 0,13,14
 348 801 348 801 294 729.5 c 128,-1,15
 240 658 240 658 233 523 c 1,8,-1
236 1026.5 m 128,-1,17
 211 1049 211 1049 211 1083.5 c 128,-1,18
 211 1118 211 1118 237 1140.5 c 128,-1,19
 263 1163 263 1163 296 1163 c 128,-1,20
 329 1163 329 1163 355 1140.5 c 128,-1,21
 381 1118 381 1118 381 1083.5 c 128,-1,22
 381 1049 381 1049 355.5 1026.5 c 128,-1,23
 330 1004 330 1004 295.5 1004 c 128,-1,16
 261 1004 261 1004 236 1026.5 c 128,-1,17
758 104 m 1,24,25
 630 -30 630 -30 429 -30 c 0,26,27
 281 -30 281 -30 170 84 c 1,28,29
 53 206 53 206 53 428 c 0,30,31
 53 536 53 536 90 627.5 c 128,-1,32
 127 719 127 719 186 777 c 0,33,34
 310 899 310 899 464 899 c 0,35,36
 579 899 579 899 655 816 c 128,-1,37
 731 733 731 733 731 581 c 0,38,39
 731 519 731 519 715 451 c 1,40,-1
 231 445 l 1,41,42
 238 282 238 282 333 177 c 0,43,44
 401 102 401 102 510 102 c 2,45,-1
 516 102 l 2,46,47
 594 102 594 102 642 117 c 128,-1,48
 690 132 690 132 737 157 c 1,49,-1
 758 104 l 1,24,25
EndSplineSet
EndChar

StartChar: igrave
Encoding: 236 236 173
Width: 539
GlyphClass: 2
Flags: W
LayerCount: 2
Fore
SplineSet
25 0 m 1,0,-1
 37 79 l 1,1,-1
 188 116 l 1,2,-1
 188 731 l 1,3,-1
 37 786 l 1,4,-1
 50 862 l 1,5,-1
 331 885 l 1,6,-1
 356 860 l 1,7,-1
 356 116 l 1,8,-1
 516 80 l 1,9,-1
 505 0 l 1,10,-1
 25 0 l 1,0,-1
18 1291 m 1,11,-1
 133 1329 l 1,12,-1
 265 996 l 1,13,-1
 209 961 l 1,14,-1
 18 1291 l 1,11,-1
EndSplineSet
EndChar

StartChar: iacute
Encoding: 237 237 174
Width: 539
GlyphClass: 2
Flags: W
LayerCount: 2
Fore
SplineSet
193 1041 m 1,0,-1
 314 1367 l 1,1,-1
 427 1327 l 1,2,-1
 243 1010 l 1,3,-1
 193 1041 l 1,0,-1
37 0 m 1,4,-1
 49 79 l 1,5,-1
 200 116 l 1,6,-1
 200 731 l 1,7,-1
 49 786 l 1,8,-1
 62 862 l 1,9,-1
 343 885 l 1,10,-1
 368 860 l 1,11,-1
 368 116 l 1,12,-1
 528 80 l 1,13,-1
 517 0 l 1,14,-1
 37 0 l 1,4,-1
EndSplineSet
EndChar

StartChar: icircumflex
Encoding: 238 238 175
Width: 539
GlyphClass: 2
Flags: W
LayerCount: 2
Fore
SplineSet
76 1048 m 1,0,-1
 243 1228 l 1,1,-1
 298 1241 l 1,2,-1
 476 1057 l 1,3,-1
 427 1019 l 1,4,-1
 263 1130 l 1,5,-1
 253 1130 l 1,6,-1
 113 1019 l 1,7,-1
 76 1048 l 1,0,-1
37 0 m 1,8,-1
 49 79 l 1,9,-1
 200 116 l 1,10,-1
 200 731 l 1,11,-1
 49 786 l 1,12,-1
 62 862 l 1,13,-1
 343 885 l 1,14,-1
 368 860 l 1,15,-1
 368 116 l 1,16,-1
 528 80 l 1,17,-1
 517 0 l 1,18,-1
 37 0 l 1,8,-1
EndSplineSet
EndChar

StartChar: idieresis
Encoding: 239 239 176
Width: 539
GlyphClass: 2
Flags: W
LayerCount: 2
Fore
SplineSet
346.5 1051 m 128,-1,1
 321 1074 321 1074 321 1108 c 128,-1,2
 321 1142 321 1142 347.5 1164 c 128,-1,3
 374 1186 374 1186 407.5 1186 c 128,-1,4
 441 1186 441 1186 467.5 1164 c 128,-1,5
 494 1142 494 1142 494 1108 c 128,-1,6
 494 1074 494 1074 467.5 1051 c 128,-1,7
 441 1028 441 1028 406.5 1028 c 128,-1,0
 372 1028 372 1028 346.5 1051 c 128,-1,1
79 1051 m 128,-1,9
 54 1074 54 1074 54 1108.5 c 128,-1,10
 54 1143 54 1143 80 1164.5 c 128,-1,11
 106 1186 106 1186 139 1186 c 128,-1,12
 172 1186 172 1186 197.5 1164 c 128,-1,13
 223 1142 223 1142 223 1107.5 c 128,-1,14
 223 1073 223 1073 197.5 1050.5 c 128,-1,15
 172 1028 172 1028 138 1028 c 128,-1,8
 104 1028 104 1028 79 1051 c 128,-1,9
37 0 m 1,16,-1
 49 79 l 1,17,-1
 200 116 l 1,18,-1
 200 731 l 1,19,-1
 49 786 l 1,20,-1
 62 862 l 1,21,-1
 343 885 l 1,22,-1
 368 860 l 1,23,-1
 368 116 l 1,24,-1
 528 80 l 1,25,-1
 517 0 l 1,26,-1
 37 0 l 1,16,-1
EndSplineSet
EndChar

StartChar: eth
Encoding: 240 240 177
Width: 912
GlyphClass: 2
Flags: W
LayerCount: 2
Fore
SplineSet
231 498 m 1,0,1
 233 298 233 298 299 184 c 128,-1,2
 365 70 365 70 472.5 70 c 128,-1,3
 580 70 580 70 624.5 160 c 128,-1,4
 669 250 669 250 669 422.5 c 128,-1,5
 669 595 669 595 595 724.5 c 128,-1,6
 521 854 521 854 432 856 c 1,7,8
 231 856 231 856 231 498 c 1,0,1
167.5 808 m 128,-1,10
 282 948 282 948 445 948 c 0,11,12
 488 948 488 948 535 927.5 c 128,-1,13
 582 907 582 907 602 857 c 1,14,-1
 608 859 l 1,15,16
 588 927 588 927 497 1071 c 1,17,-1
 282 1031 l 1,18,-1
 292 1106 l 1,19,-1
 461 1139 l 1,20,21
 393 1237 393 1237 321 1302 c 1,22,-1
 438 1302 l 1,23,24
 505 1264 505 1264 589 1171 c 1,25,-1
 740 1201 l 1,26,-1
 730 1124 l 1,27,-1
 642 1106 l 1,28,29
 842 841 842 841 842 465 c 0,30,31
 842 241 842 241 728.5 107 c 128,-1,32
 615 -27 615 -27 448 -27 c 0,33,34
 348 -27 348 -27 270 13 c 128,-1,35
 192 53 192 53 146 122 c 0,36,37
 53 260 53 260 53 464 c 128,-1,9
 53 668 53 668 167.5 808 c 128,-1,10
EndSplineSet
EndChar

StartChar: ntilde
Encoding: 241 241 178
Width: 1060
GlyphClass: 2
Flags: W
LayerCount: 2
Fore
SplineSet
400 1054 m 2,0,1
 376 1054 376 1054 341 1007 c 1,2,-1
 302 1015 l 1,3,4
 309 1057 309 1057 332 1092 c 0,5,6
 375 1158 375 1158 424 1158 c 0,7,8
 434 1158 434 1158 438 1157 c 2,9,-1
 660 1127 l 1,10,-1
 664 1127 l 2,11,12
 687 1127 687 1127 721 1169 c 1,13,-1
 768 1167 l 1,14,15
 720 1023 720 1023 638 1023 c 0,16,17
 630 1023 630 1023 626 1024 c 2,18,-1
 402 1054 l 1,19,-1
 400 1054 l 2,0,1
37 0 m 1,20,-1
 47 73 l 1,21,-1
 198 114 l 1,22,-1
 198 721 l 1,23,-1
 44 773 l 1,24,-1
 54 849 l 1,25,-1
 352 888 l 1,26,-1
 369 869 l 1,27,-1
 352 741 l 1,28,-1
 362 741 l 1,29,30
 419 809 419 809 497 854 c 128,-1,31
 575 899 575 899 677.5 899 c 128,-1,32
 780 899 780 899 842 825 c 128,-1,33
 904 751 904 751 904 616 c 2,34,-1
 904 114 l 1,35,-1
 1048 79 l 1,36,-1
 1038 0 l 1,37,-1
 589 0 l 1,38,-1
 599 73 l 1,39,-1
 737 114 l 1,40,-1
 737 577 l 2,41,42
 737 670 737 670 689.5 715.5 c 128,-1,43
 642 761 642 761 563 761 c 0,44,45
 443 761 443 761 366 675 c 1,46,-1
 366 114 l 1,47,-1
 515 79 l 1,48,-1
 501 0 l 1,49,-1
 37 0 l 1,20,-1
EndSplineSet
EndChar

StartChar: ograve
Encoding: 242 242 179
Width: 934
GlyphClass: 2
Flags: W
LayerCount: 2
Fore
SplineSet
314 1296 m 1,0,-1
 430 1334 l 1,1,-1
 562 1000 l 1,2,-1
 504 965 l 1,3,-1
 314 1296 l 1,0,-1
251.5 645 m 128,-1,5
 230 579 230 579 230 497.5 c 128,-1,6
 230 416 230 416 244.5 343 c 128,-1,7
 259 270 259 270 289 207 c 128,-1,8
 319 144 319 144 372.5 107 c 128,-1,9
 426 70 426 70 497 70 c 0,10,11
 596 70 596 70 650 156.5 c 128,-1,12
 704 243 704 243 704 340.5 c 128,-1,13
 704 438 704 438 689.5 512 c 128,-1,14
 675 586 675 586 646 652 c 128,-1,15
 617 718 617 718 565 758 c 128,-1,16
 513 798 513 798 443 798 c 128,-1,17
 373 798 373 798 323 754.5 c 128,-1,4
 273 711 273 711 251.5 645 c 128,-1,5
52 426 m 0,18,19
 52 536 52 536 88.5 628 c 128,-1,20
 125 720 125 720 186 779 c 0,21,22
 314 903 314 903 492 903 c 128,-1,23
 670 903 670 903 776 776.5 c 128,-1,24
 882 650 882 650 882 442.5 c 128,-1,25
 882 235 882 235 761.5 104 c 128,-1,26
 641 -27 641 -27 455.5 -27 c 128,-1,27
 270 -27 270 -27 161 100 c 128,-1,28
 52 227 52 227 52 426 c 0,18,19
EndSplineSet
EndChar

StartChar: oacute
Encoding: 243 243 180
Width: 934
GlyphClass: 2
Flags: W
LayerCount: 2
Fore
SplineSet
389 1017 m 1,0,-1
 512 1342 l 1,1,-1
 623 1302 l 1,2,-1
 440 985 l 1,3,-1
 389 1017 l 1,0,-1
251.5 645 m 128,-1,5
 230 579 230 579 230 497.5 c 128,-1,6
 230 416 230 416 244.5 343 c 128,-1,7
 259 270 259 270 289 207 c 128,-1,8
 319 144 319 144 372.5 107 c 128,-1,9
 426 70 426 70 497 70 c 0,10,11
 596 70 596 70 650 156.5 c 128,-1,12
 704 243 704 243 704 340.5 c 128,-1,13
 704 438 704 438 689.5 512 c 128,-1,14
 675 586 675 586 646 652 c 128,-1,15
 617 718 617 718 565 758 c 128,-1,16
 513 798 513 798 443 798 c 128,-1,17
 373 798 373 798 323 754.5 c 128,-1,4
 273 711 273 711 251.5 645 c 128,-1,5
52 426 m 0,18,19
 52 536 52 536 88.5 628 c 128,-1,20
 125 720 125 720 186 779 c 0,21,22
 314 903 314 903 492 903 c 128,-1,23
 670 903 670 903 776 776.5 c 128,-1,24
 882 650 882 650 882 442.5 c 128,-1,25
 882 235 882 235 761.5 104 c 128,-1,26
 641 -27 641 -27 455.5 -27 c 128,-1,27
 270 -27 270 -27 161 100 c 128,-1,28
 52 227 52 227 52 426 c 0,18,19
EndSplineSet
EndChar

StartChar: ocircumflex
Encoding: 244 244 181
Width: 934
GlyphClass: 2
Flags: W
LayerCount: 2
Fore
SplineSet
271 1024 m 1,0,-1
 440 1203 l 1,1,-1
 495 1217 l 1,2,-1
 673 1032 l 1,3,-1
 623 995 l 1,4,-1
 460 1104 l 1,5,-1
 449 1104 l 1,6,-1
 310 993 l 1,7,-1
 271 1024 l 1,0,-1
251.5 645 m 128,-1,9
 230 579 230 579 230 497.5 c 128,-1,10
 230 416 230 416 244.5 343 c 128,-1,11
 259 270 259 270 289 207 c 128,-1,12
 319 144 319 144 372.5 107 c 128,-1,13
 426 70 426 70 497 70 c 0,14,15
 596 70 596 70 650 156.5 c 128,-1,16
 704 243 704 243 704 340.5 c 128,-1,17
 704 438 704 438 689.5 512 c 128,-1,18
 675 586 675 586 646 652 c 128,-1,19
 617 718 617 718 565 758 c 128,-1,20
 513 798 513 798 443 798 c 128,-1,21
 373 798 373 798 323 754.5 c 128,-1,8
 273 711 273 711 251.5 645 c 128,-1,9
52 426 m 0,22,23
 52 536 52 536 88.5 628 c 128,-1,24
 125 720 125 720 186 779 c 0,25,26
 314 903 314 903 492 903 c 128,-1,27
 670 903 670 903 776 776.5 c 128,-1,28
 882 650 882 650 882 442.5 c 128,-1,29
 882 235 882 235 761.5 104 c 128,-1,30
 641 -27 641 -27 455.5 -27 c 128,-1,31
 270 -27 270 -27 161 100 c 128,-1,32
 52 227 52 227 52 426 c 0,22,23
EndSplineSet
EndChar

StartChar: otilde
Encoding: 245 245 182
Width: 934
GlyphClass: 2
Flags: W
LayerCount: 2
Fore
SplineSet
334 1054 m 2,0,1
 311 1054 311 1054 274 1007 c 1,2,-1
 236 1015 l 1,3,4
 243 1059 243 1059 266 1093 c 0,5,6
 308 1158 308 1158 357 1158 c 0,7,8
 367 1158 367 1158 371 1157 c 2,9,-1
 594 1127 l 1,10,-1
 598 1127 l 2,11,12
 621 1127 621 1127 653 1169 c 1,13,-1
 701 1167 l 1,14,15
 653 1023 653 1023 572 1023 c 0,16,17
 563 1023 563 1023 559 1024 c 2,18,-1
 337 1054 l 1,19,-1
 334 1054 l 2,0,1
251.5 645 m 128,-1,21
 230 579 230 579 230 497.5 c 128,-1,22
 230 416 230 416 244.5 343 c 128,-1,23
 259 270 259 270 289 207 c 128,-1,24
 319 144 319 144 372.5 107 c 128,-1,25
 426 70 426 70 497 70 c 0,26,27
 596 70 596 70 650 156.5 c 128,-1,28
 704 243 704 243 704 340.5 c 128,-1,29
 704 438 704 438 689.5 512 c 128,-1,30
 675 586 675 586 646 652 c 128,-1,31
 617 718 617 718 565 758 c 128,-1,32
 513 798 513 798 443 798 c 128,-1,33
 373 798 373 798 323 754.5 c 128,-1,20
 273 711 273 711 251.5 645 c 128,-1,21
52 426 m 0,34,35
 52 536 52 536 88.5 628 c 128,-1,36
 125 720 125 720 186 779 c 0,37,38
 314 903 314 903 492 903 c 128,-1,39
 670 903 670 903 776 776.5 c 128,-1,40
 882 650 882 650 882 442.5 c 128,-1,41
 882 235 882 235 761.5 104 c 128,-1,42
 641 -27 641 -27 455.5 -27 c 128,-1,43
 270 -27 270 -27 161 100 c 128,-1,44
 52 227 52 227 52 426 c 0,34,35
EndSplineSet
EndChar

StartChar: odieresis
Encoding: 246 246 183
Width: 934
GlyphClass: 2
Flags: W
LayerCount: 2
Fore
SplineSet
543 1026.5 m 128,-1,1
 518 1049 518 1049 518 1083.5 c 128,-1,2
 518 1118 518 1118 544 1140.5 c 128,-1,3
 570 1163 570 1163 603 1163 c 128,-1,4
 636 1163 636 1163 663 1140 c 128,-1,5
 690 1117 690 1117 690 1083 c 128,-1,6
 690 1049 690 1049 663.5 1026.5 c 128,-1,7
 637 1004 637 1004 602.5 1004 c 128,-1,0
 568 1004 568 1004 543 1026.5 c 128,-1,1
275.5 1026.5 m 128,-1,9
 251 1049 251 1049 251 1083.5 c 128,-1,10
 251 1118 251 1118 276.5 1140.5 c 128,-1,11
 302 1163 302 1163 335 1163 c 128,-1,12
 368 1163 368 1163 394 1140.5 c 128,-1,13
 420 1118 420 1118 420 1083.5 c 128,-1,14
 420 1049 420 1049 394.5 1026.5 c 128,-1,15
 369 1004 369 1004 334.5 1004 c 128,-1,8
 300 1004 300 1004 275.5 1026.5 c 128,-1,9
251.5 645 m 128,-1,17
 230 579 230 579 230 497.5 c 128,-1,18
 230 416 230 416 244.5 343 c 128,-1,19
 259 270 259 270 289 207 c 128,-1,20
 319 144 319 144 372.5 107 c 128,-1,21
 426 70 426 70 497 70 c 0,22,23
 596 70 596 70 650 156.5 c 128,-1,24
 704 243 704 243 704 340.5 c 128,-1,25
 704 438 704 438 689.5 512 c 128,-1,26
 675 586 675 586 646 652 c 128,-1,27
 617 718 617 718 565 758 c 128,-1,28
 513 798 513 798 443 798 c 128,-1,29
 373 798 373 798 323 754.5 c 128,-1,16
 273 711 273 711 251.5 645 c 128,-1,17
52 426 m 0,30,31
 52 536 52 536 88.5 628 c 128,-1,32
 125 720 125 720 186 779 c 0,33,34
 314 903 314 903 492 903 c 128,-1,35
 670 903 670 903 776 776.5 c 128,-1,36
 882 650 882 650 882 442.5 c 128,-1,37
 882 235 882 235 761.5 104 c 128,-1,38
 641 -27 641 -27 455.5 -27 c 128,-1,39
 270 -27 270 -27 161 100 c 128,-1,40
 52 227 52 227 52 426 c 0,30,31
EndSplineSet
EndChar

StartChar: divide
Encoding: 247 247 184
Width: 932
GlyphClass: 2
Flags: W
LayerCount: 2
Fore
SplineSet
376 702.5 m 128,-1,1
 341 739 341 739 341 788 c 128,-1,2
 341 837 341 837 376 870 c 128,-1,3
 411 903 411 903 460.5 903 c 128,-1,4
 510 903 510 903 545.5 870 c 128,-1,5
 581 837 581 837 581 788 c 128,-1,6
 581 739 581 739 545 702.5 c 128,-1,7
 509 666 509 666 460 666 c 128,-1,0
 411 666 411 666 376 702.5 c 128,-1,1
376 140.5 m 128,-1,9
 341 177 341 177 341 226 c 128,-1,10
 341 275 341 275 376 308 c 128,-1,11
 411 341 411 341 460.5 341 c 128,-1,12
 510 341 510 341 545.5 308 c 128,-1,13
 581 275 581 275 581 226 c 128,-1,14
 581 177 581 177 545 140.5 c 128,-1,15
 509 104 509 104 460 104 c 128,-1,8
 411 104 411 104 376 140.5 c 128,-1,9
55 454 m 1,16,-1
 67 560 l 1,17,-1
 879 560 l 1,18,-1
 868 454 l 1,19,-1
 55 454 l 1,16,-1
EndSplineSet
EndChar

StartChar: oslash
Encoding: 248 248 185
Width: 933
GlyphClass: 2
Flags: W
LayerCount: 2
Fore
SplineSet
40 426 m 0,0,1
 40 536 40 536 77 628 c 128,-1,2
 114 720 114 720 175 779 c 0,3,4
 303 903 303 903 477 903 c 0,5,6
 608 903 608 903 702 835 c 1,7,-1
 749 897 l 1,8,-1
 904 904 l 1,9,-1
 787 749 l 1,10,11
 872 627 872 627 872 431 c 128,-1,12
 872 235 872 235 751 104 c 128,-1,13
 630 -27 630 -27 452 -27 c 0,14,15
 331 -27 331 -27 239 26 c 1,16,-1
 187 -41 l 1,17,-1
 24 -46 l 1,18,-1
 148 102 l 1,19,20
 40 227 40 227 40 426 c 0,0,1
651 614 m 1,21,-1
 309 160 l 1,22,23
 378 70 378 70 487 70 c 0,24,25
 554 70 554 70 602 114 c 0,26,27
 693 196 693 196 693 348.5 c 128,-1,28
 693 501 693 501 651 614 c 1,21,-1
618 684 m 1,29,30
 549 798 549 798 434 798 c 0,31,32
 362 798 362 798 312 754 c 0,33,34
 220 674 220 674 220 503 c 128,-1,35
 220 332 220 332 272 221 c 1,36,-1
 618 684 l 1,29,30
EndSplineSet
EndChar

StartChar: ugrave
Encoding: 249 249 186
Width: 1002
GlyphClass: 2
Flags: W
LayerCount: 2
Fore
SplineSet
342 1296 m 1,0,-1
 458 1334 l 1,1,-1
 589 1000 l 1,2,-1
 532 965 l 1,3,-1
 342 1296 l 1,0,-1
19 783 m 1,4,-1
 33 862 l 1,5,-1
 301 883 l 1,6,-1
 326 859 l 1,7,-1
 326 317 l 2,8,9
 326 114 326 114 480 114 c 0,10,11
 591 114 591 114 666 191 c 1,12,-1
 666 722 l 1,13,-1
 507 764 l 1,14,-1
 517 856 l 1,15,-1
 811 883 l 1,16,-1
 832 859 l 1,17,-1
 832 215 l 2,18,19
 832 143 832 143 856 125 c 0,20,21
 887 101 887 101 940 89 c 2,22,-1
 986 79 l 1,23,-1
 977 -4 l 1,24,25
 898 -23 898 -23 826 -23 c 128,-1,26
 754 -23 754 -23 716.5 17 c 128,-1,27
 679 57 679 57 679 122 c 2,28,-1
 679 131 l 1,29,-1
 666 131 l 1,30,31
 560 -23 560 -23 380 -23 c 0,32,33
 157 -23 157 -23 157 267 c 2,34,-1
 157 728 l 1,35,-1
 19 783 l 1,4,-1
EndSplineSet
EndChar

StartChar: uacute
Encoding: 250 250 187
Width: 1002
GlyphClass: 2
Flags: W
LayerCount: 2
Fore
SplineSet
415 1017 m 1,0,-1
 538 1342 l 1,1,-1
 650 1302 l 1,2,-1
 467 985 l 1,3,-1
 415 1017 l 1,0,-1
19 783 m 1,4,-1
 33 862 l 1,5,-1
 301 883 l 1,6,-1
 326 859 l 1,7,-1
 326 317 l 2,8,9
 326 114 326 114 480 114 c 0,10,11
 591 114 591 114 666 191 c 1,12,-1
 666 722 l 1,13,-1
 507 764 l 1,14,-1
 517 856 l 1,15,-1
 811 883 l 1,16,-1
 832 859 l 1,17,-1
 832 215 l 2,18,19
 832 143 832 143 856 125 c 0,20,21
 887 101 887 101 940 89 c 2,22,-1
 986 79 l 1,23,-1
 977 -4 l 1,24,25
 898 -23 898 -23 826 -23 c 128,-1,26
 754 -23 754 -23 716.5 17 c 128,-1,27
 679 57 679 57 679 122 c 2,28,-1
 679 131 l 1,29,-1
 666 131 l 1,30,31
 560 -23 560 -23 380 -23 c 0,32,33
 157 -23 157 -23 157 267 c 2,34,-1
 157 728 l 1,35,-1
 19 783 l 1,4,-1
EndSplineSet
EndChar

StartChar: ucircumflex
Encoding: 251 251 188
Width: 1002
GlyphClass: 2
Flags: W
LayerCount: 2
Fore
SplineSet
299 1024 m 1,0,-1
 467 1203 l 1,1,-1
 522 1217 l 1,2,-1
 700 1032 l 1,3,-1
 650 995 l 1,4,-1
 487 1104 l 1,5,-1
 477 1104 l 1,6,-1
 338 993 l 1,7,-1
 299 1024 l 1,0,-1
19 783 m 1,8,-1
 33 862 l 1,9,-1
 301 883 l 1,10,-1
 326 859 l 1,11,-1
 326 317 l 2,12,13
 326 114 326 114 480 114 c 0,14,15
 591 114 591 114 666 191 c 1,16,-1
 666 722 l 1,17,-1
 507 764 l 1,18,-1
 517 856 l 1,19,-1
 811 883 l 1,20,-1
 832 859 l 1,21,-1
 832 215 l 2,22,23
 832 143 832 143 856 125 c 0,24,25
 887 101 887 101 940 89 c 2,26,-1
 986 79 l 1,27,-1
 977 -4 l 1,28,29
 898 -23 898 -23 826 -23 c 128,-1,30
 754 -23 754 -23 716.5 17 c 128,-1,31
 679 57 679 57 679 122 c 2,32,-1
 679 131 l 1,33,-1
 666 131 l 1,34,35
 560 -23 560 -23 380 -23 c 0,36,37
 157 -23 157 -23 157 267 c 2,38,-1
 157 728 l 1,39,-1
 19 783 l 1,8,-1
EndSplineSet
EndChar

StartChar: udieresis
Encoding: 252 252 189
Width: 1002
GlyphClass: 2
Flags: W
LayerCount: 2
Fore
SplineSet
570.5 1026.5 m 128,-1,1
 546 1049 546 1049 546 1083.5 c 128,-1,2
 546 1118 546 1118 571.5 1140.5 c 128,-1,3
 597 1163 597 1163 630 1163 c 128,-1,4
 663 1163 663 1163 690 1140 c 128,-1,5
 717 1117 717 1117 717 1083 c 128,-1,6
 717 1049 717 1049 690.5 1026.5 c 128,-1,7
 664 1004 664 1004 629.5 1004 c 128,-1,0
 595 1004 595 1004 570.5 1026.5 c 128,-1,1
303.5 1026.5 m 128,-1,9
 279 1049 279 1049 279 1083.5 c 128,-1,10
 279 1118 279 1118 304.5 1140.5 c 128,-1,11
 330 1163 330 1163 363 1163 c 128,-1,12
 396 1163 396 1163 422 1140.5 c 128,-1,13
 448 1118 448 1118 448 1083.5 c 128,-1,14
 448 1049 448 1049 422.5 1026.5 c 128,-1,15
 397 1004 397 1004 362.5 1004 c 128,-1,8
 328 1004 328 1004 303.5 1026.5 c 128,-1,9
19 783 m 1,16,-1
 33 862 l 1,17,-1
 301 883 l 1,18,-1
 326 859 l 1,19,-1
 326 317 l 2,20,21
 326 114 326 114 480 114 c 0,22,23
 591 114 591 114 666 191 c 1,24,-1
 666 722 l 1,25,-1
 507 764 l 1,26,-1
 517 856 l 1,27,-1
 811 883 l 1,28,-1
 832 859 l 1,29,-1
 832 215 l 2,30,31
 832 143 832 143 856 125 c 0,32,33
 887 101 887 101 940 89 c 2,34,-1
 986 79 l 1,35,-1
 977 -4 l 1,36,37
 898 -23 898 -23 826 -23 c 128,-1,38
 754 -23 754 -23 716.5 17 c 128,-1,39
 679 57 679 57 679 122 c 2,40,-1
 679 131 l 1,41,-1
 666 131 l 1,42,43
 560 -23 560 -23 380 -23 c 0,44,45
 157 -23 157 -23 157 267 c 2,46,-1
 157 728 l 1,47,-1
 19 783 l 1,16,-1
EndSplineSet
EndChar

StartChar: yacute
Encoding: 253 253 190
Width: 931
GlyphClass: 2
Flags: W
LayerCount: 2
Fore
SplineSet
46 -343 m 128,-1,1
 2 -306 2 -306 2 -248 c 128,-1,2
 2 -190 2 -190 58 -141 c 1,3,4
 135 -194 135 -194 209 -194 c 0,5,6
 290 -194 290 -194 338 -128 c 0,7,8
 360 -97 360 -97 380 -49 c 2,9,-1
 400 0 l 1,10,-1
 115 758 l 1,11,-1
 -9 796 l 1,12,-1
 2 873 l 1,13,-1
 422 873 l 1,14,-1
 413 799 l 1,15,-1
 286 761 l 1,16,-1
 490 222 l 1,17,-1
 706 756 l 1,18,-1
 575 798 l 1,19,-1
 589 873 l 1,20,-1
 931 873 l 1,21,-1
 924 799 l 1,22,-1
 823 758 l 1,23,-1
 492 -53 l 2,24,25
 415 -242 415 -242 343 -311 c 128,-1,26
 271 -380 271 -380 156 -380 c 0,27,0
 90 -380 90 -380 46 -343 c 128,-1,1
408 1012 m 1,28,-1
 531 1337 l 1,29,-1
 642 1298 l 1,30,-1
 459 980 l 1,31,-1
 408 1012 l 1,28,-1
EndSplineSet
EndChar

StartChar: thorn
Encoding: 254 254 191
Width: 937
GlyphClass: 2
Flags: W
LayerCount: 2
Fore
SplineSet
-15 -366 m 1,0,-1
 -8 -287 l 1,1,-1
 145 -251 l 1,2,-1
 143 1117 l 1,3,-1
 -9 1171 l 1,4,-1
 4 1247 l 1,5,-1
 287 1268 l 1,6,-1
 311 1245 l 1,7,-1
 311 849 l 1,8,-1
 297 744 l 1,9,-1
 308 744 l 1,10,11
 407 857 407 857 490 883 c 0,12,13
 530 896 530 896 577 896 c 0,14,15
 710 896 710 896 797 781.5 c 128,-1,16
 884 667 884 667 884 464 c 128,-1,17
 884 261 884 261 765 124 c 128,-1,18
 646 -13 646 -13 470 -13 c 0,19,20
 411 -13 411 -13 369 1 c 1,21,-1
 366 102 l 1,22,23
 498 79 498 79 566 118 c 0,24,25
 696 193 696 193 696 408 c 0,26,27
 696 767 696 767 507 767 c 0,28,29
 396 767 396 767 308 675 c 1,30,-1
 308 -251 l 1,31,-1
 463 -285 l 1,32,-1
 451 -366 l 1,33,-1
 -15 -366 l 1,0,-1
EndSplineSet
EndChar

StartChar: ydieresis
Encoding: 255 255 192
Width: 931
GlyphClass: 2
Flags: W
LayerCount: 2
Fore
SplineSet
46 -343 m 128,-1,1
 2 -306 2 -306 2 -248 c 128,-1,2
 2 -190 2 -190 58 -141 c 1,3,4
 135 -194 135 -194 209 -194 c 0,5,6
 290 -194 290 -194 338 -128 c 0,7,8
 360 -97 360 -97 380 -49 c 2,9,-1
 400 0 l 1,10,-1
 115 758 l 1,11,-1
 -9 796 l 1,12,-1
 2 873 l 1,13,-1
 422 873 l 1,14,-1
 413 799 l 1,15,-1
 286 761 l 1,16,-1
 490 222 l 1,17,-1
 706 756 l 1,18,-1
 575 798 l 1,19,-1
 589 873 l 1,20,-1
 931 873 l 1,21,-1
 924 799 l 1,22,-1
 823 758 l 1,23,-1
 492 -53 l 2,24,25
 415 -242 415 -242 343 -311 c 128,-1,26
 271 -380 271 -380 156 -380 c 0,27,0
 90 -380 90 -380 46 -343 c 128,-1,1
548.5 1038.5 m 128,-1,29
 523 1062 523 1062 523 1096 c 128,-1,30
 523 1130 523 1130 549.5 1152 c 128,-1,31
 576 1174 576 1174 609 1174 c 128,-1,32
 642 1174 642 1174 668.5 1152 c 128,-1,33
 695 1130 695 1130 695 1096 c 128,-1,34
 695 1062 695 1062 668.5 1038.5 c 128,-1,35
 642 1015 642 1015 608 1015 c 128,-1,28
 574 1015 574 1015 548.5 1038.5 c 128,-1,29
280.5 1038.5 m 128,-1,37
 255 1062 255 1062 255 1096 c 128,-1,38
 255 1130 255 1130 281.5 1152 c 128,-1,39
 308 1174 308 1174 341 1174 c 128,-1,40
 374 1174 374 1174 400 1152 c 128,-1,41
 426 1130 426 1130 426 1095.5 c 128,-1,42
 426 1061 426 1061 400 1038 c 128,-1,43
 374 1015 374 1015 340 1015 c 128,-1,36
 306 1015 306 1015 280.5 1038.5 c 128,-1,37
EndSplineSet
EndChar

StartChar: Amacron
Encoding: 256 256 193
Width: 1234
GlyphClass: 2
Flags: W
LayerCount: 2
Fore
SplineSet
415 1383 m 1,0,-1
 429 1484 l 1,1,-1
 869 1484 l 1,2,-1
 856 1383 l 1,3,-1
 415 1383 l 1,0,-1
406 534 m 1,4,-1
 758 534 l 1,5,-1
 592 1034 l 1,6,-1
 406 534 l 1,4,-1
-37 0 m 1,7,-1
 -28 74 l 1,8,-1
 121 129 l 1,9,-1
 559 1237 l 1,10,-1
 710 1268 l 1,11,-1
 1100 124 l 1,12,-1
 1237 80 l 1,13,-1
 1228 0 l 1,14,-1
 713 0 l 1,15,-1
 725 74 l 1,16,-1
 896 129 l 1,17,-1
 787 432 l 1,18,-1
 368 432 l 1,19,-1
 256 124 l 1,20,-1
 442 80 l 1,21,-1
 431 0 l 1,22,-1
 -37 0 l 1,7,-1
EndSplineSet
EndChar

StartChar: amacron
Encoding: 257 257 194
Width: 830
GlyphClass: 2
Flags: W
LayerCount: 2
Fore
SplineSet
222 215 m 0,0,1
 222 173 222 173 252.5 136 c 128,-1,2
 283 99 283 99 332.5 99 c 128,-1,3
 382 99 382 99 430 127 c 128,-1,4
 478 155 478 155 508 188 c 1,5,-1
 508 428 l 1,6,7
 352 397 352 397 287 344.5 c 128,-1,8
 222 292 222 292 222 215 c 0,0,1
182 1015 m 1,9,-1
 196 1116 l 1,10,-1
 636 1116 l 1,11,-1
 623 1015 l 1,12,-1
 182 1015 l 1,9,-1
508 540 m 2,13,14
 508 804 508 804 331 804 c 0,15,16
 268 804 268 804 249 752 c 0,17,18
 229 699 229 699 220 592 c 1,19,20
 145 592 145 592 123 609 c 0,21,22
 81 641 81 641 81 694 c 128,-1,23
 81 747 81 747 138 795.5 c 128,-1,24
 195 844 195 844 274 872 c 128,-1,25
 353 900 353 900 423 900 c 0,26,27
 555 900 555 900 612.5 826.5 c 128,-1,28
 670 753 670 753 670 593 c 2,29,-1
 670 230 l 2,30,31
 670 160 670 160 691.5 133.5 c 128,-1,32
 713 107 713 107 782 96 c 1,33,-1
 832 87 l 1,34,-1
 819 1 l 1,35,36
 811 0 811 0 764.5 -9 c 128,-1,37
 718 -18 718 -18 683 -18 c 0,38,39
 604 -18 604 -18 566 23 c 128,-1,40
 528 64 528 64 528 116 c 2,41,-1
 528 131 l 1,42,-1
 517 131 l 1,43,44
 492 82 492 82 446 45 c 0,45,46
 360 -24 360 -24 260.5 -24 c 128,-1,47
 161 -24 161 -24 104 28 c 128,-1,48
 47 80 47 80 47 152.5 c 128,-1,49
 47 225 47 225 74 276.5 c 128,-1,50
 101 328 101 328 154 372 c 0,51,52
 270 469 270 469 508 485 c 1,53,-1
 508 540 l 2,13,14
EndSplineSet
EndChar

StartChar: Abreve
Encoding: 258 258 195
Width: 1234
GlyphClass: 2
Flags: W
LayerCount: 2
Fore
SplineSet
451 1556 m 1,0,-1
 497 1589 l 1,1,-1
 506 1572 l 1,2,3
 522 1538 522 1538 558 1512.5 c 128,-1,4
 594 1487 594 1487 640 1487 c 0,5,6
 729 1487 729 1487 783 1573 c 1,7,-1
 793 1590 l 1,8,-1
 833 1561 l 1,9,10
 806 1476 806 1476 757 1427.5 c 128,-1,11
 708 1379 708 1379 637.5 1379 c 128,-1,12
 567 1379 567 1379 520 1425 c 128,-1,13
 473 1471 473 1471 457 1536 c 1,14,-1
 451 1556 l 1,0,-1
406 534 m 1,15,-1
 758 534 l 1,16,-1
 592 1034 l 1,17,-1
 406 534 l 1,15,-1
-37 0 m 1,18,-1
 -28 74 l 1,19,-1
 121 129 l 1,20,-1
 559 1237 l 1,21,-1
 710 1268 l 1,22,-1
 1100 124 l 1,23,-1
 1237 80 l 1,24,-1
 1228 0 l 1,25,-1
 713 0 l 1,26,-1
 725 74 l 1,27,-1
 896 129 l 1,28,-1
 787 432 l 1,29,-1
 368 432 l 1,30,-1
 256 124 l 1,31,-1
 442 80 l 1,32,-1
 431 0 l 1,33,-1
 -37 0 l 1,18,-1
EndSplineSet
EndChar

StartChar: abreve
Encoding: 259 259 196
Width: 830
GlyphClass: 2
Flags: W
LayerCount: 2
Fore
SplineSet
222 215 m 0,0,1
 222 173 222 173 252.5 136 c 128,-1,2
 283 99 283 99 332.5 99 c 128,-1,3
 382 99 382 99 430 127 c 128,-1,4
 478 155 478 155 508 188 c 1,5,-1
 508 428 l 1,6,7
 352 397 352 397 287 344.5 c 128,-1,8
 222 292 222 292 222 215 c 0,0,1
220 1188 m 1,9,-1
 266 1220 l 1,10,11
 313 1120 313 1120 405.5 1120 c 128,-1,12
 498 1120 498 1120 551 1204 c 1,13,-1
 561 1222 l 1,14,-1
 602 1194 l 1,15,-1
 595 1173 l 2,16,17
 571 1104 571 1104 524 1057.5 c 128,-1,18
 477 1011 477 1011 406.5 1011 c 128,-1,19
 336 1011 336 1011 288 1058 c 0,20,21
 237 1107 237 1107 220 1188 c 1,9,-1
508 540 m 2,22,23
 508 804 508 804 331 804 c 0,24,25
 268 804 268 804 249 752 c 0,26,27
 229 699 229 699 220 592 c 1,28,29
 145 592 145 592 123 609 c 0,30,31
 81 641 81 641 81 694 c 128,-1,32
 81 747 81 747 138 795.5 c 128,-1,33
 195 844 195 844 274 872 c 128,-1,34
 353 900 353 900 423 900 c 0,35,36
 555 900 555 900 612.5 826.5 c 128,-1,37
 670 753 670 753 670 593 c 2,38,-1
 670 230 l 2,39,40
 670 160 670 160 691.5 133.5 c 128,-1,41
 713 107 713 107 782 96 c 1,42,-1
 832 87 l 1,43,-1
 819 1 l 1,44,45
 811 0 811 0 764.5 -9 c 128,-1,46
 718 -18 718 -18 683 -18 c 0,47,48
 604 -18 604 -18 566 23 c 128,-1,49
 528 64 528 64 528 116 c 2,50,-1
 528 131 l 1,51,-1
 517 131 l 1,52,53
 492 82 492 82 446 45 c 0,54,55
 360 -24 360 -24 260.5 -24 c 128,-1,56
 161 -24 161 -24 104 28 c 128,-1,57
 47 80 47 80 47 152.5 c 128,-1,58
 47 225 47 225 74 276.5 c 128,-1,59
 101 328 101 328 154 372 c 0,60,61
 270 469 270 469 508 485 c 1,62,-1
 508 540 l 2,22,23
EndSplineSet
EndChar

StartChar: Aogonek
Encoding: 260 260 197
Width: 1234
GlyphClass: 2
Flags: W
LayerCount: 2
Fore
SplineSet
406 534 m 1,0,-1
 758 534 l 1,1,-1
 592 1034 l 1,2,-1
 406 534 l 1,0,-1
1151 -148 m 0,3,4
 1151 -263 1151 -263 1275 -335 c 1,5,-1
 1241 -386 l 1,6,7
 1135 -375 1135 -375 1068.5 -324.5 c 128,-1,8
 1002 -274 1002 -274 1002 -219 c 128,-1,9
 1002 -164 1002 -164 1029 -118 c 128,-1,10
 1056 -72 1056 -72 1137 0 c 1,11,-1
 713 0 l 1,12,-1
 725 74 l 1,13,-1
 896 129 l 1,14,-1
 787 432 l 1,15,-1
 368 432 l 1,16,-1
 256 124 l 1,17,-1
 442 80 l 1,18,-1
 431 0 l 1,19,-1
 -37 0 l 1,20,-1
 -28 74 l 1,21,-1
 121 129 l 1,22,-1
 559 1237 l 1,23,-1
 710 1268 l 1,24,-1
 1100 124 l 1,25,-1
 1237 80 l 1,26,-1
 1228 0 l 1,27,-1
 1211 0 l 1,28,29
 1151 -100 1151 -100 1151 -148 c 0,3,4
EndSplineSet
EndChar

StartChar: aogonek
Encoding: 261 261 198
Width: 835
GlyphClass: 2
Flags: W
LayerCount: 2
Fore
SplineSet
222 215 m 0,0,1
 222 173 222 173 252.5 136 c 128,-1,2
 283 99 283 99 332.5 99 c 128,-1,3
 382 99 382 99 430 127 c 128,-1,4
 478 155 478 155 508 188 c 1,5,-1
 508 428 l 1,6,7
 352 397 352 397 287 344.5 c 128,-1,8
 222 292 222 292 222 215 c 0,0,1
731 -148 m 0,9,10
 731 -261 731 -261 856 -335 c 1,11,-1
 821 -386 l 1,12,13
 715 -375 715 -375 649.5 -324.5 c 128,-1,14
 584 -274 584 -274 584 -208 c 0,15,16
 584 -167 584 -167 607.5 -124.5 c 128,-1,17
 631 -82 631 -82 700 -18 c 1,18,-1
 683 -18 l 2,19,20
 604 -18 604 -18 566 23 c 128,-1,21
 528 64 528 64 528 116 c 2,22,-1
 528 131 l 1,23,-1
 517 131 l 1,24,25
 492 82 492 82 446 45 c 0,26,27
 360 -24 360 -24 260.5 -24 c 128,-1,28
 161 -24 161 -24 104 28 c 128,-1,29
 47 80 47 80 47 152.5 c 128,-1,30
 47 225 47 225 74 276.5 c 128,-1,31
 101 328 101 328 154 372 c 0,32,33
 270 469 270 469 508 485 c 1,34,-1
 508 540 l 2,35,36
 508 804 508 804 331 804 c 0,37,38
 268 804 268 804 249 752 c 0,39,40
 229 699 229 699 220 592 c 1,41,42
 145 592 145 592 123 609 c 0,43,44
 81 641 81 641 81 694 c 128,-1,45
 81 747 81 747 138 795.5 c 128,-1,46
 195 844 195 844 274 872 c 128,-1,47
 353 900 353 900 423 900 c 0,48,49
 555 900 555 900 612.5 826.5 c 128,-1,50
 670 753 670 753 670 593 c 2,51,-1
 670 230 l 2,52,53
 670 160 670 160 691.5 133.5 c 128,-1,54
 713 107 713 107 782 96 c 1,55,-1
 832 87 l 1,56,-1
 819 1 l 1,57,58
 794 -3 794 -3 789 -3 c 1,59,60
 731 -100 731 -100 731 -148 c 0,9,10
EndSplineSet
EndChar

StartChar: Cacute
Encoding: 262 262 199
Width: 1153
GlyphClass: 2
Flags: W
LayerCount: 2
Fore
SplineSet
604 1385 m 1,0,-1
 726 1710 l 1,1,-1
 838 1670 l 1,2,-1
 654 1354 l 1,3,-1
 604 1385 l 1,0,-1
110 325.5 m 128,-1,5
 61 444 61 444 61 562.5 c 128,-1,6
 61 681 61 681 83.5 773.5 c 128,-1,7
 106 866 106 866 156.5 956 c 128,-1,8
 207 1046 207 1046 279.5 1115 c 128,-1,9
 352 1184 352 1184 462 1226.5 c 128,-1,10
 572 1269 572 1269 704 1269 c 0,11,12
 934 1269 934 1269 1066 1169 c 1,13,-1
 1035 837 l 1,14,-1
 947 850 l 1,15,-1
 905 1070 l 1,16,17
 824 1174 824 1174 655.5 1174 c 128,-1,18
 487 1174 487 1174 381 1034 c 128,-1,19
 275 894 275 894 275 658 c 0,20,21
 275 528 275 528 312.5 422 c 128,-1,22
 350 316 350 316 413 249 c 0,23,24
 543 111 543 111 728 111 c 0,25,26
 822 111 822 111 914.5 153.5 c 128,-1,27
 1007 196 1007 196 1078 261 c 1,28,-1
 1113 185 l 1,29,30
 1045 102 1045 102 920 39 c 128,-1,31
 795 -24 795 -24 664.5 -24 c 128,-1,32
 534 -24 534 -24 429 16.5 c 128,-1,33
 324 57 324 57 241.5 132 c 128,-1,4
 159 207 159 207 110 325.5 c 128,-1,5
EndSplineSet
EndChar

StartChar: cacute
Encoding: 263 263 200
Width: 778
GlyphClass: 2
Flags: W
LayerCount: 2
Fore
SplineSet
354 1034 m 1,0,-1
 476 1358 l 1,1,-1
 589 1318 l 1,2,-1
 405 1002 l 1,3,-1
 354 1034 l 1,0,-1
545 90 m 0,4,5
 635 90 635 90 730 151 c 1,6,-1
 755 93 l 1,7,8
 713 43 713 43 625.5 6.5 c 128,-1,9
 538 -30 538 -30 445 -30 c 0,10,11
 270 -30 270 -30 160 100 c 128,-1,12
 50 230 50 230 50 415 c 0,13,14
 50 523 50 523 86 615.5 c 128,-1,15
 122 708 122 708 182 770 c 0,16,17
 308 900 308 900 475 900 c 0,18,19
 593 900 593 900 654.5 855.5 c 128,-1,20
 716 811 716 811 716 756 c 0,21,22
 716 650 716 650 589 642 c 1,23,24
 542 758 542 758 485 791 c 0,25,26
 459 806 459 806 428 806 c 0,27,28
 339 806 339 806 285 724.5 c 128,-1,29
 231 643 231 643 231 507 c 0,30,31
 231 369 231 369 301 236 c 0,32,33
 378 90 378 90 545 90 c 0,4,5
EndSplineSet
EndChar

StartChar: Cdotaccent
Encoding: 266 266 201
Width: 1153
GlyphClass: 2
Flags: W
LayerCount: 2
Fore
SplineSet
121 325.5 m 128,-1,1
 72 444 72 444 72 562.5 c 128,-1,2
 72 681 72 681 94.5 773.5 c 128,-1,3
 117 866 117 866 167.5 956 c 128,-1,4
 218 1046 218 1046 290.5 1115 c 128,-1,5
 363 1184 363 1184 473 1226.5 c 128,-1,6
 583 1269 583 1269 715 1269 c 0,7,8
 945 1269 945 1269 1077 1169 c 1,9,-1
 1046 837 l 1,10,-1
 958 850 l 1,11,-1
 916 1070 l 1,12,13
 835 1174 835 1174 666.5 1174 c 128,-1,14
 498 1174 498 1174 392 1034 c 128,-1,15
 286 894 286 894 286 658 c 0,16,17
 286 528 286 528 323.5 422 c 128,-1,18
 361 316 361 316 424 249 c 0,19,20
 554 111 554 111 739 111 c 0,21,22
 833 111 833 111 925.5 153.5 c 128,-1,23
 1018 196 1018 196 1089 261 c 1,24,-1
 1124 185 l 1,25,26
 1056 102 1056 102 931 39 c 128,-1,27
 806 -24 806 -24 675.5 -24 c 128,-1,28
 545 -24 545 -24 440 16.5 c 128,-1,29
 335 57 335 57 252.5 132 c 128,-1,0
 170 207 170 207 121 325.5 c 128,-1,1
585 1391.5 m 128,-1,31
 550 1428 550 1428 550 1477 c 128,-1,32
 550 1526 550 1526 586 1559.5 c 128,-1,33
 622 1593 622 1593 670.5 1593 c 128,-1,34
 719 1593 719 1593 755.5 1559.5 c 128,-1,35
 792 1526 792 1526 792 1477 c 128,-1,36
 792 1428 792 1428 755.5 1391.5 c 128,-1,37
 719 1355 719 1355 669.5 1355 c 128,-1,30
 620 1355 620 1355 585 1391.5 c 128,-1,31
EndSplineSet
EndChar

StartChar: cdotaccent
Encoding: 267 267 202
Width: 778
GlyphClass: 2
Flags: W
LayerCount: 2
Fore
SplineSet
530 90 m 0,0,1
 620 90 620 90 715 151 c 1,2,-1
 740 93 l 1,3,4
 698 43 698 43 610.5 6.5 c 128,-1,5
 523 -30 523 -30 430 -30 c 0,6,7
 255 -30 255 -30 145 100 c 128,-1,8
 35 230 35 230 35 415 c 0,9,10
 35 523 35 523 71 615.5 c 128,-1,11
 107 708 107 708 166 770 c 1,12,13
 293 900 293 900 460 900 c 0,14,15
 578 900 578 900 639.5 855.5 c 128,-1,16
 701 811 701 811 701 756 c 0,17,18
 701 650 701 650 574 642 c 1,19,20
 527 758 527 758 470 791 c 0,21,22
 444 806 444 806 413 806 c 0,23,24
 324 806 324 806 270 724.5 c 128,-1,25
 216 643 216 643 216 507 c 0,26,27
 216 369 216 369 286 236 c 0,28,29
 363 90 363 90 530 90 c 0,0,1
358 1023.5 m 128,-1,31
 323 1060 323 1060 323 1109 c 128,-1,32
 323 1158 323 1158 359 1191.5 c 128,-1,33
 395 1225 395 1225 443.5 1225 c 128,-1,34
 492 1225 492 1225 528.5 1191.5 c 128,-1,35
 565 1158 565 1158 565 1109 c 128,-1,36
 565 1060 565 1060 528.5 1023.5 c 128,-1,37
 492 987 492 987 442.5 987 c 128,-1,30
 393 987 393 987 358 1023.5 c 128,-1,31
EndSplineSet
EndChar

StartChar: Ccaron
Encoding: 268 268 203
Width: 1153
GlyphClass: 2
Flags: W
LayerCount: 2
Fore
SplineSet
472 1527 m 1,0,-1
 552 1589 l 1,1,-1
 701 1445 l 1,2,-1
 712 1445 l 1,3,-1
 835 1585 l 1,4,-1
 879 1555 l 1,5,-1
 706 1376 l 1,6,-1
 651 1361 l 1,7,-1
 472 1527 l 1,0,-1
110 325.5 m 128,-1,9
 61 444 61 444 61 562.5 c 128,-1,10
 61 681 61 681 83.5 773.5 c 128,-1,11
 106 866 106 866 156.5 956 c 128,-1,12
 207 1046 207 1046 279.5 1115 c 128,-1,13
 352 1184 352 1184 462 1226.5 c 128,-1,14
 572 1269 572 1269 704 1269 c 0,15,16
 934 1269 934 1269 1066 1169 c 1,17,-1
 1035 837 l 1,18,-1
 947 850 l 1,19,-1
 905 1070 l 1,20,21
 824 1174 824 1174 655.5 1174 c 128,-1,22
 487 1174 487 1174 381 1034 c 128,-1,23
 275 894 275 894 275 658 c 0,24,25
 275 528 275 528 312.5 422 c 128,-1,26
 350 316 350 316 413 249 c 0,27,28
 543 111 543 111 728 111 c 0,29,30
 822 111 822 111 914.5 153.5 c 128,-1,31
 1007 196 1007 196 1078 261 c 1,32,-1
 1113 185 l 1,33,34
 1045 102 1045 102 920 39 c 128,-1,35
 795 -24 795 -24 664.5 -24 c 128,-1,36
 534 -24 534 -24 429 16.5 c 128,-1,37
 324 57 324 57 241.5 132 c 128,-1,8
 159 207 159 207 110 325.5 c 128,-1,9
EndSplineSet
EndChar

StartChar: ccaron
Encoding: 269 269 204
Width: 778
GlyphClass: 2
Flags: W
LayerCount: 2
Fore
SplineSet
222 1174 m 1,0,-1
 302 1237 l 1,1,-1
 451 1093 l 1,2,-1
 461 1093 l 1,3,-1
 585 1234 l 1,4,-1
 628 1203 l 1,5,-1
 457 1024 l 1,6,-1
 402 1010 l 1,7,-1
 222 1174 l 1,0,-1
545 90 m 0,8,9
 635 90 635 90 730 151 c 1,10,-1
 755 93 l 1,11,12
 713 43 713 43 625.5 6.5 c 128,-1,13
 538 -30 538 -30 445 -30 c 0,14,15
 270 -30 270 -30 160 100 c 128,-1,16
 50 230 50 230 50 415 c 0,17,18
 50 523 50 523 86 615.5 c 128,-1,19
 122 708 122 708 182 770 c 0,20,21
 308 900 308 900 475 900 c 0,22,23
 593 900 593 900 654.5 855.5 c 128,-1,24
 716 811 716 811 716 756 c 0,25,26
 716 650 716 650 589 642 c 1,27,28
 542 758 542 758 485 791 c 0,29,30
 459 806 459 806 428 806 c 0,31,32
 339 806 339 806 285 724.5 c 128,-1,33
 231 643 231 643 231 507 c 0,34,35
 231 369 231 369 301 236 c 0,36,37
 378 90 378 90 545 90 c 0,8,9
EndSplineSet
EndChar

StartChar: Dcaron
Encoding: 270 270 205
Width: 1364
GlyphClass: 2
Flags: W
LayerCount: 2
Fore
SplineSet
448 1527 m 1,0,-1
 528 1589 l 1,1,-1
 676 1445 l 1,2,-1
 686 1445 l 1,3,-1
 811 1585 l 1,4,-1
 853 1555 l 1,5,-1
 682 1376 l 1,6,-1
 627 1361 l 1,7,-1
 448 1527 l 1,0,-1
424 104 m 1,8,-1
 569 104 l 2,9,10
 698 104 698 104 800 143.5 c 128,-1,11
 902 183 902 183 965 252 c 0,12,13
 1093 391 1093 391 1093 598 c 0,14,15
 1093 835 1093 835 958 992 c 0,16,17
 892 1068 892 1068 786 1111.5 c 128,-1,18
 680 1155 680 1155 572 1155 c 128,-1,19
 464 1155 464 1155 424 1151 c 1,20,-1
 424 104 l 1,8,-1
47 0 m 1,21,-1
 61 74 l 1,22,-1
 233 129 l 1,23,-1
 233 1103 l 1,24,-1
 61 1133 l 1,25,-1
 70 1209 l 1,26,27
 381 1258 381 1258 563.5 1258 c 128,-1,28
 746 1258 746 1258 873 1224 c 128,-1,29
 1000 1190 1000 1190 1080 1134 c 128,-1,30
 1160 1078 1160 1078 1212 998 c 0,31,32
 1304 856 1304 856 1304 653 c 0,33,34
 1304 436 1304 436 1182 275 c 0,35,36
 975 0 975 0 541 0 c 2,37,-1
 47 0 l 1,21,-1
EndSplineSet
EndChar

StartChar: dcaron
Encoding: 271 271 206
Width: 927
GlyphClass: 2
Flags: W
LayerCount: 2
Fore
SplineSet
491 802 m 0,0,1
 279 802 279 802 279 454 c 0,2,3
 279 290 279 290 340.5 197.5 c 128,-1,4
 402 105 402 105 500 105 c 0,5,6
 558 105 558 105 616.5 134 c 128,-1,7
 675 163 675 163 704 197 c 1,8,-1
 704 666 l 1,9,10
 666 728 666 728 605 765 c 128,-1,11
 544 802 544 802 491 802 c 0,0,1
101 399 m 0,12,13
 101 504 101 504 140.5 599.5 c 128,-1,14
 180 695 180 695 242.5 759.5 c 128,-1,15
 305 824 305 824 383 862 c 128,-1,16
 461 900 461 900 524 900 c 0,17,18
 649 900 649 900 710 856 c 1,19,-1
 719 856 l 1,20,-1
 706 984 l 1,21,-1
 706 1111 l 1,22,-1
 553 1166 l 1,23,-1
 568 1241 l 1,24,-1
 845 1265 l 1,25,-1
 868 1241 l 1,26,-1
 868 215 l 2,27,28
 868 141 868 141 892 123.5 c 128,-1,29
 916 106 916 106 926.5 102 c 128,-1,30
 937 98 937 98 956 94 c 128,-1,31
 975 90 975 90 977 89 c 2,32,-1
 1022 79 l 1,33,-1
 1010 -4 l 1,34,35
 935 -23 935 -23 862.5 -23 c 128,-1,36
 790 -23 790 -23 751.5 18 c 128,-1,37
 713 59 713 59 713 124 c 2,38,-1
 713 131 l 1,39,-1
 704 131 l 1,40,41
 593 -21 593 -21 427 -21 c 0,42,43
 287 -21 287 -21 194 90 c 128,-1,44
 101 201 101 201 101 399 c 0,12,13
119 1120 m 1,45,-1
 90 1117 l 1,46,47
 74 1159 74 1159 74 1180 c 0,48,49
 74 1235 74 1235 114 1268 c 128,-1,50
 154 1301 154 1301 189.5 1301 c 128,-1,51
 225 1301 225 1301 254 1289 c 128,-1,52
 283 1277 283 1277 310 1254 c 0,53,54
 372 1203 372 1203 372 1093 c 0,55,56
 372 849 372 849 77 770 c 1,57,-1
 54 839 l 1,58,59
 146 863 146 863 191 910.5 c 128,-1,60
 236 958 236 958 236 1006.5 c 128,-1,61
 236 1055 236 1055 203 1087.5 c 128,-1,62
 170 1120 170 1120 119 1120 c 1,45,-1
EndSplineSet
EndChar

StartChar: Dcroat
Encoding: 272 272 207
Width: 1383
GlyphClass: 2
Flags: W
LayerCount: 2
Fore
SplineSet
433 104 m 1,0,-1
 645 104 l 2,1,2
 764 104 764 104 856 144.5 c 128,-1,3
 948 185 948 185 1002 256 c 1,4,5
 1112 397 1112 397 1112 598 c 0,6,7
 1112 836 1112 836 974 992 c 0,8,9
 906 1069 906 1069 798.5 1113 c 128,-1,10
 691 1157 691 1157 555 1157 c 0,11,12
 493 1157 493 1157 433 1151 c 1,13,-1
 433 672 l 1,14,-1
 691 693 l 1,15,-1
 679 602 l 1,16,-1
 433 581 l 1,17,-1
 433 104 l 1,0,-1
62 555 m 1,18,-1
 74 647 l 1,19,-1
 242 660 l 1,20,-1
 242 1104 l 1,21,-1
 70 1134 l 1,22,-1
 78 1211 l 1,23,24
 389 1260 389 1260 572 1260 c 128,-1,25
 755 1260 755 1260 883.5 1226.5 c 128,-1,26
 1012 1193 1012 1193 1094 1137 c 128,-1,27
 1176 1081 1176 1081 1229 1002 c 0,28,29
 1326 859 1326 859 1326 658 c 0,30,31
 1326 453 1326 453 1200 286 c 1,32,33
 1065 105 1065 105 836 37 c 0,34,35
 712 0 712 0 568 0 c 2,36,-1
 57 0 l 1,37,-1
 70 74 l 1,38,-1
 242 129 l 1,39,-1
 242 569 l 1,40,-1
 62 555 l 1,18,-1
EndSplineSet
EndChar

StartChar: dcroat
Encoding: 273 273 208
Width: 987
GlyphClass: 2
Flags: W
LayerCount: 2
Fore
SplineSet
470 986 m 1,0,-1
 484 1062 l 1,1,-1
 658 1062 l 1,2,-1
 658 1111 l 1,3,-1
 506 1166 l 1,4,-1
 520 1241 l 1,5,-1
 798 1265 l 1,6,-1
 819 1241 l 1,7,-1
 819 1062 l 1,8,-1
 924 1062 l 1,9,-1
 910 986 l 1,10,-1
 819 986 l 1,11,-1
 819 215 l 2,12,13
 819 141 819 141 843 123.5 c 128,-1,14
 867 106 867 106 877.5 102 c 128,-1,15
 888 98 888 98 907 94 c 128,-1,16
 926 90 926 90 928 89 c 2,17,-1
 973 79 l 1,18,-1
 962 -4 l 1,19,20
 887 -23 887 -23 815 -23 c 128,-1,21
 743 -23 743 -23 704.5 18 c 128,-1,22
 666 59 666 59 666 124 c 2,23,-1
 666 131 l 1,24,-1
 657 131 l 1,25,26
 546 -21 546 -21 380 -21 c 0,27,28
 240 -21 240 -21 147 90 c 128,-1,29
 54 201 54 201 54 399 c 0,30,31
 54 504 54 504 93.5 599.5 c 128,-1,32
 133 695 133 695 195.5 759.5 c 128,-1,33
 258 824 258 824 336 862 c 128,-1,34
 414 900 414 900 477 900 c 0,35,36
 602 900 602 900 663 856 c 1,37,-1
 670 856 l 1,38,-1
 658 984 l 1,39,-1
 658 986 l 1,40,-1
 470 986 l 1,0,-1
443 802 m 0,41,42
 230 802 230 802 230 454 c 0,43,44
 230 290 230 290 291.5 197.5 c 128,-1,45
 353 105 353 105 451 105 c 0,46,47
 509 105 509 105 568.5 134 c 128,-1,48
 628 163 628 163 657 197 c 1,49,-1
 657 666 l 1,50,51
 619 728 619 728 557.5 765 c 128,-1,52
 496 802 496 802 443 802 c 0,41,42
EndSplineSet
EndChar

StartChar: Emacron
Encoding: 274 274 209
Width: 1142
GlyphClass: 2
Flags: W
LayerCount: 2
Fore
SplineSet
372 1383 m 1,0,-1
 386 1484 l 1,1,-1
 826 1484 l 1,2,-1
 813 1383 l 1,3,-1
 372 1383 l 1,0,-1
50 1168 m 1,4,-1
 61 1244 l 1,5,-1
 1056 1244 l 1,6,-1
 1025 924 l 1,7,-1
 938 937 l 1,8,-1
 897 1152 l 1,9,-1
 426 1152 l 1,10,-1
 426 676 l 1,11,-1
 716 676 l 1,12,-1
 758 796 l 1,13,-1
 853 810 l 1,14,-1
 819 421 l 1,15,-1
 734 408 l 1,16,-1
 700 583 l 1,17,-1
 426 583 l 1,18,-1
 426 96 l 1,19,-1
 921 96 l 1,20,-1
 1019 326 l 1,21,-1
 1102 313 l 1,22,-1
 1072 0 l 1,23,-1
 57 0 l 1,24,-1
 65 74 l 1,25,-1
 232 121 l 1,26,-1
 232 1126 l 1,27,-1
 50 1168 l 1,4,-1
EndSplineSet
EndChar

StartChar: emacron
Encoding: 275 275 210
Width: 802
GlyphClass: 2
Flags: W
LayerCount: 2
Fore
SplineSet
233 523 m 1,0,-1
 547 546 l 1,1,2
 553 570 553 570 553 615 c 0,3,4
 553 801 553 801 415 801 c 0,5,6
 348 801 348 801 294 729.5 c 128,-1,7
 240 658 240 658 233 523 c 1,0,-1
205 1015 m 1,8,-1
 218 1116 l 1,9,-1
 658 1116 l 1,10,-1
 645 1015 l 1,11,-1
 205 1015 l 1,8,-1
758 104 m 1,12,13
 630 -30 630 -30 429 -30 c 0,14,15
 281 -30 281 -30 170 84 c 1,16,17
 53 206 53 206 53 428 c 0,18,19
 53 536 53 536 90 627.5 c 128,-1,20
 127 719 127 719 186 777 c 0,21,22
 310 899 310 899 464 899 c 0,23,24
 579 899 579 899 655 816 c 128,-1,25
 731 733 731 733 731 581 c 0,26,27
 731 519 731 519 715 451 c 1,28,-1
 231 445 l 1,29,30
 238 282 238 282 333 177 c 0,31,32
 401 102 401 102 510 102 c 2,33,-1
 516 102 l 2,34,35
 594 102 594 102 642 117 c 128,-1,36
 690 132 690 132 737 157 c 1,37,-1
 758 104 l 1,12,13
EndSplineSet
EndChar

StartChar: Edotaccent
Encoding: 278 278 211
Width: 1142
GlyphClass: 2
Flags: W
LayerCount: 2
Fore
SplineSet
491 1464 m 128,-1,1
 491 1508 491 1508 522.5 1539 c 128,-1,2
 554 1570 554 1570 598 1570 c 128,-1,3
 642 1570 642 1570 674 1539 c 128,-1,4
 706 1508 706 1508 706 1463 c 128,-1,5
 706 1418 706 1418 674.5 1387 c 128,-1,6
 643 1356 643 1356 598 1356 c 128,-1,7
 553 1356 553 1356 522 1388 c 128,-1,0
 491 1420 491 1420 491 1464 c 128,-1,1
50 1168 m 1,8,-1
 61 1244 l 1,9,-1
 1056 1244 l 1,10,-1
 1025 924 l 1,11,-1
 938 937 l 1,12,-1
 897 1152 l 1,13,-1
 426 1152 l 1,14,-1
 426 676 l 1,15,-1
 716 676 l 1,16,-1
 758 796 l 1,17,-1
 853 810 l 1,18,-1
 819 421 l 1,19,-1
 734 408 l 1,20,-1
 700 583 l 1,21,-1
 426 583 l 1,22,-1
 426 96 l 1,23,-1
 921 96 l 1,24,-1
 1019 326 l 1,25,-1
 1102 313 l 1,26,-1
 1072 0 l 1,27,-1
 57 0 l 1,28,-1
 65 74 l 1,29,-1
 232 121 l 1,30,-1
 232 1126 l 1,31,-1
 50 1168 l 1,8,-1
EndSplineSet
EndChar

StartChar: edotaccent
Encoding: 279 279 212
Width: 802
GlyphClass: 2
Flags: W
LayerCount: 2
Fore
SplineSet
344 1028.5 m 128,-1,1
 309 1065 309 1065 309 1114 c 128,-1,2
 309 1163 309 1163 344.5 1195.5 c 128,-1,3
 380 1228 380 1228 429 1228 c 128,-1,4
 478 1228 478 1228 514 1195 c 128,-1,5
 550 1162 550 1162 550 1113 c 128,-1,6
 550 1064 550 1064 514 1028 c 128,-1,7
 478 992 478 992 428.5 992 c 128,-1,0
 379 992 379 992 344 1028.5 c 128,-1,1
233 523 m 1,8,-1
 547 546 l 1,9,10
 553 570 553 570 553 615 c 0,11,12
 553 801 553 801 415 801 c 0,13,14
 348 801 348 801 294 729.5 c 128,-1,15
 240 658 240 658 233 523 c 1,8,-1
758 104 m 1,16,17
 630 -30 630 -30 429 -30 c 0,18,19
 281 -30 281 -30 170 84 c 1,20,21
 53 206 53 206 53 428 c 0,22,23
 53 536 53 536 90 627.5 c 128,-1,24
 127 719 127 719 186 777 c 0,25,26
 310 899 310 899 464 899 c 0,27,28
 579 899 579 899 655 816 c 128,-1,29
 731 733 731 733 731 581 c 0,30,31
 731 519 731 519 715 451 c 1,32,-1
 231 445 l 1,33,34
 238 282 238 282 333 177 c 0,35,36
 401 102 401 102 510 102 c 2,37,-1
 516 102 l 2,38,39
 594 102 594 102 642 117 c 128,-1,40
 690 132 690 132 737 157 c 1,41,-1
 758 104 l 1,16,17
EndSplineSet
EndChar

StartChar: Eogonek
Encoding: 280 280 213
Width: 1142
GlyphClass: 2
Flags: W
LayerCount: 2
Fore
SplineSet
951 -148 m 0,0,1
 951 -263 951 -263 1075 -335 c 1,2,-1
 1041 -386 l 1,3,4
 935 -375 935 -375 869.5 -324.5 c 128,-1,5
 804 -274 804 -274 804 -218.5 c 128,-1,6
 804 -163 804 -163 830 -117.5 c 128,-1,7
 856 -72 856 -72 937 0 c 1,8,-1
 57 0 l 1,9,-1
 65 74 l 1,10,-1
 232 121 l 1,11,-1
 232 1126 l 1,12,-1
 50 1168 l 1,13,-1
 61 1244 l 1,14,-1
 1056 1244 l 1,15,-1
 1025 924 l 1,16,-1
 938 937 l 1,17,-1
 897 1152 l 1,18,-1
 426 1152 l 1,19,-1
 426 676 l 1,20,-1
 716 676 l 1,21,-1
 758 796 l 1,22,-1
 853 810 l 1,23,-1
 819 421 l 1,24,-1
 734 408 l 1,25,-1
 700 583 l 1,26,-1
 426 583 l 1,27,-1
 426 96 l 1,28,-1
 921 96 l 1,29,-1
 1019 326 l 1,30,-1
 1102 313 l 1,31,-1
 1072 0 l 1,32,-1
 1011 0 l 1,33,34
 951 -100 951 -100 951 -148 c 0,0,1
EndSplineSet
EndChar

StartChar: eogonek
Encoding: 281 281 214
Width: 805
GlyphClass: 2
Flags: W
LayerCount: 2
Fore
SplineSet
234 523 m 1,0,-1
 549 546 l 1,1,2
 555 570 555 570 555 615 c 0,3,4
 555 801 555 801 415 801 c 0,5,6
 348 801 348 801 294.5 730 c 128,-1,7
 241 659 241 659 234 523 c 1,0,-1
544 -148 m 0,8,9
 544 -261 544 -261 669 -335 c 1,10,-1
 633 -386 l 1,11,12
 527 -375 527 -375 461.5 -324.5 c 128,-1,13
 396 -274 396 -274 396 -208 c 0,14,15
 396 -168 396 -168 418 -126.5 c 128,-1,16
 440 -85 440 -85 504 -24 c 1,17,18
 456 -30 456 -30 407.5 -30 c 128,-1,19
 359 -30 359 -30 292.5 -0.5 c 128,-1,20
 226 29 226 29 172 84 c 0,21,22
 54 206 54 206 54 428 c 0,23,24
 54 536 54 536 91 627.5 c 128,-1,25
 128 719 128 719 187 777 c 0,26,27
 311 899 311 899 465 899 c 0,28,29
 580 899 580 899 657 815.5 c 128,-1,30
 734 732 734 732 734 581 c 0,31,32
 734 528 734 528 716 451 c 1,33,-1
 233 445 l 1,34,35
 240 282 240 282 335 177 c 0,36,37
 403 102 403 102 512 102 c 2,38,-1
 517 102 l 2,39,40
 595 102 595 102 643 117 c 128,-1,41
 691 132 691 132 738 157 c 1,42,-1
 760 104 l 1,43,44
 695 36 695 36 605 2 c 1,45,46
 544 -99 544 -99 544 -148 c 0,8,9
EndSplineSet
EndChar

StartChar: Ecaron
Encoding: 282 282 215
Width: 1142
GlyphClass: 2
Flags: W
LayerCount: 2
Fore
SplineSet
386 1527 m 1,0,-1
 466 1589 l 1,1,-1
 615 1445 l 1,2,-1
 624 1445 l 1,3,-1
 748 1585 l 1,4,-1
 792 1555 l 1,5,-1
 620 1376 l 1,6,-1
 565 1361 l 1,7,-1
 386 1527 l 1,0,-1
50 1168 m 1,8,-1
 61 1244 l 1,9,-1
 1056 1244 l 1,10,-1
 1025 924 l 1,11,-1
 938 937 l 1,12,-1
 897 1152 l 1,13,-1
 426 1152 l 1,14,-1
 426 676 l 1,15,-1
 716 676 l 1,16,-1
 758 796 l 1,17,-1
 853 810 l 1,18,-1
 819 421 l 1,19,-1
 734 408 l 1,20,-1
 700 583 l 1,21,-1
 426 583 l 1,22,-1
 426 96 l 1,23,-1
 921 96 l 1,24,-1
 1019 326 l 1,25,-1
 1102 313 l 1,26,-1
 1072 0 l 1,27,-1
 57 0 l 1,28,-1
 65 74 l 1,29,-1
 232 121 l 1,30,-1
 232 1126 l 1,31,-1
 50 1168 l 1,8,-1
EndSplineSet
EndChar

StartChar: ecaron
Encoding: 283 283 216
Width: 802
GlyphClass: 2
Flags: W
LayerCount: 2
Fore
SplineSet
233 523 m 1,0,-1
 547 546 l 1,1,2
 553 570 553 570 553 615 c 0,3,4
 553 801 553 801 415 801 c 0,5,6
 348 801 348 801 294 729.5 c 128,-1,7
 240 658 240 658 233 523 c 1,0,-1
218 1159 m 1,8,-1
 298 1220 l 1,9,-1
 448 1077 l 1,10,-1
 458 1077 l 1,11,-1
 581 1217 l 1,12,-1
 624 1186 l 1,13,-1
 452 1007 l 1,14,-1
 397 993 l 1,15,-1
 218 1159 l 1,8,-1
758 104 m 1,16,17
 630 -30 630 -30 429 -30 c 0,18,19
 281 -30 281 -30 170 84 c 1,20,21
 53 206 53 206 53 428 c 0,22,23
 53 536 53 536 90 627.5 c 128,-1,24
 127 719 127 719 186 777 c 0,25,26
 310 899 310 899 464 899 c 0,27,28
 579 899 579 899 655 816 c 128,-1,29
 731 733 731 733 731 581 c 0,30,31
 731 519 731 519 715 451 c 1,32,-1
 231 445 l 1,33,34
 238 282 238 282 333 177 c 0,35,36
 401 102 401 102 510 102 c 2,37,-1
 516 102 l 2,38,39
 594 102 594 102 642 117 c 128,-1,40
 690 132 690 132 737 157 c 1,41,-1
 758 104 l 1,16,17
EndSplineSet
EndChar

StartChar: Gbreve
Encoding: 286 286 217
Width: 1299
GlyphClass: 2
Flags: W
LayerCount: 2
Fore
SplineSet
561 1556 m 1,0,-1
 607 1589 l 1,1,2
 655 1487 655 1487 746.5 1487 c 128,-1,3
 838 1487 838 1487 892 1573 c 1,4,-1
 902 1590 l 1,5,-1
 943 1561 l 1,6,7
 916 1476 916 1476 867 1427.5 c 128,-1,8
 818 1379 818 1379 747.5 1379 c 128,-1,9
 677 1379 677 1379 629 1425 c 0,10,11
 577 1475 577 1475 561 1556 c 1,0,-1
1139 79 m 1,12,13
 955 -31 955 -31 658 -31 c 0,14,15
 511 -31 511 -31 395.5 16 c 128,-1,16
 280 63 280 63 208 146 c 0,17,18
 61 315 61 315 61 578 c 0,19,20
 61 947 61 947 342 1143 c 0,21,22
 511 1260 511 1260 717 1260 c 0,23,24
 976 1260 976 1260 1139 1163 c 1,25,-1
 1115 841 l 1,26,-1
 1028 856 l 1,27,-1
 992 1047 l 1,28,29
 950 1089 950 1089 861.5 1125 c 128,-1,30
 773 1161 773 1161 681.5 1161 c 128,-1,31
 590 1161 590 1161 522 1131.5 c 128,-1,32
 454 1102 454 1102 398 1042 c 0,33,34
 276 913 276 913 276 647 c 0,35,36
 276 361 276 361 460 192 c 0,37,38
 584 77 584 77 771 77 c 0,39,40
 870 77 870 77 943 119 c 1,41,-1
 943 434 l 1,42,-1
 707 472 l 1,43,-1
 719 555 l 1,44,-1
 1275 555 l 1,45,-1
 1263 480 l 1,46,-1
 1139 439 l 1,47,-1
 1139 79 l 1,12,13
EndSplineSet
EndChar

StartChar: gbreve
Encoding: 287 287 218
Width: 890
GlyphClass: 2
Flags: W
LayerCount: 2
Fore
SplineSet
253 1188 m 1,0,-1
 298 1220 l 1,1,2
 351 1120 351 1120 441 1120 c 128,-1,3
 531 1120 531 1120 584 1204 c 1,4,-1
 594 1222 l 1,5,-1
 635 1194 l 1,6,-1
 628 1173 l 2,7,8
 604 1104 604 1104 557 1057.5 c 128,-1,9
 510 1011 510 1011 439.5 1011 c 128,-1,10
 369 1011 369 1011 321 1058 c 0,11,12
 270 1107 270 1107 253 1188 c 1,0,-1
289.5 766 m 128,-1,14
 252 709 252 709 252 609.5 c 128,-1,15
 252 510 252 510 304.5 445 c 128,-1,16
 357 380 357 380 417 380 c 0,17,18
 564 380 564 380 564 580 c 0,19,20
 564 670 564 670 519.5 746.5 c 128,-1,21
 475 823 475 823 401 823 c 128,-1,13
 327 823 327 823 289.5 766 c 128,-1,14
252 3 m 1,22,23
 200 -23 200 -23 200 -108 c 0,24,25
 200 -279 200 -279 440 -279 c 0,26,27
 547 -279 547 -279 611.5 -236 c 128,-1,28
 676 -193 676 -193 676 -100 c 0,29,30
 676 -36 676 -36 622.5 -16.5 c 128,-1,31
 569 3 569 3 426 3 c 2,32,-1
 252 3 l 1,22,23
184 27 m 1,33,34
 88 73 88 73 88 164 c 0,35,36
 88 203 88 203 142 253.5 c 128,-1,37
 196 304 196 304 255 328 c 1,38,-1
 255 335 l 1,39,40
 208 347 208 347 150 422.5 c 128,-1,41
 92 498 92 498 92 589 c 0,42,43
 92 711 92 711 195 803.5 c 128,-1,44
 298 896 298 896 423 896 c 128,-1,45
 548 896 548 896 636 833 c 1,46,-1
 851 849 l 1,47,-1
 871 826 l 1,48,-1
 832 715 l 1,49,-1
 816 715 l 1,50,-1
 693 755 l 1,51,-1
 693 738 l 1,52,53
 727 665 727 665 727 588.5 c 128,-1,54
 727 512 727 512 673.5 441.5 c 128,-1,55
 620 371 620 371 543.5 336 c 128,-1,56
 467 301 467 301 401.5 301 c 128,-1,57
 336 301 336 301 299 311 c 1,58,59
 249 259 249 259 249 223.5 c 128,-1,60
 249 188 249 188 286.5 169.5 c 128,-1,61
 324 151 324 151 432 151 c 2,62,-1
 568 151 l 2,63,64
 774 151 774 151 824 54 c 0,65,66
 845 13 845 13 845 -61 c 128,-1,67
 845 -135 845 -135 778 -213.5 c 128,-1,68
 711 -292 711 -292 604.5 -339 c 128,-1,69
 498 -386 498 -386 405.5 -386 c 128,-1,70
 313 -386 313 -386 251.5 -375 c 128,-1,71
 190 -364 190 -364 137 -339 c 0,72,73
 24 -286 24 -286 24 -162 c 0,74,75
 24 -72 24 -72 184 18 c 1,76,-1
 184 27 l 1,33,34
EndSplineSet
EndChar

StartChar: Gdotaccent
Encoding: 288 288 219
Width: 1299
GlyphClass: 2
Flags: W
LayerCount: 2
Fore
SplineSet
1150 79 m 1,0,1
 966 -31 966 -31 669 -31 c 0,2,3
 522 -31 522 -31 406.5 16 c 128,-1,4
 291 63 291 63 219 146 c 0,5,6
 72 315 72 315 72 578 c 0,7,8
 72 947 72 947 354 1143 c 0,9,10
 522 1260 522 1260 728 1260 c 0,11,12
 987 1260 987 1260 1150 1163 c 1,13,-1
 1126 841 l 1,14,-1
 1039 856 l 1,15,-1
 1003 1047 l 1,16,17
 961 1089 961 1089 872.5 1125 c 128,-1,18
 784 1161 784 1161 692.5 1161 c 128,-1,19
 601 1161 601 1161 533 1131.5 c 128,-1,20
 465 1102 465 1102 409 1042 c 0,21,22
 287 913 287 913 287 647 c 0,23,24
 287 361 287 361 470 192 c 0,25,26
 595 77 595 77 782 77 c 0,27,28
 880 77 880 77 954 119 c 1,29,-1
 954 434 l 1,30,-1
 718 472 l 1,31,-1
 730 555 l 1,32,-1
 1286 555 l 1,33,-1
 1274 480 l 1,34,-1
 1150 439 l 1,35,-1
 1150 79 l 1,0,1
597 1391.5 m 128,-1,37
 562 1428 562 1428 562 1477 c 128,-1,38
 562 1526 562 1526 598 1559.5 c 128,-1,39
 634 1593 634 1593 682.5 1593 c 128,-1,40
 731 1593 731 1593 767.5 1559.5 c 128,-1,41
 804 1526 804 1526 804 1477 c 128,-1,42
 804 1428 804 1428 767.5 1391.5 c 128,-1,43
 731 1355 731 1355 681.5 1355 c 128,-1,36
 632 1355 632 1355 597 1391.5 c 128,-1,37
EndSplineSet
EndChar

StartChar: gdotaccent
Encoding: 289 289 220
Width: 890
GlyphClass: 2
Flags: W
LayerCount: 2
Fore
SplineSet
291.5 766 m 128,-1,1
 254 709 254 709 254 609.5 c 128,-1,2
 254 510 254 510 306.5 445 c 128,-1,3
 359 380 359 380 419 380 c 0,4,5
 566 380 566 380 566 580 c 0,6,7
 566 670 566 670 521.5 746.5 c 128,-1,8
 477 823 477 823 403 823 c 128,-1,0
 329 823 329 823 291.5 766 c 128,-1,1
254 3 m 1,9,10
 202 -23 202 -23 202 -108 c 0,11,12
 202 -279 202 -279 442 -279 c 0,13,14
 549 -279 549 -279 613.5 -236 c 128,-1,15
 678 -193 678 -193 678 -100 c 0,16,17
 678 -36 678 -36 624.5 -16.5 c 128,-1,18
 571 3 571 3 428 3 c 2,19,-1
 254 3 l 1,9,10
186 27 m 1,20,21
 90 73 90 73 90 164 c 0,22,23
 90 203 90 203 144 253.5 c 128,-1,24
 198 304 198 304 257 328 c 1,25,-1
 257 335 l 1,26,27
 210 347 210 347 152 422.5 c 128,-1,28
 94 498 94 498 94 589 c 0,29,30
 94 711 94 711 197 803.5 c 128,-1,31
 300 896 300 896 425 896 c 128,-1,32
 550 896 550 896 638 833 c 1,33,-1
 853 849 l 1,34,-1
 873 826 l 1,35,-1
 834 715 l 1,36,-1
 818 715 l 1,37,-1
 695 755 l 1,38,-1
 695 738 l 1,39,40
 729 665 729 665 729 588.5 c 128,-1,41
 729 512 729 512 675.5 441.5 c 128,-1,42
 622 371 622 371 545.5 336 c 128,-1,43
 469 301 469 301 403.5 301 c 128,-1,44
 338 301 338 301 301 311 c 1,45,46
 251 259 251 259 251 223.5 c 128,-1,47
 251 188 251 188 288.5 169.5 c 128,-1,48
 326 151 326 151 434 151 c 2,49,-1
 570 151 l 2,50,51
 776 151 776 151 826 54 c 0,52,53
 847 13 847 13 847 -61 c 128,-1,54
 847 -135 847 -135 780 -213.5 c 128,-1,55
 713 -292 713 -292 606.5 -339 c 128,-1,56
 500 -386 500 -386 407.5 -386 c 128,-1,57
 315 -386 315 -386 253.5 -375 c 128,-1,58
 192 -364 192 -364 139 -339 c 0,59,60
 26 -286 26 -286 26 -162 c 0,61,62
 26 -72 26 -72 186 18 c 1,63,-1
 186 27 l 1,20,21
325 1023.5 m 128,-1,65
 290 1060 290 1060 290 1109 c 128,-1,66
 290 1158 290 1158 326 1191.5 c 128,-1,67
 362 1225 362 1225 410.5 1225 c 128,-1,68
 459 1225 459 1225 495.5 1191.5 c 128,-1,69
 532 1158 532 1158 532 1109 c 128,-1,70
 532 1060 532 1060 495.5 1023.5 c 128,-1,71
 459 987 459 987 409.5 987 c 128,-1,64
 360 987 360 987 325 1023.5 c 128,-1,65
EndSplineSet
EndChar

StartChar: Gcommaaccent
Encoding: 290 290 221
Width: 1299
GlyphClass: 2
Flags: W
LayerCount: 2
Fore
SplineSet
615 -337 m 1,0,1
 707 -313 707 -313 707 -246 c 0,2,3
 707 -223 707 -223 677 -196.5 c 128,-1,4
 647 -170 647 -170 628 -168 c 1,5,6
 635 -133 635 -133 659 -109 c 128,-1,7
 683 -85 683 -85 718 -85 c 128,-1,8
 753 -85 753 -85 785 -114 c 128,-1,9
 817 -143 817 -143 817 -184.5 c 128,-1,10
 817 -226 817 -226 808.5 -250.5 c 128,-1,11
 800 -275 800 -275 780 -302 c 0,12,13
 736 -365 736 -365 632 -389 c 1,14,-1
 615 -337 l 1,0,1
1139 79 m 1,15,16
 955 -31 955 -31 658 -31 c 0,17,18
 511 -31 511 -31 395.5 16 c 128,-1,19
 280 63 280 63 208 146 c 0,20,21
 61 315 61 315 61 578 c 0,22,23
 61 947 61 947 342 1143 c 0,24,25
 511 1260 511 1260 717 1260 c 0,26,27
 976 1260 976 1260 1139 1163 c 1,28,-1
 1115 841 l 1,29,-1
 1028 856 l 1,30,-1
 992 1047 l 1,31,32
 950 1089 950 1089 861.5 1125 c 128,-1,33
 773 1161 773 1161 681.5 1161 c 128,-1,34
 590 1161 590 1161 522 1131.5 c 128,-1,35
 454 1102 454 1102 398 1042 c 0,36,37
 276 913 276 913 276 647 c 0,38,39
 276 361 276 361 460 192 c 0,40,41
 584 77 584 77 771 77 c 0,42,43
 870 77 870 77 943 119 c 1,44,-1
 943 434 l 1,45,-1
 707 472 l 1,46,-1
 719 555 l 1,47,-1
 1275 555 l 1,48,-1
 1263 480 l 1,49,-1
 1139 439 l 1,50,-1
 1139 79 l 1,15,16
EndSplineSet
EndChar

StartChar: gcommaaccent
Encoding: 291 291 222
Width: 890
GlyphClass: 2
Flags: W
LayerCount: 2
Fore
SplineSet
365.5 1020.5 m 128,-1,1
 334 1049 334 1049 334 1090.5 c 128,-1,2
 334 1132 334 1132 342.5 1156.5 c 128,-1,3
 351 1181 351 1181 370 1209 c 0,4,5
 413 1272 413 1272 518 1296 c 1,6,-1
 537 1244 l 1,7,8
 443 1220 443 1220 443 1154 c 0,9,10
 443 1131 443 1131 473.5 1104 c 128,-1,11
 504 1077 504 1077 523 1075 c 1,12,13
 516 1041 516 1041 492 1016.5 c 128,-1,14
 468 992 468 992 432.5 992 c 128,-1,0
 397 992 397 992 365.5 1020.5 c 128,-1,1
289.5 766 m 128,-1,16
 252 709 252 709 252 609.5 c 128,-1,17
 252 510 252 510 304.5 445 c 128,-1,18
 357 380 357 380 417 380 c 0,19,20
 564 380 564 380 564 580 c 0,21,22
 564 670 564 670 519.5 746.5 c 128,-1,23
 475 823 475 823 401 823 c 128,-1,15
 327 823 327 823 289.5 766 c 128,-1,16
252 3 m 1,24,25
 200 -23 200 -23 200 -108 c 0,26,27
 200 -279 200 -279 440 -279 c 0,28,29
 547 -279 547 -279 611.5 -236 c 128,-1,30
 676 -193 676 -193 676 -100 c 0,31,32
 676 -36 676 -36 622.5 -16.5 c 128,-1,33
 569 3 569 3 426 3 c 2,34,-1
 252 3 l 1,24,25
184 27 m 1,35,36
 88 73 88 73 88 164 c 0,37,38
 88 203 88 203 142 253.5 c 128,-1,39
 196 304 196 304 255 328 c 1,40,-1
 255 335 l 1,41,42
 208 347 208 347 150 422.5 c 128,-1,43
 92 498 92 498 92 589 c 0,44,45
 92 711 92 711 195 803.5 c 128,-1,46
 298 896 298 896 423 896 c 128,-1,47
 548 896 548 896 636 833 c 1,48,-1
 851 849 l 1,49,-1
 871 826 l 1,50,-1
 832 715 l 1,51,-1
 816 715 l 1,52,-1
 693 755 l 1,53,-1
 693 738 l 1,54,55
 727 665 727 665 727 588.5 c 128,-1,56
 727 512 727 512 673.5 441.5 c 128,-1,57
 620 371 620 371 543.5 336 c 128,-1,58
 467 301 467 301 401.5 301 c 128,-1,59
 336 301 336 301 299 311 c 1,60,61
 249 259 249 259 249 223.5 c 128,-1,62
 249 188 249 188 286.5 169.5 c 128,-1,63
 324 151 324 151 432 151 c 2,64,-1
 568 151 l 2,65,66
 774 151 774 151 824 54 c 0,67,68
 845 13 845 13 845 -61 c 128,-1,69
 845 -135 845 -135 778 -213.5 c 128,-1,70
 711 -292 711 -292 604.5 -339 c 128,-1,71
 498 -386 498 -386 405.5 -386 c 128,-1,72
 313 -386 313 -386 251.5 -375 c 128,-1,73
 190 -364 190 -364 137 -339 c 0,74,75
 24 -286 24 -286 24 -162 c 0,76,77
 24 -72 24 -72 184 18 c 1,78,-1
 184 27 l 1,35,36
EndSplineSet
EndChar

StartChar: Hbar
Encoding: 294 294 223
Width: 1486
GlyphClass: 2
Flags: W
LayerCount: 2
Fore
SplineSet
1082 888 m 1,0,-1
 455 888 l 1,1,-1
 455 692 l 1,2,-1
 1082 692 l 1,3,-1
 1082 888 l 1,0,-1
123 873 m 1,4,-1
 132 990 l 1,5,-1
 260 990 l 1,6,-1
 260 1126 l 1,7,-1
 78 1168 l 1,8,-1
 89 1244 l 1,9,-1
 633 1244 l 1,10,-1
 623 1168 l 1,11,-1
 455 1130 l 1,12,-1
 455 974 l 1,13,-1
 1082 974 l 1,14,-1
 1082 1126 l 1,15,-1
 899 1168 l 1,16,-1
 910 1244 l 1,17,-1
 1456 1244 l 1,18,-1
 1444 1168 l 1,19,-1
 1277 1130 l 1,20,-1
 1277 990 l 1,21,-1
 1376 990 l 1,22,-1
 1369 873 l 1,23,-1
 1277 873 l 1,24,-1
 1277 114 l 1,25,-1
 1459 80 l 1,26,-1
 1449 0 l 1,27,-1
 906 0 l 1,28,-1
 916 74 l 1,29,-1
 1082 121 l 1,30,-1
 1082 589 l 1,31,-1
 455 589 l 1,32,-1
 455 114 l 1,33,-1
 639 80 l 1,34,-1
 626 0 l 1,35,-1
 85 0 l 1,36,-1
 93 74 l 1,37,-1
 260 121 l 1,38,-1
 260 873 l 1,39,-1
 123 873 l 1,4,-1
EndSplineSet
EndChar

StartChar: hbar
Encoding: 295 295 224
Width: 1029
GlyphClass: 2
Flags: W
LayerCount: 2
Fore
SplineSet
-26 961 m 1,0,-1
 -19 1041 l 1,1,-1
 152 1041 l 1,2,-1
 152 1117 l 1,3,-1
 -8 1171 l 1,4,-1
 4 1247 l 1,5,-1
 293 1269 l 1,6,-1
 318 1245 l 1,7,-1
 318 1041 l 1,8,-1
 654 1041 l 1,9,-1
 647 961 l 1,10,-1
 318 961 l 1,11,-1
 318 850 l 1,12,-1
 302 744 l 1,13,-1
 312 744 l 1,14,15
 453 900 453 900 606 900 c 0,16,17
 786 900 786 900 831 748 c 0,18,19
 849 687 849 687 849 599 c 2,20,-1
 849 114 l 1,21,-1
 994 79 l 1,22,-1
 982 0 l 1,23,-1
 533 0 l 1,24,-1
 545 74 l 1,25,-1
 680 114 l 1,26,-1
 683 580 l 2,27,28
 683 677 683 677 632 720.5 c 128,-1,29
 581 764 581 764 511 764 c 0,30,31
 403 764 403 764 318 675 c 1,32,-1
 318 116 l 1,33,-1
 464 80 l 1,34,-1
 452 0 l 1,35,-1
 -13 0 l 1,36,-1
 -2 79 l 1,37,-1
 152 116 l 1,38,-1
 152 961 l 1,39,-1
 -26 961 l 1,0,-1
EndSplineSet
EndChar

